%TF.GenerationSoftware,KiCad,Pcbnew,7.0.5*%
%TF.CreationDate,2023-07-26T01:35:10-03:00*%
%TF.ProjectId,HallCoinDetector,48616c6c-436f-4696-9e44-65746563746f,rev?*%
%TF.SameCoordinates,Original*%
%TF.FileFunction,Soldermask,Bot*%
%TF.FilePolarity,Negative*%
%FSLAX46Y46*%
G04 Gerber Fmt 4.6, Leading zero omitted, Abs format (unit mm)*
G04 Created by KiCad (PCBNEW 7.0.5) date 2023-07-26 01:35:10*
%MOMM*%
%LPD*%
G01*
G04 APERTURE LIST*
G04 Aperture macros list*
%AMRoundRect*
0 Rectangle with rounded corners*
0 $1 Rounding radius*
0 $2 $3 $4 $5 $6 $7 $8 $9 X,Y pos of 4 corners*
0 Add a 4 corners polygon primitive as box body*
4,1,4,$2,$3,$4,$5,$6,$7,$8,$9,$2,$3,0*
0 Add four circle primitives for the rounded corners*
1,1,$1+$1,$2,$3*
1,1,$1+$1,$4,$5*
1,1,$1+$1,$6,$7*
1,1,$1+$1,$8,$9*
0 Add four rect primitives between the rounded corners*
20,1,$1+$1,$2,$3,$4,$5,0*
20,1,$1+$1,$4,$5,$6,$7,0*
20,1,$1+$1,$6,$7,$8,$9,0*
20,1,$1+$1,$8,$9,$2,$3,0*%
G04 Aperture macros list end*
%ADD10R,1.000000X1.000000*%
%ADD11O,1.000000X1.000000*%
%ADD12O,1.200000X2.400000*%
%ADD13RoundRect,0.250000X-0.450000X0.262500X-0.450000X-0.262500X0.450000X-0.262500X0.450000X0.262500X0*%
%ADD14RoundRect,0.250000X-0.262500X-0.450000X0.262500X-0.450000X0.262500X0.450000X-0.262500X0.450000X0*%
%ADD15R,0.800000X1.000000*%
%ADD16C,0.900000*%
%ADD17R,1.500000X0.700000*%
%ADD18RoundRect,0.250000X0.262500X0.450000X-0.262500X0.450000X-0.262500X-0.450000X0.262500X-0.450000X0*%
%ADD19RoundRect,0.250000X0.450000X-0.262500X0.450000X0.262500X-0.450000X0.262500X-0.450000X-0.262500X0*%
%ADD20RoundRect,0.225000X0.375000X-0.225000X0.375000X0.225000X-0.375000X0.225000X-0.375000X-0.225000X0*%
%ADD21RoundRect,0.150000X-0.150000X0.825000X-0.150000X-0.825000X0.150000X-0.825000X0.150000X0.825000X0*%
%ADD22RoundRect,0.250000X-0.475000X0.250000X-0.475000X-0.250000X0.475000X-0.250000X0.475000X0.250000X0*%
%ADD23RoundRect,0.150000X0.512500X0.150000X-0.512500X0.150000X-0.512500X-0.150000X0.512500X-0.150000X0*%
%ADD24RoundRect,0.225000X-0.250000X0.225000X-0.250000X-0.225000X0.250000X-0.225000X0.250000X0.225000X0*%
%ADD25RoundRect,0.250000X0.500000X-0.950000X0.500000X0.950000X-0.500000X0.950000X-0.500000X-0.950000X0*%
%ADD26RoundRect,0.250000X0.500000X-0.275000X0.500000X0.275000X-0.500000X0.275000X-0.500000X-0.275000X0*%
%ADD27RoundRect,0.225000X-0.375000X0.225000X-0.375000X-0.225000X0.375000X-0.225000X0.375000X0.225000X0*%
%ADD28RoundRect,0.150000X0.150000X-0.825000X0.150000X0.825000X-0.150000X0.825000X-0.150000X-0.825000X0*%
G04 APERTURE END LIST*
D10*
%TO.C,M1*%
X175360400Y-106175700D03*
D11*
X174090400Y-106175700D03*
%TD*%
D12*
%TO.C,BT1*%
X176995900Y-116414800D03*
X155913900Y-116414800D03*
%TD*%
D13*
%TO.C,R8*%
X162620000Y-104121200D03*
X162620000Y-105946200D03*
%TD*%
D14*
%TO.C,R6*%
X159472300Y-115297200D03*
X161297300Y-115297200D03*
%TD*%
D13*
%TO.C,R10*%
X168716000Y-115449600D03*
X168716000Y-117274600D03*
%TD*%
D15*
%TO.C,SW1*%
X155779600Y-105359600D03*
X157989600Y-105359600D03*
D16*
X156879600Y-103209600D03*
X156879600Y-100209600D03*
D15*
X155779600Y-98059600D03*
X157989600Y-98059600D03*
D17*
X158639600Y-103959600D03*
X158639600Y-100959600D03*
X158639600Y-99459600D03*
%TD*%
D18*
%TO.C,R5*%
X163075300Y-117329200D03*
X161250300Y-117329200D03*
%TD*%
D19*
%TO.C,R12*%
X166430000Y-108029000D03*
X166430000Y-106204000D03*
%TD*%
D20*
%TO.C,D2*%
X174204900Y-111825700D03*
X174204900Y-108525700D03*
%TD*%
D21*
%TO.C,U1*%
X168309600Y-107982000D03*
X169579600Y-107982000D03*
X170849600Y-107982000D03*
X172119600Y-107982000D03*
X172119600Y-112932000D03*
X170849600Y-112932000D03*
X169579600Y-112932000D03*
X168309600Y-112932000D03*
%TD*%
D13*
%TO.C,R9*%
X166785600Y-115500400D03*
X166785600Y-117325400D03*
%TD*%
D19*
%TO.C,R13*%
X176404900Y-110400700D03*
X176404900Y-108575700D03*
%TD*%
D22*
%TO.C,C5*%
X170804900Y-115398800D03*
X170804900Y-117298800D03*
%TD*%
D23*
%TO.C,U3*%
X165586300Y-100682000D03*
X165586300Y-102582000D03*
X163311300Y-101632000D03*
%TD*%
D24*
%TO.C,C4*%
X172604900Y-115754400D03*
X172604900Y-117304400D03*
%TD*%
D19*
%TO.C,R7*%
X160689600Y-105948100D03*
X160689600Y-104123100D03*
%TD*%
D25*
%TO.C,D3*%
X168650000Y-97110000D03*
D26*
X168650000Y-99485000D03*
%TD*%
D18*
%TO.C,R4*%
X158860800Y-108032800D03*
X157035800Y-108032800D03*
%TD*%
D27*
%TO.C,D1*%
X174604900Y-114925700D03*
X174604900Y-118225700D03*
%TD*%
D19*
%TO.C,R11*%
X164855200Y-117325400D03*
X164855200Y-115500400D03*
%TD*%
%TO.C,R3*%
X158911600Y-111688500D03*
X158911600Y-109863500D03*
%TD*%
D28*
%TO.C,U4*%
X164499600Y-112982800D03*
X163229600Y-112982800D03*
X161959600Y-112982800D03*
X160689600Y-112982800D03*
X160689600Y-108032800D03*
X161959600Y-108032800D03*
X163229600Y-108032800D03*
X164499600Y-108032800D03*
%TD*%
M02*
