%TF.GenerationSoftware,KiCad,Pcbnew,7.0.5*%
%TF.CreationDate,2023-07-26T01:35:09-03:00*%
%TF.ProjectId,HallCoinDetector,48616c6c-436f-4696-9e44-65746563746f,rev?*%
%TF.SameCoordinates,Original*%
%TF.FileFunction,Copper,L2,Bot*%
%TF.FilePolarity,Positive*%
%FSLAX46Y46*%
G04 Gerber Fmt 4.6, Leading zero omitted, Abs format (unit mm)*
G04 Created by KiCad (PCBNEW 7.0.5) date 2023-07-26 01:35:09*
%MOMM*%
%LPD*%
G01*
G04 APERTURE LIST*
G04 Aperture macros list*
%AMRoundRect*
0 Rectangle with rounded corners*
0 $1 Rounding radius*
0 $2 $3 $4 $5 $6 $7 $8 $9 X,Y pos of 4 corners*
0 Add a 4 corners polygon primitive as box body*
4,1,4,$2,$3,$4,$5,$6,$7,$8,$9,$2,$3,0*
0 Add four circle primitives for the rounded corners*
1,1,$1+$1,$2,$3*
1,1,$1+$1,$4,$5*
1,1,$1+$1,$6,$7*
1,1,$1+$1,$8,$9*
0 Add four rect primitives between the rounded corners*
20,1,$1+$1,$2,$3,$4,$5,0*
20,1,$1+$1,$4,$5,$6,$7,0*
20,1,$1+$1,$6,$7,$8,$9,0*
20,1,$1+$1,$8,$9,$2,$3,0*%
G04 Aperture macros list end*
%TA.AperFunction,ComponentPad*%
%ADD10R,1.000000X1.000000*%
%TD*%
%TA.AperFunction,ComponentPad*%
%ADD11O,1.000000X1.000000*%
%TD*%
%TA.AperFunction,ComponentPad*%
%ADD12O,1.200000X2.400000*%
%TD*%
%TA.AperFunction,SMDPad,CuDef*%
%ADD13RoundRect,0.250000X-0.450000X0.262500X-0.450000X-0.262500X0.450000X-0.262500X0.450000X0.262500X0*%
%TD*%
%TA.AperFunction,SMDPad,CuDef*%
%ADD14RoundRect,0.250000X-0.262500X-0.450000X0.262500X-0.450000X0.262500X0.450000X-0.262500X0.450000X0*%
%TD*%
%TA.AperFunction,SMDPad,CuDef*%
%ADD15R,0.800000X1.000000*%
%TD*%
%TA.AperFunction,SMDPad,CuDef*%
%ADD16R,1.500000X0.700000*%
%TD*%
%TA.AperFunction,SMDPad,CuDef*%
%ADD17RoundRect,0.250000X0.262500X0.450000X-0.262500X0.450000X-0.262500X-0.450000X0.262500X-0.450000X0*%
%TD*%
%TA.AperFunction,SMDPad,CuDef*%
%ADD18RoundRect,0.250000X0.450000X-0.262500X0.450000X0.262500X-0.450000X0.262500X-0.450000X-0.262500X0*%
%TD*%
%TA.AperFunction,SMDPad,CuDef*%
%ADD19RoundRect,0.225000X0.375000X-0.225000X0.375000X0.225000X-0.375000X0.225000X-0.375000X-0.225000X0*%
%TD*%
%TA.AperFunction,SMDPad,CuDef*%
%ADD20RoundRect,0.150000X-0.150000X0.825000X-0.150000X-0.825000X0.150000X-0.825000X0.150000X0.825000X0*%
%TD*%
%TA.AperFunction,SMDPad,CuDef*%
%ADD21RoundRect,0.250000X-0.475000X0.250000X-0.475000X-0.250000X0.475000X-0.250000X0.475000X0.250000X0*%
%TD*%
%TA.AperFunction,SMDPad,CuDef*%
%ADD22RoundRect,0.150000X0.512500X0.150000X-0.512500X0.150000X-0.512500X-0.150000X0.512500X-0.150000X0*%
%TD*%
%TA.AperFunction,SMDPad,CuDef*%
%ADD23RoundRect,0.225000X-0.250000X0.225000X-0.250000X-0.225000X0.250000X-0.225000X0.250000X0.225000X0*%
%TD*%
%TA.AperFunction,SMDPad,CuDef*%
%ADD24RoundRect,0.250000X0.500000X-0.950000X0.500000X0.950000X-0.500000X0.950000X-0.500000X-0.950000X0*%
%TD*%
%TA.AperFunction,SMDPad,CuDef*%
%ADD25RoundRect,0.250000X0.500000X-0.275000X0.500000X0.275000X-0.500000X0.275000X-0.500000X-0.275000X0*%
%TD*%
%TA.AperFunction,SMDPad,CuDef*%
%ADD26RoundRect,0.225000X-0.375000X0.225000X-0.375000X-0.225000X0.375000X-0.225000X0.375000X0.225000X0*%
%TD*%
%TA.AperFunction,SMDPad,CuDef*%
%ADD27RoundRect,0.150000X0.150000X-0.825000X0.150000X0.825000X-0.150000X0.825000X-0.150000X-0.825000X0*%
%TD*%
%TA.AperFunction,ViaPad*%
%ADD28C,0.800000*%
%TD*%
%TA.AperFunction,Conductor*%
%ADD29C,0.250000*%
%TD*%
%TA.AperFunction,Conductor*%
%ADD30C,0.500000*%
%TD*%
%TA.AperFunction,Conductor*%
%ADD31C,0.400000*%
%TD*%
G04 APERTURE END LIST*
D10*
%TO.P,M1,1,+*%
%TO.N,/3V*%
X175360400Y-106175700D03*
D11*
%TO.P,M1,2,-*%
%TO.N,Net-(D3-A)*%
X174090400Y-106175700D03*
%TD*%
D12*
%TO.P,BT1,1,+*%
%TO.N,/BAT*%
X176995900Y-116414800D03*
X155913900Y-116414800D03*
%TD*%
D13*
%TO.P,R8,1*%
%TO.N,Net-(U3-OUT)*%
X162620000Y-104121200D03*
%TO.P,R8,2*%
%TO.N,Net-(U4B--)*%
X162620000Y-105946200D03*
%TD*%
D14*
%TO.P,R6,1*%
%TO.N,GND*%
X159472300Y-115297200D03*
%TO.P,R6,2*%
%TO.N,Net-(U4A--)*%
X161297300Y-115297200D03*
%TD*%
D13*
%TO.P,R10,1*%
%TO.N,Net-(U1-DIS)*%
X168716000Y-115449600D03*
%TO.P,R10,2*%
%TO.N,Net-(U1-THR)*%
X168716000Y-117274600D03*
%TD*%
D15*
%TO.P,SW1,*%
%TO.N,*%
X155779600Y-105359600D03*
X157989600Y-105359600D03*
X155779600Y-98059600D03*
X157989600Y-98059600D03*
D16*
%TO.P,SW1,1,A*%
%TO.N,/BAT*%
X158639600Y-103959600D03*
%TO.P,SW1,2,B*%
X158639600Y-100959600D03*
%TO.P,SW1,3,C*%
%TO.N,/3V*%
X158639600Y-99459600D03*
%TD*%
D17*
%TO.P,R5,1*%
%TO.N,/+5V*%
X163075300Y-117329200D03*
%TO.P,R5,2*%
%TO.N,Net-(U4A--)*%
X161250300Y-117329200D03*
%TD*%
D18*
%TO.P,R12,1*%
%TO.N,/+5V*%
X166430000Y-108029000D03*
%TO.P,R12,2*%
%TO.N,Net-(U1-R)*%
X166430000Y-106204000D03*
%TD*%
D19*
%TO.P,D2,1,K*%
%TO.N,Net-(D1-K)*%
X174204900Y-111825700D03*
%TO.P,D2,2,A*%
%TO.N,Net-(D2-A)*%
X174204900Y-108525700D03*
%TD*%
D20*
%TO.P,U1,1,GND*%
%TO.N,GND*%
X168309600Y-107982000D03*
%TO.P,U1,2,TR*%
%TO.N,Net-(U1-THR)*%
X169579600Y-107982000D03*
%TO.P,U1,3,Q*%
%TO.N,Net-(D2-A)*%
X170849600Y-107982000D03*
%TO.P,U1,4,R*%
%TO.N,Net-(U1-R)*%
X172119600Y-107982000D03*
%TO.P,U1,5,CV*%
%TO.N,Net-(U1-CV)*%
X172119600Y-112932000D03*
%TO.P,U1,6,THR*%
%TO.N,Net-(U1-THR)*%
X170849600Y-112932000D03*
%TO.P,U1,7,DIS*%
%TO.N,Net-(U1-DIS)*%
X169579600Y-112932000D03*
%TO.P,U1,8,VCC*%
%TO.N,/+5V*%
X168309600Y-112932000D03*
%TD*%
D13*
%TO.P,R9,1*%
%TO.N,/+5V*%
X166785600Y-115500400D03*
%TO.P,R9,2*%
%TO.N,Net-(U1-DIS)*%
X166785600Y-117325400D03*
%TD*%
D18*
%TO.P,R13,1*%
%TO.N,Net-(D1-K)*%
X176404900Y-110400700D03*
%TO.P,R13,2*%
%TO.N,GND*%
X176404900Y-108575700D03*
%TD*%
D21*
%TO.P,C5,1*%
%TO.N,Net-(U1-THR)*%
X170804900Y-115398800D03*
%TO.P,C5,2*%
%TO.N,GND*%
X170804900Y-117298800D03*
%TD*%
D22*
%TO.P,U3,1,VCC*%
%TO.N,/+5V*%
X165586300Y-100682000D03*
%TO.P,U3,2,GND*%
%TO.N,GND*%
X165586300Y-102582000D03*
%TO.P,U3,3,OUT*%
%TO.N,Net-(U3-OUT)*%
X163311300Y-101632000D03*
%TD*%
D23*
%TO.P,C4,1*%
%TO.N,Net-(U1-CV)*%
X172604900Y-115754400D03*
%TO.P,C4,2*%
%TO.N,GND*%
X172604900Y-117304400D03*
%TD*%
D18*
%TO.P,R7,1*%
%TO.N,Net-(U4A-+)*%
X160689600Y-105948100D03*
%TO.P,R7,2*%
%TO.N,Net-(U3-OUT)*%
X160689600Y-104123100D03*
%TD*%
D24*
%TO.P,D3,1,K*%
%TO.N,/3V*%
X168650000Y-97110000D03*
D25*
%TO.P,D3,2,A*%
%TO.N,Net-(D3-A)*%
X168650000Y-99485000D03*
%TD*%
D17*
%TO.P,R4,1*%
%TO.N,Net-(U4B-+)*%
X158860800Y-108032800D03*
%TO.P,R4,2*%
%TO.N,GND*%
X157035800Y-108032800D03*
%TD*%
D26*
%TO.P,D1,1,K*%
%TO.N,Net-(D1-K)*%
X174604900Y-114925700D03*
%TO.P,D1,2,A*%
%TO.N,Net-(D1-A)*%
X174604900Y-118225700D03*
%TD*%
D18*
%TO.P,R11,1*%
%TO.N,/+5V*%
X164855200Y-117325400D03*
%TO.P,R11,2*%
%TO.N,Net-(D1-A)*%
X164855200Y-115500400D03*
%TD*%
%TO.P,R3,1*%
%TO.N,/+5V*%
X158911600Y-111688500D03*
%TO.P,R3,2*%
%TO.N,Net-(U4B-+)*%
X158911600Y-109863500D03*
%TD*%
D27*
%TO.P,U4,1*%
%TO.N,Net-(D1-A)*%
X164499600Y-112982800D03*
%TO.P,U4,2,-*%
%TO.N,Net-(U4A--)*%
X163229600Y-112982800D03*
%TO.P,U4,3,+*%
%TO.N,Net-(U4A-+)*%
X161959600Y-112982800D03*
%TO.P,U4,4,V-*%
%TO.N,GND*%
X160689600Y-112982800D03*
%TO.P,U4,5,+*%
%TO.N,Net-(U4B-+)*%
X160689600Y-108032800D03*
%TO.P,U4,6,-*%
%TO.N,Net-(U4B--)*%
X161959600Y-108032800D03*
%TO.P,U4,7*%
%TO.N,Net-(U1-R)*%
X163229600Y-108032800D03*
%TO.P,U4,8,V+*%
%TO.N,/+5V*%
X164499600Y-108032800D03*
%TD*%
D28*
%TO.N,/+5V*%
X166430000Y-110217200D03*
X157336800Y-111690400D03*
X163686800Y-99092000D03*
X168665200Y-103714800D03*
X162264400Y-110166400D03*
%TO.N,GND*%
X168157200Y-110115600D03*
X176691600Y-120834400D03*
X157743200Y-122510800D03*
X159165600Y-106305600D03*
X173004900Y-118575700D03*
X160181600Y-118751600D03*
X171916400Y-110623600D03*
X164855200Y-104172000D03*
X158810000Y-117380000D03*
X176640800Y-113570000D03*
%TO.N,Net-(D1-K)*%
X174913600Y-110217200D03*
%TO.N,Net-(D3-A)*%
X167446000Y-100819200D03*
%TO.N,/BAT*%
X156066800Y-101784400D03*
%TO.N,/3V*%
X159216400Y-98584000D03*
%TD*%
D29*
%TO.N,/+5V*%
X163075300Y-117329200D02*
X164851400Y-117329200D01*
X162264400Y-110166400D02*
X163636000Y-110166400D01*
X165586300Y-100682000D02*
X168619100Y-103714800D01*
X163863800Y-99092000D02*
X165606200Y-100834400D01*
X166430000Y-111052400D02*
X168309600Y-112932000D01*
X158909700Y-111690400D02*
X157336800Y-111690400D01*
X168619100Y-103714800D02*
X168665200Y-103714800D01*
X168309600Y-113976400D02*
X166785600Y-115500400D01*
X166426200Y-108032800D02*
X166430000Y-108029000D01*
X166430000Y-108029000D02*
X166430000Y-111052400D01*
X164548500Y-117327300D02*
X164550400Y-117325400D01*
X158911600Y-111688500D02*
X158909700Y-111690400D01*
X166785600Y-115500400D02*
X166375400Y-115500400D01*
X164851400Y-117329200D02*
X164855200Y-117325400D01*
X164855200Y-117325400D02*
X164960600Y-117325400D01*
X164499600Y-109302800D02*
X164499600Y-108032800D01*
X164499600Y-108032800D02*
X166426200Y-108032800D01*
X164960600Y-117325400D02*
X166785600Y-115500400D01*
X163636000Y-110166400D02*
X164499600Y-109302800D01*
X163686800Y-99092000D02*
X163863800Y-99092000D01*
X168309600Y-112932000D02*
X168309600Y-113976400D01*
%TO.N,Net-(U4B-+)*%
X158860800Y-109812700D02*
X158911600Y-109863500D01*
X158860800Y-108032800D02*
X158860800Y-109812700D01*
X160689600Y-108032800D02*
X158860800Y-108032800D01*
%TO.N,Net-(U4A--)*%
X163229600Y-114179600D02*
X162112000Y-115297200D01*
X161250300Y-117329200D02*
X161250300Y-115344200D01*
X161250300Y-115344200D02*
X161297300Y-115297200D01*
X162112000Y-115297200D02*
X161297300Y-115297200D01*
X163229600Y-112982800D02*
X163229600Y-114179600D01*
%TO.N,Net-(U4A-+)*%
X161334600Y-110913000D02*
X161334600Y-106593100D01*
X161959600Y-112982800D02*
X161959600Y-111538000D01*
X161959600Y-111538000D02*
X161334600Y-110913000D01*
X161334600Y-106593100D02*
X160689600Y-105948100D01*
%TO.N,Net-(U3-OUT)*%
X162618100Y-104123100D02*
X162620000Y-104121200D01*
X163311300Y-101632000D02*
X163311300Y-101702700D01*
X160689600Y-104123100D02*
X162618100Y-104123100D01*
X163311300Y-101702700D02*
X162620000Y-102394000D01*
X162620000Y-102394000D02*
X162620000Y-104121200D01*
%TO.N,Net-(U4B--)*%
X161908800Y-107982000D02*
X161959600Y-108032800D01*
X161959600Y-108032800D02*
X161959600Y-106606600D01*
X161959600Y-106606600D02*
X162620000Y-105946200D01*
%TO.N,Net-(U1-DIS)*%
X169579600Y-112932000D02*
X169579600Y-114586000D01*
X166840200Y-117325400D02*
X168716000Y-115449600D01*
X169579600Y-114586000D02*
X168716000Y-115449600D01*
X166785600Y-117325400D02*
X166840200Y-117325400D01*
%TO.N,Net-(U1-THR)*%
X170849600Y-112932000D02*
X170849600Y-115297200D01*
X170849600Y-112932000D02*
X170849600Y-111233200D01*
X168716000Y-117274600D02*
X169075400Y-117274600D01*
X169579600Y-109963200D02*
X169579600Y-107982000D01*
X170849600Y-115297200D02*
X170951200Y-115398800D01*
X170849600Y-111233200D02*
X169579600Y-109963200D01*
X169075400Y-117274600D02*
X170951200Y-115398800D01*
%TO.N,Net-(D1-A)*%
X162924800Y-115500400D02*
X164855200Y-115500400D01*
X162237800Y-119029800D02*
X162237800Y-116187400D01*
X175004900Y-118609500D02*
X174253200Y-119361200D01*
X164499600Y-112982800D02*
X164499600Y-115144800D01*
X162237800Y-116187400D02*
X162924800Y-115500400D01*
X175004900Y-118425700D02*
X175004900Y-118609500D01*
X174253200Y-119361200D02*
X162569200Y-119361200D01*
X162569200Y-119361200D02*
X162237800Y-119029800D01*
X164499600Y-115449600D02*
X164550400Y-115500400D01*
X164499600Y-115144800D02*
X164855200Y-115500400D01*
%TO.N,Net-(U1-R)*%
X172119600Y-107260224D02*
X171063376Y-106204000D01*
X166430000Y-106204000D02*
X164398000Y-106204000D01*
X163229600Y-107372400D02*
X163229600Y-108032800D01*
X164398000Y-106204000D02*
X163229600Y-107372400D01*
X172119600Y-107982000D02*
X172119600Y-107260224D01*
X171063376Y-106204000D02*
X166430000Y-106204000D01*
%TO.N,Net-(D1-K)*%
X176404900Y-110400700D02*
X175097100Y-110400700D01*
X174204900Y-113775700D02*
X174204900Y-111825700D01*
X174204900Y-110925900D02*
X174913600Y-110217200D01*
X175097100Y-110400700D02*
X174913600Y-110217200D01*
X174604900Y-114175700D02*
X174204900Y-113775700D01*
X174204900Y-111825700D02*
X174204900Y-110925900D01*
X174604900Y-114925700D02*
X174604900Y-114175700D01*
%TO.N,Net-(D3-A)*%
X168650000Y-99485000D02*
X168650000Y-99615200D01*
X168400000Y-99235000D02*
X168650000Y-99485000D01*
X168650000Y-99615200D02*
X167446000Y-100819200D01*
%TO.N,/BAT*%
X159673600Y-120021600D02*
X156066800Y-116414800D01*
D30*
X158639600Y-101784400D02*
X158639600Y-103959600D01*
D29*
X176995900Y-116414800D02*
X176954900Y-116455800D01*
D30*
X158639600Y-100959600D02*
X158639600Y-101784400D01*
D29*
X176954900Y-117827900D02*
X174761200Y-120021600D01*
X174761200Y-120021600D02*
X159673600Y-120021600D01*
D31*
X158639600Y-100959600D02*
X159039600Y-100959600D01*
D30*
X156066800Y-101784400D02*
X158639600Y-101784400D01*
D29*
X177148800Y-116414800D02*
X176995900Y-116414800D01*
X176954900Y-116455800D02*
X176954900Y-117827900D01*
%TO.N,Net-(D2-A)*%
X170849600Y-108794800D02*
X170849600Y-107982000D01*
X171336800Y-109282000D02*
X170849600Y-108794800D01*
X173048600Y-109282000D02*
X171336800Y-109282000D01*
X173754900Y-108575700D02*
X173048600Y-109282000D01*
%TO.N,Net-(U1-CV)*%
X172604900Y-115754400D02*
X172604900Y-113417300D01*
X172604900Y-113417300D02*
X172119600Y-112932000D01*
D31*
%TO.N,/3V*%
X160917200Y-96883200D02*
X159216400Y-98584000D01*
X175360400Y-106175700D02*
X175360400Y-103570400D01*
D30*
X158639600Y-99160800D02*
X158639600Y-99459600D01*
X159216400Y-98584000D02*
X158639600Y-99160800D01*
D31*
X168673200Y-96883200D02*
X160917200Y-96883200D01*
X175360400Y-103570400D02*
X168673200Y-96883200D01*
%TD*%
%TA.AperFunction,Conductor*%
%TO.N,GND*%
G36*
X155205700Y-117857311D02*
G01*
X155243841Y-117890361D01*
X155272646Y-117915321D01*
X155454650Y-118020401D01*
X155454652Y-118020401D01*
X155454656Y-118020404D01*
X155653267Y-118089144D01*
X155861298Y-118119054D01*
X156071230Y-118109054D01*
X156275476Y-118059504D01*
X156466653Y-117972196D01*
X156540639Y-117919510D01*
X156606665Y-117896658D01*
X156674565Y-117913130D01*
X156700246Y-117932836D01*
X157954001Y-119186592D01*
X159172797Y-120405388D01*
X159182622Y-120417651D01*
X159182843Y-120417469D01*
X159187811Y-120423474D01*
X159237532Y-120470166D01*
X159238932Y-120471523D01*
X159259123Y-120491715D01*
X159259127Y-120491718D01*
X159259129Y-120491720D01*
X159264611Y-120495973D01*
X159269043Y-120499757D01*
X159303018Y-120531662D01*
X159320576Y-120541314D01*
X159336835Y-120551995D01*
X159352664Y-120564273D01*
X159395438Y-120582782D01*
X159400656Y-120585338D01*
X159441508Y-120607797D01*
X159460916Y-120612780D01*
X159479317Y-120619080D01*
X159497704Y-120627037D01*
X159541088Y-120633908D01*
X159543719Y-120634325D01*
X159549439Y-120635509D01*
X159594581Y-120647100D01*
X159614616Y-120647100D01*
X159634014Y-120648626D01*
X159653794Y-120651759D01*
X159653795Y-120651760D01*
X159653795Y-120651759D01*
X159653796Y-120651760D01*
X159700183Y-120647375D01*
X159706022Y-120647100D01*
X174678457Y-120647100D01*
X174694077Y-120648824D01*
X174694104Y-120648539D01*
X174701866Y-120649273D01*
X174701866Y-120649272D01*
X174701867Y-120649273D01*
X174705199Y-120649168D01*
X174770047Y-120647131D01*
X174771994Y-120647100D01*
X174800547Y-120647100D01*
X174800550Y-120647100D01*
X174807428Y-120646230D01*
X174813241Y-120645772D01*
X174859827Y-120644309D01*
X174879069Y-120638717D01*
X174898112Y-120634774D01*
X174917992Y-120632264D01*
X174961322Y-120615107D01*
X174966846Y-120613217D01*
X174970596Y-120612127D01*
X175011590Y-120600218D01*
X175028829Y-120590022D01*
X175046303Y-120581462D01*
X175064927Y-120574088D01*
X175064927Y-120574087D01*
X175064932Y-120574086D01*
X175102649Y-120546682D01*
X175107505Y-120543492D01*
X175147620Y-120519770D01*
X175161789Y-120505599D01*
X175176579Y-120492968D01*
X175192787Y-120481194D01*
X175222499Y-120445276D01*
X175226412Y-120440976D01*
X177338688Y-118328701D01*
X177350942Y-118318886D01*
X177350759Y-118318664D01*
X177356768Y-118313691D01*
X177356777Y-118313686D01*
X177403507Y-118263922D01*
X177404746Y-118262643D01*
X177425020Y-118242371D01*
X177429279Y-118236878D01*
X177433052Y-118232461D01*
X177464962Y-118198482D01*
X177474613Y-118180924D01*
X177485296Y-118164661D01*
X177497573Y-118148836D01*
X177516085Y-118106053D01*
X177518638Y-118100841D01*
X177541097Y-118059992D01*
X177546080Y-118040580D01*
X177552381Y-118022180D01*
X177560337Y-118003796D01*
X177560337Y-118003793D01*
X177562513Y-117996306D01*
X177565512Y-117997177D01*
X177589206Y-117947128D01*
X177609864Y-117928607D01*
X177663574Y-117890360D01*
X177729601Y-117867509D01*
X177797501Y-117883982D01*
X177845716Y-117934550D01*
X177859500Y-117991369D01*
X177859500Y-122997976D01*
X177859367Y-123002033D01*
X177854021Y-123083585D01*
X177841015Y-123265438D01*
X177839980Y-123273118D01*
X177816848Y-123389408D01*
X177785472Y-123533646D01*
X177783597Y-123540402D01*
X177743497Y-123658533D01*
X177742878Y-123660271D01*
X177693842Y-123791740D01*
X177691356Y-123797499D01*
X177634992Y-123911794D01*
X177633802Y-123914086D01*
X177567828Y-124034907D01*
X177564961Y-124039641D01*
X177493461Y-124146649D01*
X177491543Y-124149359D01*
X177409744Y-124258631D01*
X177406723Y-124262357D01*
X177321529Y-124359502D01*
X177318755Y-124362464D01*
X177222464Y-124458755D01*
X177219502Y-124461529D01*
X177122357Y-124546723D01*
X177118631Y-124549744D01*
X177009359Y-124631543D01*
X177006649Y-124633461D01*
X176899641Y-124704961D01*
X176894907Y-124707828D01*
X176774086Y-124773802D01*
X176771794Y-124774992D01*
X176657499Y-124831356D01*
X176651740Y-124833842D01*
X176520271Y-124882878D01*
X176518533Y-124883497D01*
X176400402Y-124923597D01*
X176393647Y-124925472D01*
X176281206Y-124949932D01*
X176255124Y-124952766D01*
X156943874Y-124995678D01*
X156939681Y-124995546D01*
X156916481Y-124994025D01*
X156734560Y-124981015D01*
X156726880Y-124979980D01*
X156610590Y-124956848D01*
X156466352Y-124925472D01*
X156459596Y-124923597D01*
X156341465Y-124883497D01*
X156339727Y-124882878D01*
X156208258Y-124833842D01*
X156202499Y-124831356D01*
X156088204Y-124774992D01*
X156085912Y-124773802D01*
X155965091Y-124707828D01*
X155960357Y-124704961D01*
X155853349Y-124633461D01*
X155850639Y-124631543D01*
X155810592Y-124601564D01*
X155741353Y-124549732D01*
X155737648Y-124546729D01*
X155640492Y-124461526D01*
X155637549Y-124458769D01*
X155541228Y-124362448D01*
X155538469Y-124359502D01*
X155505450Y-124321851D01*
X155453265Y-124262345D01*
X155450271Y-124258652D01*
X155368454Y-124149358D01*
X155366537Y-124146649D01*
X155295037Y-124039641D01*
X155292170Y-124034907D01*
X155226173Y-123914042D01*
X155225024Y-123911830D01*
X155168635Y-123797483D01*
X155166156Y-123791740D01*
X155117103Y-123660224D01*
X155116531Y-123658618D01*
X155076395Y-123540383D01*
X155074531Y-123533666D01*
X155043150Y-123389408D01*
X155020015Y-123273102D01*
X155018985Y-123265459D01*
X155005992Y-123083793D01*
X155003256Y-123042056D01*
X155000633Y-123002018D01*
X155000500Y-122997963D01*
X155000500Y-117951026D01*
X155020185Y-117883987D01*
X155072989Y-117838232D01*
X155142147Y-117828288D01*
X155205700Y-117857311D01*
G37*
%TD.AperFunction*%
%TA.AperFunction,Conductor*%
G36*
X155205702Y-102105271D02*
G01*
X155237772Y-102148533D01*
X155239619Y-102152680D01*
X155239620Y-102152682D01*
X155239621Y-102152684D01*
X155334267Y-102316616D01*
X155460928Y-102457287D01*
X155460929Y-102457288D01*
X155614065Y-102568548D01*
X155614070Y-102568551D01*
X155786992Y-102645542D01*
X155786997Y-102645544D01*
X155972154Y-102684900D01*
X155972155Y-102684900D01*
X156158745Y-102684900D01*
X156225784Y-102704585D01*
X156271539Y-102757389D01*
X156281483Y-102826547D01*
X156268541Y-102866526D01*
X156219810Y-102959373D01*
X156179100Y-103124544D01*
X156179100Y-103294655D01*
X156219810Y-103459826D01*
X156298863Y-103610449D01*
X156298866Y-103610452D01*
X156411671Y-103737783D01*
X156501918Y-103800076D01*
X156551668Y-103834417D01*
X156551669Y-103834417D01*
X156551670Y-103834418D01*
X156620594Y-103860557D01*
X156686524Y-103885561D01*
X156710728Y-103894740D01*
X156779216Y-103903056D01*
X156837226Y-103910100D01*
X156837228Y-103910100D01*
X156921974Y-103910100D01*
X156979959Y-103903059D01*
X157048472Y-103894740D01*
X157207530Y-103834418D01*
X157207531Y-103834417D01*
X157214543Y-103831758D01*
X157214991Y-103832941D01*
X157275977Y-103820721D01*
X157341031Y-103846210D01*
X157381978Y-103902824D01*
X157389100Y-103944243D01*
X157389100Y-104322419D01*
X157369415Y-104389458D01*
X157339412Y-104421685D01*
X157232052Y-104502055D01*
X157145806Y-104617264D01*
X157145802Y-104617271D01*
X157095508Y-104752117D01*
X157090011Y-104803254D01*
X157089101Y-104811723D01*
X157089100Y-104811735D01*
X157089100Y-105907470D01*
X157089101Y-105907476D01*
X157095508Y-105967083D01*
X157145802Y-106101928D01*
X157145806Y-106101935D01*
X157232052Y-106217144D01*
X157232055Y-106217147D01*
X157347264Y-106303393D01*
X157347271Y-106303397D01*
X157482117Y-106353691D01*
X157482116Y-106353691D01*
X157489044Y-106354435D01*
X157541727Y-106360100D01*
X158437472Y-106360099D01*
X158497083Y-106353691D01*
X158631931Y-106303396D01*
X158747146Y-106217146D01*
X158833396Y-106101931D01*
X158883691Y-105967083D01*
X158890100Y-105907473D01*
X158890099Y-104934098D01*
X158909783Y-104867060D01*
X158962587Y-104821305D01*
X159014099Y-104810099D01*
X159437471Y-104810099D01*
X159437472Y-104810099D01*
X159497083Y-104803691D01*
X159498091Y-104803314D01*
X159498933Y-104803254D01*
X159504631Y-104801908D01*
X159504849Y-104802830D01*
X159567779Y-104798323D01*
X159629106Y-104831800D01*
X159642392Y-104848600D01*
X159642407Y-104848589D01*
X159646884Y-104854251D01*
X159646886Y-104854253D01*
X159646888Y-104854256D01*
X159740553Y-104947921D01*
X159774036Y-105009240D01*
X159769052Y-105078932D01*
X159740552Y-105123280D01*
X159646887Y-105216945D01*
X159554787Y-105366263D01*
X159554785Y-105366268D01*
X159526949Y-105450270D01*
X159499601Y-105532803D01*
X159499601Y-105532804D01*
X159499600Y-105532804D01*
X159489101Y-105635579D01*
X159489100Y-105635596D01*
X159489100Y-106260601D01*
X159489101Y-106260619D01*
X159499600Y-106363396D01*
X159499601Y-106363399D01*
X159534986Y-106470181D01*
X159554786Y-106529934D01*
X159646888Y-106679256D01*
X159770944Y-106803312D01*
X159867689Y-106862984D01*
X159914413Y-106914932D01*
X159925636Y-106983895D01*
X159921668Y-107003119D01*
X159908872Y-107047162D01*
X159871265Y-107106047D01*
X159807793Y-107135253D01*
X159738606Y-107125507D01*
X159702115Y-107100247D01*
X159591957Y-106990089D01*
X159591956Y-106990088D01*
X159475132Y-106918031D01*
X159442636Y-106897987D01*
X159442631Y-106897985D01*
X159408222Y-106886583D01*
X159276097Y-106842801D01*
X159276095Y-106842800D01*
X159173310Y-106832300D01*
X158548298Y-106832300D01*
X158548280Y-106832301D01*
X158445503Y-106842800D01*
X158445500Y-106842801D01*
X158278968Y-106897985D01*
X158278963Y-106897987D01*
X158129645Y-106990087D01*
X158035627Y-107084105D01*
X157974303Y-107117589D01*
X157904612Y-107112605D01*
X157860265Y-107084104D01*
X157766645Y-106990484D01*
X157617424Y-106898443D01*
X157617419Y-106898441D01*
X157450997Y-106843294D01*
X157450990Y-106843293D01*
X157348286Y-106832800D01*
X157285800Y-106832800D01*
X157285800Y-109232799D01*
X157348272Y-109232799D01*
X157348286Y-109232798D01*
X157450997Y-109222305D01*
X157604694Y-109171375D01*
X157674522Y-109168973D01*
X157734564Y-109204705D01*
X157765757Y-109267225D01*
X157761404Y-109328084D01*
X157721601Y-109448200D01*
X157721600Y-109448204D01*
X157711100Y-109550983D01*
X157711100Y-110176001D01*
X157711101Y-110176019D01*
X157721600Y-110278796D01*
X157721601Y-110278799D01*
X157760036Y-110394786D01*
X157776786Y-110445334D01*
X157868888Y-110594656D01*
X157917737Y-110643505D01*
X157962551Y-110688319D01*
X157996035Y-110749643D01*
X157991051Y-110819334D01*
X157962550Y-110863681D01*
X157939514Y-110886717D01*
X157878191Y-110920202D01*
X157808499Y-110915218D01*
X157789850Y-110906433D01*
X157789535Y-110906251D01*
X157616607Y-110829257D01*
X157616602Y-110829255D01*
X157461457Y-110796279D01*
X157431446Y-110789900D01*
X157242154Y-110789900D01*
X157212143Y-110796279D01*
X157056997Y-110829255D01*
X157056992Y-110829257D01*
X156884070Y-110906248D01*
X156884065Y-110906251D01*
X156730929Y-111017511D01*
X156604266Y-111158185D01*
X156509621Y-111322115D01*
X156509618Y-111322122D01*
X156452261Y-111498650D01*
X156451126Y-111502144D01*
X156431340Y-111690400D01*
X156451126Y-111878656D01*
X156451127Y-111878659D01*
X156509618Y-112058677D01*
X156509621Y-112058684D01*
X156604267Y-112222616D01*
X156710873Y-112341014D01*
X156730929Y-112363288D01*
X156884065Y-112474548D01*
X156884070Y-112474551D01*
X157056992Y-112551542D01*
X157056997Y-112551544D01*
X157242154Y-112590900D01*
X157242155Y-112590900D01*
X157431444Y-112590900D01*
X157431446Y-112590900D01*
X157616603Y-112551544D01*
X157789530Y-112474551D01*
X157789534Y-112474547D01*
X157792237Y-112472988D01*
X157794004Y-112472559D01*
X157795467Y-112471908D01*
X157795586Y-112472175D01*
X157860137Y-112456512D01*
X157926165Y-112479362D01*
X157941923Y-112492691D01*
X157992944Y-112543712D01*
X158142266Y-112635814D01*
X158308803Y-112690999D01*
X158411591Y-112701500D01*
X159411608Y-112701499D01*
X159411616Y-112701498D01*
X159411619Y-112701498D01*
X159467902Y-112695748D01*
X159514397Y-112690999D01*
X159680934Y-112635814D01*
X159686079Y-112632640D01*
X159700503Y-112623744D01*
X159767895Y-112605303D01*
X159834558Y-112626225D01*
X159879328Y-112679867D01*
X159889600Y-112729282D01*
X159889600Y-112732800D01*
X160439600Y-112732800D01*
X160439600Y-111510503D01*
X160437103Y-111510700D01*
X160271910Y-111558694D01*
X160271044Y-111555714D01*
X160215984Y-111562502D01*
X160153026Y-111532203D01*
X160116443Y-111472676D01*
X160112099Y-111440144D01*
X160112099Y-111375998D01*
X160112098Y-111375981D01*
X160101599Y-111273203D01*
X160101598Y-111273200D01*
X160090386Y-111239364D01*
X160046414Y-111106666D01*
X159954312Y-110957344D01*
X159860649Y-110863681D01*
X159827164Y-110802358D01*
X159832148Y-110732666D01*
X159860649Y-110688319D01*
X159905463Y-110643505D01*
X159954312Y-110594656D01*
X160046414Y-110445334D01*
X160101599Y-110278797D01*
X160112100Y-110176009D01*
X160112099Y-109576003D01*
X160131783Y-109508965D01*
X160184587Y-109463210D01*
X160253746Y-109453266D01*
X160271446Y-109458274D01*
X160271710Y-109457368D01*
X160437026Y-109505397D01*
X160437029Y-109505397D01*
X160437031Y-109505398D01*
X160473906Y-109508300D01*
X160585100Y-109508300D01*
X160652139Y-109527985D01*
X160697894Y-109580789D01*
X160709100Y-109632300D01*
X160709100Y-110830255D01*
X160707375Y-110845872D01*
X160707661Y-110845899D01*
X160706926Y-110853666D01*
X160709069Y-110921846D01*
X160709100Y-110923793D01*
X160709100Y-110952343D01*
X160709101Y-110952360D01*
X160709968Y-110959231D01*
X160710426Y-110965050D01*
X160711890Y-111011624D01*
X160711891Y-111011627D01*
X160717480Y-111030867D01*
X160721424Y-111049911D01*
X160723936Y-111069792D01*
X160732627Y-111091743D01*
X160741090Y-111113119D01*
X160742982Y-111118647D01*
X160755981Y-111163388D01*
X160766180Y-111180634D01*
X160774736Y-111198100D01*
X160781718Y-111215731D01*
X160782114Y-111216732D01*
X160809498Y-111254423D01*
X160812706Y-111259307D01*
X160836427Y-111299416D01*
X160836433Y-111299424D01*
X160850590Y-111313580D01*
X160863227Y-111328375D01*
X160875006Y-111344587D01*
X160894640Y-111360830D01*
X160933748Y-111418728D01*
X160939600Y-111456373D01*
X160939600Y-113108800D01*
X160919915Y-113175839D01*
X160867111Y-113221594D01*
X160815600Y-113232800D01*
X159889600Y-113232800D01*
X159889600Y-113873449D01*
X159892499Y-113910289D01*
X159892500Y-113910292D01*
X159900726Y-113938607D01*
X159900525Y-114008476D01*
X159862582Y-114067146D01*
X159798944Y-114095988D01*
X159781649Y-114097200D01*
X159722299Y-114097200D01*
X159722300Y-115047200D01*
X159722299Y-116497198D01*
X159722300Y-116497199D01*
X159784772Y-116497199D01*
X159784786Y-116497198D01*
X159887497Y-116486705D01*
X160053919Y-116431558D01*
X160053926Y-116431555D01*
X160138370Y-116379469D01*
X160205763Y-116361028D01*
X160272426Y-116381950D01*
X160317196Y-116435592D01*
X160325858Y-116504922D01*
X160309009Y-116550100D01*
X160302990Y-116559858D01*
X160302986Y-116559866D01*
X160247801Y-116726403D01*
X160247801Y-116726404D01*
X160247800Y-116726404D01*
X160237300Y-116829183D01*
X160237300Y-117829201D01*
X160237301Y-117829219D01*
X160247800Y-117931996D01*
X160247801Y-117931999D01*
X160302985Y-118098531D01*
X160302987Y-118098536D01*
X160309870Y-118109695D01*
X160395088Y-118247856D01*
X160519144Y-118371912D01*
X160668466Y-118464014D01*
X160835003Y-118519199D01*
X160937791Y-118529700D01*
X161488300Y-118529699D01*
X161555339Y-118549383D01*
X161601094Y-118602187D01*
X161612300Y-118653699D01*
X161612300Y-118947055D01*
X161610575Y-118962672D01*
X161610861Y-118962699D01*
X161610126Y-118970466D01*
X161612269Y-119038646D01*
X161612300Y-119040593D01*
X161612300Y-119069143D01*
X161612301Y-119069160D01*
X161613168Y-119076031D01*
X161613626Y-119081850D01*
X161615090Y-119128424D01*
X161615091Y-119128427D01*
X161620680Y-119147667D01*
X161624624Y-119166711D01*
X161627136Y-119186592D01*
X161642918Y-119226455D01*
X161649293Y-119296033D01*
X161617040Y-119358013D01*
X161556397Y-119392716D01*
X161527625Y-119396100D01*
X159984053Y-119396100D01*
X159917014Y-119376415D01*
X159896372Y-119359781D01*
X157050718Y-116514127D01*
X157017233Y-116452804D01*
X157014400Y-116426455D01*
X157014400Y-115762375D01*
X156999428Y-115605582D01*
X156982285Y-115547200D01*
X158459801Y-115547200D01*
X158459801Y-115797186D01*
X158470294Y-115899897D01*
X158525441Y-116066319D01*
X158525443Y-116066324D01*
X158617484Y-116215545D01*
X158741454Y-116339515D01*
X158890675Y-116431556D01*
X158890680Y-116431558D01*
X159057102Y-116486705D01*
X159057109Y-116486706D01*
X159159819Y-116497199D01*
X159222299Y-116497198D01*
X159222300Y-116497198D01*
X159222300Y-115547200D01*
X158459801Y-115547200D01*
X156982285Y-115547200D01*
X156940216Y-115403925D01*
X156843911Y-115217118D01*
X156843909Y-115217116D01*
X156843908Y-115217113D01*
X156713994Y-115051916D01*
X156713990Y-115051912D01*
X156708552Y-115047200D01*
X158459800Y-115047200D01*
X159222300Y-115047200D01*
X159222300Y-114097200D01*
X159222299Y-114097199D01*
X159159828Y-114097200D01*
X159159811Y-114097201D01*
X159057102Y-114107694D01*
X158890680Y-114162841D01*
X158890675Y-114162843D01*
X158741454Y-114254884D01*
X158617484Y-114378854D01*
X158525443Y-114528075D01*
X158525441Y-114528080D01*
X158470294Y-114694502D01*
X158470293Y-114694509D01*
X158459800Y-114797213D01*
X158459800Y-115047200D01*
X156708552Y-115047200D01*
X156555153Y-114914278D01*
X156373149Y-114809198D01*
X156373145Y-114809196D01*
X156373144Y-114809196D01*
X156174533Y-114740456D01*
X155966502Y-114710546D01*
X155966498Y-114710546D01*
X155756572Y-114720545D01*
X155552321Y-114770096D01*
X155552317Y-114770098D01*
X155361156Y-114857398D01*
X155361151Y-114857401D01*
X155196427Y-114974700D01*
X155130400Y-114997552D01*
X155062499Y-114981079D01*
X155014284Y-114930512D01*
X155000500Y-114873692D01*
X155000500Y-108282800D01*
X156023301Y-108282800D01*
X156023301Y-108532786D01*
X156033794Y-108635497D01*
X156088941Y-108801919D01*
X156088943Y-108801924D01*
X156180984Y-108951145D01*
X156304954Y-109075115D01*
X156454175Y-109167156D01*
X156454180Y-109167158D01*
X156620602Y-109222305D01*
X156620609Y-109222306D01*
X156723319Y-109232799D01*
X156785799Y-109232798D01*
X156785800Y-109232798D01*
X156785800Y-108282800D01*
X156023301Y-108282800D01*
X155000500Y-108282800D01*
X155000500Y-107782800D01*
X156023300Y-107782800D01*
X156785800Y-107782800D01*
X156785800Y-106832800D01*
X156785799Y-106832799D01*
X156723328Y-106832800D01*
X156723311Y-106832801D01*
X156620602Y-106843294D01*
X156454180Y-106898441D01*
X156454175Y-106898443D01*
X156304954Y-106990484D01*
X156180984Y-107114454D01*
X156088943Y-107263675D01*
X156088941Y-107263680D01*
X156033794Y-107430102D01*
X156033793Y-107430109D01*
X156023300Y-107532813D01*
X156023300Y-107782800D01*
X155000500Y-107782800D01*
X155000500Y-106430977D01*
X155020185Y-106363938D01*
X155072989Y-106318183D01*
X155142147Y-106308239D01*
X155167825Y-106314792D01*
X155272117Y-106353691D01*
X155331727Y-106360100D01*
X156227472Y-106360099D01*
X156287083Y-106353691D01*
X156421931Y-106303396D01*
X156537146Y-106217146D01*
X156623396Y-106101931D01*
X156673691Y-105967083D01*
X156680100Y-105907473D01*
X156680099Y-104811728D01*
X156673691Y-104752117D01*
X156655384Y-104703034D01*
X156623397Y-104617271D01*
X156623393Y-104617264D01*
X156537147Y-104502055D01*
X156537144Y-104502052D01*
X156421935Y-104415806D01*
X156421928Y-104415802D01*
X156287082Y-104365508D01*
X156287083Y-104365508D01*
X156227483Y-104359101D01*
X156227481Y-104359100D01*
X156227473Y-104359100D01*
X156227464Y-104359100D01*
X155331729Y-104359100D01*
X155331723Y-104359101D01*
X155272116Y-104365508D01*
X155167833Y-104404404D01*
X155098141Y-104409388D01*
X155036818Y-104375903D01*
X155003334Y-104314579D01*
X155000500Y-104288222D01*
X155000500Y-103249678D01*
X155000500Y-102198980D01*
X155020184Y-102131945D01*
X155072987Y-102086190D01*
X155142146Y-102076246D01*
X155205702Y-102105271D01*
G37*
%TD.AperFunction*%
%TA.AperFunction,Conductor*%
G36*
X175862019Y-94520633D02*
G01*
X175900149Y-94523131D01*
X175943793Y-94525992D01*
X176125459Y-94538985D01*
X176133102Y-94540015D01*
X176249451Y-94563158D01*
X176393666Y-94594531D01*
X176400383Y-94596395D01*
X176518618Y-94636531D01*
X176520224Y-94637103D01*
X176651740Y-94686156D01*
X176657483Y-94688635D01*
X176771830Y-94745024D01*
X176774042Y-94746173D01*
X176894913Y-94812173D01*
X176899641Y-94815037D01*
X177006649Y-94886537D01*
X177009358Y-94888454D01*
X177118652Y-94970271D01*
X177122345Y-94973265D01*
X177219502Y-95058469D01*
X177222448Y-95061228D01*
X177318769Y-95157549D01*
X177321526Y-95160492D01*
X177406729Y-95257648D01*
X177409732Y-95261353D01*
X177461564Y-95330592D01*
X177491543Y-95370639D01*
X177493461Y-95373349D01*
X177564961Y-95480357D01*
X177567828Y-95485091D01*
X177633802Y-95605912D01*
X177634992Y-95608204D01*
X177691356Y-95722499D01*
X177693842Y-95728258D01*
X177742878Y-95859727D01*
X177743497Y-95861465D01*
X177783597Y-95979596D01*
X177785472Y-95986352D01*
X177816848Y-96130590D01*
X177839980Y-96246880D01*
X177841015Y-96254560D01*
X177854021Y-96436413D01*
X177859367Y-96517966D01*
X177859500Y-96522023D01*
X177859500Y-114835420D01*
X177839815Y-114902459D01*
X177787011Y-114948214D01*
X177717853Y-114958158D01*
X177654299Y-114929135D01*
X177644770Y-114920879D01*
X177637156Y-114914281D01*
X177637154Y-114914280D01*
X177637152Y-114914278D01*
X177455149Y-114809198D01*
X177455145Y-114809196D01*
X177455144Y-114809196D01*
X177256533Y-114740456D01*
X177048502Y-114710546D01*
X177048498Y-114710546D01*
X176838572Y-114720545D01*
X176634321Y-114770096D01*
X176634317Y-114770098D01*
X176443156Y-114857398D01*
X176443151Y-114857401D01*
X176271946Y-114979315D01*
X176271940Y-114979320D01*
X176126914Y-115131420D01*
X176013288Y-115308225D01*
X175935174Y-115503344D01*
X175915470Y-115605582D01*
X175895400Y-115709715D01*
X175895400Y-117067225D01*
X175910372Y-117224018D01*
X175969584Y-117425675D01*
X176065889Y-117612482D01*
X176094631Y-117649030D01*
X176120600Y-117713894D01*
X176107379Y-117782501D01*
X176084843Y-117813364D01*
X175912205Y-117986002D01*
X175850882Y-118019487D01*
X175781190Y-118014503D01*
X175725257Y-117972631D01*
X175701166Y-117910921D01*
X175698414Y-117883982D01*
X175695249Y-117852992D01*
X175641903Y-117692003D01*
X175641899Y-117691997D01*
X175641898Y-117691994D01*
X175552870Y-117547659D01*
X175552867Y-117547655D01*
X175432944Y-117427732D01*
X175432940Y-117427729D01*
X175288605Y-117338701D01*
X175288599Y-117338698D01*
X175288597Y-117338697D01*
X175226409Y-117318090D01*
X175127609Y-117285351D01*
X175028246Y-117275200D01*
X174181562Y-117275200D01*
X174181544Y-117275201D01*
X174082192Y-117285350D01*
X174082189Y-117285351D01*
X173921205Y-117338696D01*
X173921194Y-117338701D01*
X173776859Y-117427729D01*
X173776855Y-117427732D01*
X173686507Y-117518081D01*
X173625184Y-117551566D01*
X173598826Y-117554400D01*
X172854900Y-117554400D01*
X172854900Y-118254399D01*
X172903208Y-118254399D01*
X172903222Y-118254398D01*
X173002507Y-118244255D01*
X173163381Y-118190947D01*
X173163392Y-118190942D01*
X173313779Y-118098182D01*
X173315222Y-118100523D01*
X173368238Y-118079112D01*
X173436885Y-118092126D01*
X173487598Y-118140188D01*
X173504400Y-118202514D01*
X173504400Y-118499036D01*
X173504401Y-118499053D01*
X173509543Y-118549383D01*
X173514551Y-118598408D01*
X173514551Y-118598410D01*
X173514622Y-118599098D01*
X173501852Y-118667791D01*
X173453972Y-118718675D01*
X173391264Y-118735700D01*
X163605664Y-118735700D01*
X163538625Y-118716015D01*
X163492870Y-118663211D01*
X163482926Y-118594053D01*
X163511951Y-118530497D01*
X163566659Y-118493994D01*
X163657134Y-118464014D01*
X163806456Y-118371912D01*
X163905074Y-118273293D01*
X163966398Y-118239808D01*
X164036090Y-118244792D01*
X164057849Y-118255433D01*
X164085866Y-118272714D01*
X164252403Y-118327899D01*
X164355191Y-118338400D01*
X165355208Y-118338399D01*
X165355216Y-118338398D01*
X165355219Y-118338398D01*
X165411502Y-118332648D01*
X165457997Y-118327899D01*
X165624534Y-118272714D01*
X165755304Y-118192054D01*
X165822695Y-118173614D01*
X165885495Y-118192054D01*
X165933906Y-118221914D01*
X166016257Y-118272709D01*
X166016260Y-118272710D01*
X166016266Y-118272714D01*
X166182803Y-118327899D01*
X166285591Y-118338400D01*
X167285608Y-118338399D01*
X167285616Y-118338398D01*
X167285619Y-118338398D01*
X167341902Y-118332648D01*
X167388397Y-118327899D01*
X167554934Y-118272714D01*
X167704256Y-118180612D01*
X167704260Y-118180607D01*
X167709924Y-118176131D01*
X167711292Y-118177862D01*
X167763161Y-118149528D01*
X167832853Y-118154499D01*
X167854630Y-118165146D01*
X167946666Y-118221914D01*
X168113203Y-118277099D01*
X168215991Y-118287600D01*
X169216008Y-118287599D01*
X169216016Y-118287598D01*
X169216019Y-118287598D01*
X169272302Y-118281848D01*
X169318797Y-118277099D01*
X169485334Y-118221914D01*
X169634656Y-118129812D01*
X169654772Y-118109695D01*
X169716090Y-118076211D01*
X169785782Y-118081193D01*
X169830134Y-118109695D01*
X169861554Y-118141115D01*
X170010775Y-118233156D01*
X170010780Y-118233158D01*
X170177202Y-118288305D01*
X170177209Y-118288306D01*
X170279919Y-118298799D01*
X170554899Y-118298799D01*
X170554900Y-118298798D01*
X170554900Y-117548800D01*
X171054900Y-117548800D01*
X171054900Y-118298799D01*
X171329872Y-118298799D01*
X171329886Y-118298798D01*
X171432597Y-118288305D01*
X171599019Y-118233158D01*
X171599024Y-118233156D01*
X171748241Y-118141117D01*
X171761843Y-118127516D01*
X171823166Y-118094029D01*
X171892857Y-118099012D01*
X171914624Y-118109657D01*
X172046407Y-118190942D01*
X172046418Y-118190947D01*
X172207293Y-118244255D01*
X172306583Y-118254399D01*
X172354899Y-118254398D01*
X172354900Y-118254398D01*
X172354900Y-117554400D01*
X171646862Y-117554400D01*
X171627791Y-117548800D01*
X171054900Y-117548800D01*
X170554900Y-117548800D01*
X170554900Y-117172800D01*
X170574585Y-117105761D01*
X170627389Y-117060006D01*
X170678900Y-117048800D01*
X172012938Y-117048800D01*
X172032009Y-117054400D01*
X173579899Y-117054400D01*
X173579899Y-117031092D01*
X173579898Y-117031077D01*
X173569755Y-116931792D01*
X173516447Y-116770918D01*
X173516442Y-116770907D01*
X173427475Y-116626671D01*
X173427472Y-116626667D01*
X173418239Y-116617434D01*
X173384754Y-116556111D01*
X173389738Y-116486419D01*
X173418243Y-116442068D01*
X173427868Y-116432444D01*
X173516903Y-116288097D01*
X173570249Y-116127108D01*
X173580400Y-116027745D01*
X173580399Y-115824454D01*
X173600083Y-115757417D01*
X173652887Y-115711662D01*
X173722045Y-115701718D01*
X173769365Y-115722054D01*
X173770709Y-115719877D01*
X173921194Y-115812698D01*
X173921197Y-115812699D01*
X173921203Y-115812703D01*
X174082192Y-115866049D01*
X174181555Y-115876200D01*
X175028244Y-115876199D01*
X175028252Y-115876198D01*
X175028255Y-115876198D01*
X175082660Y-115870640D01*
X175127608Y-115866049D01*
X175288597Y-115812703D01*
X175432944Y-115723668D01*
X175552868Y-115603744D01*
X175641903Y-115459397D01*
X175695249Y-115298408D01*
X175705400Y-115199045D01*
X175705399Y-114652356D01*
X175701579Y-114614964D01*
X175695249Y-114552992D01*
X175695248Y-114552989D01*
X175686923Y-114527866D01*
X175641903Y-114392003D01*
X175641899Y-114391997D01*
X175641898Y-114391994D01*
X175552870Y-114247659D01*
X175552867Y-114247655D01*
X175432944Y-114127732D01*
X175432940Y-114127729D01*
X175288605Y-114038701D01*
X175288599Y-114038698D01*
X175288597Y-114038697D01*
X175270656Y-114032752D01*
X175213213Y-113992980D01*
X175190585Y-113949639D01*
X175185603Y-113932492D01*
X175183517Y-113925310D01*
X175176011Y-113912618D01*
X175173321Y-113908069D01*
X175164760Y-113890593D01*
X175163208Y-113886675D01*
X175157386Y-113871968D01*
X175157386Y-113871967D01*
X175147374Y-113858188D01*
X175129983Y-113834250D01*
X175126800Y-113829405D01*
X175103070Y-113789279D01*
X175103065Y-113789273D01*
X175088905Y-113775113D01*
X175076270Y-113760320D01*
X175064493Y-113744112D01*
X175028593Y-113714413D01*
X175024281Y-113710490D01*
X174866719Y-113552928D01*
X174833234Y-113491605D01*
X174830400Y-113465247D01*
X174830400Y-112817805D01*
X174850085Y-112750766D01*
X174889298Y-112712270D01*
X175032944Y-112623668D01*
X175152868Y-112503744D01*
X175241903Y-112359397D01*
X175295249Y-112198408D01*
X175305400Y-112099045D01*
X175305399Y-111552356D01*
X175303340Y-111532203D01*
X175295249Y-111452992D01*
X175294881Y-111451881D01*
X175267493Y-111369231D01*
X175265092Y-111299406D01*
X175300823Y-111239364D01*
X175363344Y-111208171D01*
X175432803Y-111215731D01*
X175472880Y-111242549D01*
X175486244Y-111255912D01*
X175635566Y-111348014D01*
X175802103Y-111403199D01*
X175904891Y-111413700D01*
X176904908Y-111413699D01*
X176904916Y-111413698D01*
X176904919Y-111413698D01*
X176961202Y-111407948D01*
X177007697Y-111403199D01*
X177174234Y-111348014D01*
X177323556Y-111255912D01*
X177447612Y-111131856D01*
X177539714Y-110982534D01*
X177594899Y-110815997D01*
X177605400Y-110713209D01*
X177605399Y-110088192D01*
X177602705Y-110061824D01*
X177594899Y-109985403D01*
X177594898Y-109985400D01*
X177590473Y-109972046D01*
X177539714Y-109818866D01*
X177447612Y-109669544D01*
X177353595Y-109575527D01*
X177320110Y-109514204D01*
X177325094Y-109444512D01*
X177353595Y-109400164D01*
X177447217Y-109306542D01*
X177539256Y-109157324D01*
X177539258Y-109157319D01*
X177594405Y-108990897D01*
X177594406Y-108990890D01*
X177604899Y-108888186D01*
X177604900Y-108888173D01*
X177604900Y-108825700D01*
X176278900Y-108825700D01*
X176211861Y-108806015D01*
X176166106Y-108753211D01*
X176154900Y-108701700D01*
X176154900Y-107563200D01*
X176654900Y-107563200D01*
X176654900Y-108325700D01*
X177604899Y-108325700D01*
X177604899Y-108263228D01*
X177604898Y-108263213D01*
X177594405Y-108160502D01*
X177539258Y-107994080D01*
X177539256Y-107994075D01*
X177447215Y-107844854D01*
X177323245Y-107720884D01*
X177174024Y-107628843D01*
X177174019Y-107628841D01*
X177007597Y-107573694D01*
X177007590Y-107573693D01*
X176904886Y-107563200D01*
X176654900Y-107563200D01*
X176154900Y-107563200D01*
X175904929Y-107563200D01*
X175904912Y-107563201D01*
X175802202Y-107573694D01*
X175635780Y-107628841D01*
X175635775Y-107628843D01*
X175486554Y-107720884D01*
X175362583Y-107844855D01*
X175362574Y-107844867D01*
X175362388Y-107845169D01*
X175362206Y-107845332D01*
X175358102Y-107850523D01*
X175357214Y-107849820D01*
X175310432Y-107891885D01*
X175241468Y-107903095D01*
X175177391Y-107875240D01*
X175157975Y-107852827D01*
X175157349Y-107853323D01*
X175152867Y-107847655D01*
X175032944Y-107727732D01*
X175032940Y-107727729D01*
X174888605Y-107638701D01*
X174888599Y-107638698D01*
X174888597Y-107638697D01*
X174888594Y-107638696D01*
X174727609Y-107585351D01*
X174628246Y-107575200D01*
X173781562Y-107575200D01*
X173781544Y-107575201D01*
X173682192Y-107585350D01*
X173682189Y-107585351D01*
X173521205Y-107638696D01*
X173521194Y-107638701D01*
X173376859Y-107727729D01*
X173376855Y-107727732D01*
X173256932Y-107847655D01*
X173256929Y-107847659D01*
X173167901Y-107991994D01*
X173167897Y-107992003D01*
X173161806Y-108010386D01*
X173122032Y-108067831D01*
X173057516Y-108094653D01*
X172988741Y-108082337D01*
X172937541Y-108034794D01*
X172920100Y-107971381D01*
X172920100Y-107091313D01*
X172920099Y-107091298D01*
X172917198Y-107054432D01*
X172917197Y-107054426D01*
X172871345Y-106896606D01*
X172871344Y-106896603D01*
X172871344Y-106896602D01*
X172787681Y-106755135D01*
X172787679Y-106755133D01*
X172787676Y-106755129D01*
X172671470Y-106638923D01*
X172671462Y-106638917D01*
X172538752Y-106560433D01*
X172529998Y-106555256D01*
X172529997Y-106555255D01*
X172529996Y-106555255D01*
X172529993Y-106555254D01*
X172372173Y-106509402D01*
X172372167Y-106509401D01*
X172335301Y-106506500D01*
X172335294Y-106506500D01*
X172301829Y-106506500D01*
X172234790Y-106486815D01*
X172214148Y-106470181D01*
X171564179Y-105820212D01*
X171554356Y-105807950D01*
X171554135Y-105808134D01*
X171549162Y-105802122D01*
X171499442Y-105755432D01*
X171498042Y-105754075D01*
X171477852Y-105733884D01*
X171472362Y-105729625D01*
X171467937Y-105725847D01*
X171433958Y-105693938D01*
X171433956Y-105693936D01*
X171433953Y-105693935D01*
X171416405Y-105684288D01*
X171400139Y-105673604D01*
X171384309Y-105661325D01*
X171341544Y-105642818D01*
X171336298Y-105640248D01*
X171295469Y-105617803D01*
X171295468Y-105617802D01*
X171276069Y-105612822D01*
X171257657Y-105606518D01*
X171239274Y-105598562D01*
X171239268Y-105598560D01*
X171193250Y-105591272D01*
X171187528Y-105590087D01*
X171142397Y-105578500D01*
X171142395Y-105578500D01*
X171122360Y-105578500D01*
X171102962Y-105576973D01*
X171095538Y-105575797D01*
X171083181Y-105573840D01*
X171083180Y-105573840D01*
X171036792Y-105578225D01*
X171030954Y-105578500D01*
X167607088Y-105578500D01*
X167540049Y-105558815D01*
X167501549Y-105519597D01*
X167472712Y-105472844D01*
X167348656Y-105348788D01*
X167199334Y-105256686D01*
X167032797Y-105201501D01*
X167032795Y-105201500D01*
X166930010Y-105191000D01*
X165929998Y-105191000D01*
X165929980Y-105191001D01*
X165827203Y-105201500D01*
X165827200Y-105201501D01*
X165660668Y-105256685D01*
X165660663Y-105256687D01*
X165511342Y-105348789D01*
X165387289Y-105472842D01*
X165358451Y-105519597D01*
X165306503Y-105566321D01*
X165252912Y-105578500D01*
X164480738Y-105578500D01*
X164465121Y-105576776D01*
X164465094Y-105577062D01*
X164457332Y-105576327D01*
X164389172Y-105578469D01*
X164387225Y-105578500D01*
X164358650Y-105578500D01*
X164357929Y-105578590D01*
X164351757Y-105579369D01*
X164345945Y-105579826D01*
X164299373Y-105581290D01*
X164299372Y-105581290D01*
X164280129Y-105586881D01*
X164261079Y-105590825D01*
X164241211Y-105593334D01*
X164241209Y-105593335D01*
X164197884Y-105610488D01*
X164192357Y-105612380D01*
X164147610Y-105625381D01*
X164147609Y-105625382D01*
X164130367Y-105635579D01*
X164112899Y-105644137D01*
X164094269Y-105651513D01*
X164094267Y-105651514D01*
X164056576Y-105678898D01*
X164051692Y-105682106D01*
X164005122Y-105709648D01*
X163937398Y-105726831D01*
X163871135Y-105704672D01*
X163827372Y-105650206D01*
X163818642Y-105615517D01*
X163818322Y-105612380D01*
X163809999Y-105530903D01*
X163754814Y-105364366D01*
X163662712Y-105215044D01*
X163569048Y-105121381D01*
X163535564Y-105060058D01*
X163540548Y-104990366D01*
X163569049Y-104946019D01*
X163584251Y-104930817D01*
X163662712Y-104852356D01*
X163754814Y-104703034D01*
X163809999Y-104536497D01*
X163820500Y-104433709D01*
X163820499Y-103808692D01*
X163809999Y-103705903D01*
X163754814Y-103539366D01*
X163662712Y-103390044D01*
X163538656Y-103265988D01*
X163440329Y-103205340D01*
X163389336Y-103173887D01*
X163389335Y-103173886D01*
X163389334Y-103173886D01*
X163330493Y-103154388D01*
X163273051Y-103114616D01*
X163246228Y-103050100D01*
X163245500Y-103036683D01*
X163245500Y-102832001D01*
X164426504Y-102832001D01*
X164426699Y-102834486D01*
X164472518Y-102992198D01*
X164556114Y-103133552D01*
X164556121Y-103133561D01*
X164672238Y-103249678D01*
X164672247Y-103249685D01*
X164813603Y-103333282D01*
X164813606Y-103333283D01*
X164971304Y-103379099D01*
X164971310Y-103379100D01*
X165008150Y-103381999D01*
X165008166Y-103382000D01*
X165336300Y-103382000D01*
X165336300Y-102832000D01*
X164426505Y-102832000D01*
X164426504Y-102832001D01*
X163245500Y-102832001D01*
X163245500Y-102704452D01*
X163265185Y-102637413D01*
X163281814Y-102616775D01*
X163429773Y-102468816D01*
X163491095Y-102435334D01*
X163517453Y-102432500D01*
X163889486Y-102432500D01*
X163889494Y-102432500D01*
X163926369Y-102429598D01*
X163926371Y-102429597D01*
X163926373Y-102429597D01*
X163967991Y-102417505D01*
X164084198Y-102383744D01*
X164225665Y-102300081D01*
X164225670Y-102300075D01*
X164231831Y-102295298D01*
X164233139Y-102296984D01*
X164284809Y-102268761D01*
X164354501Y-102273735D01*
X164402241Y-102305752D01*
X164426504Y-102332000D01*
X165336300Y-102332000D01*
X165336300Y-101782000D01*
X165008150Y-101782000D01*
X164971310Y-101784899D01*
X164971304Y-101784900D01*
X164813606Y-101830716D01*
X164813603Y-101830717D01*
X164665529Y-101918288D01*
X164664511Y-101916566D01*
X164609255Y-101938257D01*
X164540738Y-101924572D01*
X164490497Y-101876017D01*
X164474300Y-101814742D01*
X164474300Y-101449895D01*
X164493985Y-101382856D01*
X164546789Y-101337101D01*
X164615947Y-101327157D01*
X164664296Y-101347671D01*
X164665220Y-101346110D01*
X164671935Y-101350081D01*
X164813402Y-101433744D01*
X164855024Y-101445836D01*
X164971226Y-101479597D01*
X164971229Y-101479597D01*
X164971231Y-101479598D01*
X165008106Y-101482500D01*
X165450848Y-101482500D01*
X165517887Y-101502185D01*
X165538529Y-101518819D01*
X165799981Y-101780271D01*
X165833466Y-101841594D01*
X165836300Y-101867952D01*
X165836300Y-103382000D01*
X166164434Y-103382000D01*
X166164449Y-103381999D01*
X166201289Y-103379100D01*
X166201295Y-103379099D01*
X166358993Y-103333283D01*
X166358996Y-103333282D01*
X166500352Y-103249685D01*
X166500361Y-103249678D01*
X166616478Y-103133561D01*
X166616485Y-103133552D01*
X166700082Y-102992196D01*
X166700083Y-102992195D01*
X166711783Y-102951921D01*
X166749388Y-102893034D01*
X166812860Y-102863826D01*
X166882047Y-102873571D01*
X166918541Y-102898832D01*
X167731653Y-103711944D01*
X167765138Y-103773267D01*
X167767292Y-103786658D01*
X167779526Y-103903056D01*
X167779527Y-103903059D01*
X167838018Y-104083077D01*
X167838021Y-104083084D01*
X167932667Y-104247016D01*
X168032122Y-104357472D01*
X168059329Y-104387688D01*
X168212465Y-104498948D01*
X168212470Y-104498951D01*
X168385392Y-104575942D01*
X168385397Y-104575944D01*
X168570554Y-104615300D01*
X168570555Y-104615300D01*
X168759844Y-104615300D01*
X168759846Y-104615300D01*
X168945003Y-104575944D01*
X169117930Y-104498951D01*
X169271071Y-104387688D01*
X169397733Y-104247016D01*
X169492379Y-104083084D01*
X169550874Y-103903056D01*
X169570660Y-103714800D01*
X169550874Y-103526544D01*
X169492379Y-103346516D01*
X169397733Y-103182584D01*
X169271071Y-103041912D01*
X169263874Y-103036683D01*
X169117934Y-102930651D01*
X169117929Y-102930648D01*
X168945007Y-102853657D01*
X168945002Y-102853655D01*
X168799201Y-102822665D01*
X168759846Y-102814300D01*
X168759845Y-102814300D01*
X168654552Y-102814300D01*
X168587513Y-102794615D01*
X168566871Y-102777981D01*
X167675237Y-101886346D01*
X167641752Y-101825023D01*
X167646736Y-101755331D01*
X167688608Y-101699398D01*
X167719939Y-101683153D01*
X167719866Y-101682988D01*
X167722641Y-101681752D01*
X167724617Y-101680728D01*
X167725790Y-101680346D01*
X167725803Y-101680344D01*
X167725815Y-101680338D01*
X167725817Y-101680338D01*
X167785265Y-101653869D01*
X167898730Y-101603351D01*
X168051871Y-101492088D01*
X168178533Y-101351416D01*
X168273179Y-101187484D01*
X168331674Y-101007456D01*
X168349321Y-100839544D01*
X168375904Y-100774934D01*
X168384951Y-100764838D01*
X168602971Y-100546818D01*
X168664295Y-100513333D01*
X168690653Y-100510499D01*
X169200002Y-100510499D01*
X169200008Y-100510499D01*
X169302797Y-100499999D01*
X169469334Y-100444814D01*
X169618656Y-100352712D01*
X169742712Y-100228656D01*
X169834814Y-100079334D01*
X169889999Y-99912797D01*
X169900500Y-99810009D01*
X169900499Y-99400516D01*
X169920183Y-99333479D01*
X169972987Y-99287724D01*
X170042146Y-99277780D01*
X170105702Y-99306805D01*
X170112180Y-99312837D01*
X174623581Y-103824238D01*
X174657066Y-103885561D01*
X174659900Y-103911919D01*
X174659900Y-105138519D01*
X174640215Y-105205558D01*
X174610136Y-105237842D01*
X174609942Y-105237987D01*
X174544459Y-105262355D01*
X174480929Y-105248805D01*
X174480759Y-105249218D01*
X174478526Y-105248293D01*
X174477250Y-105248021D01*
X174475129Y-105246887D01*
X174475128Y-105246886D01*
X174475127Y-105246886D01*
X174286532Y-105189676D01*
X174286529Y-105189675D01*
X174090400Y-105170359D01*
X173894270Y-105189675D01*
X173705666Y-105246888D01*
X173531867Y-105339786D01*
X173531860Y-105339790D01*
X173379516Y-105464816D01*
X173254490Y-105617160D01*
X173254486Y-105617167D01*
X173161588Y-105790966D01*
X173104375Y-105979570D01*
X173085059Y-106175700D01*
X173104375Y-106371829D01*
X173104376Y-106371832D01*
X173160017Y-106555256D01*
X173161588Y-106560433D01*
X173254486Y-106734232D01*
X173254490Y-106734239D01*
X173379516Y-106886583D01*
X173531860Y-107011609D01*
X173531867Y-107011613D01*
X173705666Y-107104511D01*
X173705669Y-107104511D01*
X173705673Y-107104514D01*
X173894268Y-107161724D01*
X174090400Y-107181041D01*
X174286532Y-107161724D01*
X174475127Y-107104514D01*
X174477253Y-107103377D01*
X174478495Y-107103118D01*
X174480755Y-107102183D01*
X174480932Y-107102611D01*
X174545654Y-107089135D01*
X174610015Y-107113467D01*
X174618069Y-107119496D01*
X174660316Y-107135253D01*
X174752917Y-107169791D01*
X174752916Y-107169791D01*
X174759844Y-107170535D01*
X174812527Y-107176200D01*
X175908272Y-107176199D01*
X175967883Y-107169791D01*
X176102731Y-107119496D01*
X176217946Y-107033246D01*
X176304196Y-106918031D01*
X176354491Y-106783183D01*
X176360900Y-106723573D01*
X176360899Y-105627828D01*
X176355363Y-105576327D01*
X176354491Y-105568216D01*
X176304197Y-105433371D01*
X176304193Y-105433364D01*
X176217947Y-105318155D01*
X176110588Y-105237785D01*
X176068718Y-105181851D01*
X176060900Y-105138519D01*
X176060900Y-103593447D01*
X176061013Y-103589702D01*
X176064758Y-103527794D01*
X176053575Y-103466771D01*
X176053013Y-103463074D01*
X176051018Y-103446651D01*
X176045540Y-103401528D01*
X176041948Y-103392056D01*
X176035921Y-103370434D01*
X176034095Y-103360471D01*
X176034095Y-103360469D01*
X176008623Y-103303874D01*
X176007212Y-103300465D01*
X175985218Y-103242470D01*
X175979463Y-103234133D01*
X175968436Y-103214582D01*
X175964279Y-103205346D01*
X175964278Y-103205343D01*
X175941124Y-103175789D01*
X175926030Y-103156522D01*
X175923810Y-103153506D01*
X175921029Y-103149477D01*
X175888583Y-103102471D01*
X175842150Y-103061335D01*
X175839456Y-103058799D01*
X171415657Y-98635000D01*
X169936818Y-97156160D01*
X169903333Y-97094837D01*
X169900499Y-97068479D01*
X169900499Y-96109998D01*
X169900498Y-96109981D01*
X169889999Y-96007203D01*
X169889998Y-96007200D01*
X169880851Y-95979596D01*
X169834814Y-95840666D01*
X169742712Y-95691344D01*
X169618656Y-95567288D01*
X169469334Y-95475186D01*
X169302797Y-95420001D01*
X169302795Y-95420000D01*
X169200010Y-95409500D01*
X168099998Y-95409500D01*
X168099980Y-95409501D01*
X167997203Y-95420000D01*
X167997200Y-95420001D01*
X167830668Y-95475185D01*
X167830663Y-95475187D01*
X167681342Y-95567289D01*
X167557289Y-95691342D01*
X167465187Y-95840663D01*
X167465185Y-95840666D01*
X167465186Y-95840666D01*
X167411563Y-96002491D01*
X167410001Y-96007204D01*
X167410000Y-96007205D01*
X167403452Y-96071303D01*
X167377055Y-96135995D01*
X167319874Y-96176146D01*
X167280094Y-96182700D01*
X160940236Y-96182700D01*
X160936492Y-96182587D01*
X160874597Y-96178843D01*
X160874590Y-96178843D01*
X160813602Y-96190019D01*
X160809901Y-96190582D01*
X160748325Y-96198060D01*
X160738842Y-96201656D01*
X160717238Y-96207678D01*
X160715735Y-96207954D01*
X160707265Y-96209506D01*
X160707263Y-96209507D01*
X160650727Y-96234952D01*
X160647269Y-96236384D01*
X160589269Y-96258382D01*
X160580924Y-96264142D01*
X160561383Y-96275164D01*
X160552144Y-96279322D01*
X160552139Y-96279325D01*
X160503321Y-96317570D01*
X160500306Y-96319789D01*
X160449272Y-96355016D01*
X160449265Y-96355022D01*
X160408142Y-96401440D01*
X160405575Y-96404166D01*
X159153426Y-97656316D01*
X159092103Y-97689801D01*
X159091664Y-97689895D01*
X159051256Y-97698484D01*
X159039878Y-97700903D01*
X158970211Y-97695586D01*
X158914478Y-97653448D01*
X158890374Y-97587868D01*
X158890099Y-97579612D01*
X158890099Y-97511729D01*
X158890098Y-97511723D01*
X158890097Y-97511716D01*
X158883691Y-97452117D01*
X158833396Y-97317269D01*
X158833395Y-97317268D01*
X158833393Y-97317264D01*
X158747147Y-97202055D01*
X158747144Y-97202052D01*
X158631935Y-97115806D01*
X158631928Y-97115802D01*
X158497082Y-97065508D01*
X158497083Y-97065508D01*
X158437483Y-97059101D01*
X158437481Y-97059100D01*
X158437473Y-97059100D01*
X158437464Y-97059100D01*
X157541729Y-97059100D01*
X157541723Y-97059101D01*
X157482116Y-97065508D01*
X157347271Y-97115802D01*
X157347264Y-97115806D01*
X157232055Y-97202052D01*
X157232052Y-97202055D01*
X157145806Y-97317264D01*
X157145802Y-97317271D01*
X157095508Y-97452117D01*
X157089101Y-97511716D01*
X157089101Y-97511723D01*
X157089100Y-97511735D01*
X157089100Y-98607470D01*
X157089101Y-98607476D01*
X157095508Y-98667083D01*
X157145802Y-98801928D01*
X157145806Y-98801935D01*
X157212229Y-98890663D01*
X157232054Y-98917146D01*
X157339411Y-98997514D01*
X157381282Y-99053447D01*
X157389100Y-99096780D01*
X157389100Y-99474956D01*
X157369415Y-99541995D01*
X157316611Y-99587750D01*
X157247453Y-99597694D01*
X157214677Y-99587086D01*
X157214543Y-99587442D01*
X157207530Y-99584782D01*
X157161835Y-99567452D01*
X157048474Y-99524460D01*
X157048468Y-99524459D01*
X156921974Y-99509100D01*
X156921972Y-99509100D01*
X156837228Y-99509100D01*
X156837226Y-99509100D01*
X156710731Y-99524459D01*
X156710725Y-99524460D01*
X156551668Y-99584782D01*
X156411672Y-99681416D01*
X156298863Y-99808750D01*
X156219810Y-99959373D01*
X156179100Y-100124544D01*
X156179100Y-100294655D01*
X156219810Y-100459826D01*
X156298864Y-100610450D01*
X156298866Y-100610452D01*
X156379558Y-100701535D01*
X156409280Y-100764768D01*
X156400096Y-100834031D01*
X156354924Y-100887335D01*
X156288105Y-100907755D01*
X156260964Y-100905053D01*
X156161446Y-100883900D01*
X155972154Y-100883900D01*
X155939697Y-100890798D01*
X155786997Y-100923255D01*
X155786992Y-100923257D01*
X155614070Y-101000248D01*
X155614065Y-101000251D01*
X155460929Y-101111511D01*
X155334266Y-101252185D01*
X155239617Y-101416123D01*
X155237770Y-101420270D01*
X155192510Y-101473499D01*
X155125658Y-101493810D01*
X155058437Y-101474752D01*
X155012191Y-101422378D01*
X155000500Y-101369819D01*
X155000500Y-99130976D01*
X155020185Y-99063937D01*
X155072989Y-99018183D01*
X155142147Y-99008239D01*
X155167825Y-99014792D01*
X155272117Y-99053691D01*
X155331727Y-99060100D01*
X156227472Y-99060099D01*
X156287083Y-99053691D01*
X156421931Y-99003396D01*
X156537146Y-98917146D01*
X156623396Y-98801931D01*
X156673691Y-98667083D01*
X156680100Y-98607473D01*
X156680099Y-97511728D01*
X156673691Y-97452117D01*
X156623396Y-97317269D01*
X156623395Y-97317268D01*
X156623393Y-97317264D01*
X156537147Y-97202055D01*
X156537144Y-97202052D01*
X156421935Y-97115806D01*
X156421928Y-97115802D01*
X156287082Y-97065508D01*
X156287083Y-97065508D01*
X156227483Y-97059101D01*
X156227481Y-97059100D01*
X156227473Y-97059100D01*
X156227464Y-97059100D01*
X155331729Y-97059100D01*
X155331723Y-97059101D01*
X155272116Y-97065508D01*
X155167833Y-97104404D01*
X155098141Y-97109388D01*
X155036818Y-97075903D01*
X155003334Y-97014579D01*
X155000500Y-96988222D01*
X155000500Y-96522036D01*
X155000633Y-96517980D01*
X155005989Y-96436265D01*
X155007541Y-96414561D01*
X155018986Y-96254538D01*
X155020015Y-96246901D01*
X155043155Y-96130567D01*
X155074533Y-95986323D01*
X155076392Y-95979625D01*
X155116547Y-95861335D01*
X155117087Y-95859817D01*
X155166162Y-95728242D01*
X155168628Y-95722530D01*
X155225044Y-95608129D01*
X155226152Y-95605996D01*
X155292184Y-95485066D01*
X155295029Y-95480368D01*
X155366563Y-95373311D01*
X155368428Y-95370676D01*
X155450291Y-95261321D01*
X155453244Y-95257678D01*
X155538503Y-95160459D01*
X155541198Y-95157581D01*
X155637581Y-95061198D01*
X155640459Y-95058503D01*
X155737678Y-94973244D01*
X155741321Y-94970291D01*
X155850676Y-94888428D01*
X155853311Y-94886563D01*
X155960368Y-94815029D01*
X155965066Y-94812184D01*
X156085996Y-94746152D01*
X156088129Y-94745044D01*
X156202530Y-94688628D01*
X156208242Y-94686162D01*
X156339817Y-94637087D01*
X156341335Y-94636547D01*
X156459625Y-94596392D01*
X156466323Y-94594533D01*
X156610567Y-94563155D01*
X156726901Y-94540015D01*
X156734536Y-94538986D01*
X156916290Y-94525986D01*
X156946237Y-94524023D01*
X156997981Y-94520633D01*
X157002036Y-94520500D01*
X175857964Y-94520500D01*
X175862019Y-94520633D01*
G37*
%TD.AperFunction*%
%TA.AperFunction,Conductor*%
G36*
X170392216Y-109380957D02*
G01*
X170439202Y-109408744D01*
X170439203Y-109408744D01*
X170439206Y-109408746D01*
X170603116Y-109456366D01*
X170602456Y-109458634D01*
X170655366Y-109485255D01*
X170658366Y-109488156D01*
X170835994Y-109665784D01*
X170845817Y-109678045D01*
X170846039Y-109677863D01*
X170851011Y-109683873D01*
X170851014Y-109683877D01*
X170876008Y-109707348D01*
X170900733Y-109730567D01*
X170902132Y-109731923D01*
X170922323Y-109752115D01*
X170922327Y-109752118D01*
X170922329Y-109752120D01*
X170927811Y-109756373D01*
X170932243Y-109760157D01*
X170966218Y-109792062D01*
X170983776Y-109801714D01*
X171000033Y-109812393D01*
X171015864Y-109824673D01*
X171035537Y-109833186D01*
X171058633Y-109843182D01*
X171063877Y-109845750D01*
X171104708Y-109868197D01*
X171117323Y-109871435D01*
X171124105Y-109873177D01*
X171142519Y-109879481D01*
X171160904Y-109887438D01*
X171206957Y-109894732D01*
X171212626Y-109895906D01*
X171257781Y-109907500D01*
X171277816Y-109907500D01*
X171297213Y-109909026D01*
X171316996Y-109912160D01*
X171363383Y-109907775D01*
X171369222Y-109907500D01*
X172965857Y-109907500D01*
X172981477Y-109909224D01*
X172981504Y-109908939D01*
X172989266Y-109909673D01*
X172989266Y-109909672D01*
X172989267Y-109909673D01*
X172992599Y-109909568D01*
X173057447Y-109907531D01*
X173059394Y-109907500D01*
X173087947Y-109907500D01*
X173087950Y-109907500D01*
X173094828Y-109906630D01*
X173100641Y-109906172D01*
X173147227Y-109904709D01*
X173166469Y-109899117D01*
X173185512Y-109895174D01*
X173205392Y-109892664D01*
X173248722Y-109875507D01*
X173254246Y-109873617D01*
X173257996Y-109872527D01*
X173298990Y-109860618D01*
X173316229Y-109850422D01*
X173333703Y-109841862D01*
X173352327Y-109834488D01*
X173352327Y-109834487D01*
X173352332Y-109834486D01*
X173390049Y-109807082D01*
X173394905Y-109803892D01*
X173435020Y-109780170D01*
X173449189Y-109765999D01*
X173463979Y-109753368D01*
X173480187Y-109741594D01*
X173509899Y-109705676D01*
X173513812Y-109701376D01*
X173702672Y-109512516D01*
X173763993Y-109479033D01*
X173790341Y-109476199D01*
X174090550Y-109476199D01*
X174157588Y-109495884D01*
X174203343Y-109548688D01*
X174213287Y-109617846D01*
X174184262Y-109681402D01*
X174182702Y-109683167D01*
X174181069Y-109684979D01*
X174181066Y-109684984D01*
X174086421Y-109848915D01*
X174086418Y-109848922D01*
X174034266Y-110009431D01*
X174027926Y-110028944D01*
X174020446Y-110100118D01*
X174010279Y-110196849D01*
X173983694Y-110261463D01*
X173974639Y-110271568D01*
X173821108Y-110425099D01*
X173808851Y-110434920D01*
X173809034Y-110435141D01*
X173803022Y-110440114D01*
X173756332Y-110489832D01*
X173754979Y-110491229D01*
X173734789Y-110511419D01*
X173734777Y-110511432D01*
X173730521Y-110516917D01*
X173726737Y-110521347D01*
X173694837Y-110555318D01*
X173694836Y-110555320D01*
X173685184Y-110572876D01*
X173674510Y-110589126D01*
X173662229Y-110604961D01*
X173662224Y-110604968D01*
X173643715Y-110647738D01*
X173641145Y-110652984D01*
X173618703Y-110693806D01*
X173613722Y-110713207D01*
X173607421Y-110731610D01*
X173599462Y-110750002D01*
X173599461Y-110750005D01*
X173592171Y-110796027D01*
X173590987Y-110801746D01*
X173579400Y-110846876D01*
X173579173Y-110848675D01*
X173578603Y-110849981D01*
X173577460Y-110854434D01*
X173576741Y-110854249D01*
X173551239Y-110912717D01*
X173521249Y-110938667D01*
X173376856Y-111027731D01*
X173256932Y-111147655D01*
X173256929Y-111147659D01*
X173167901Y-111291994D01*
X173167896Y-111292005D01*
X173114551Y-111452990D01*
X173104400Y-111552347D01*
X173104400Y-111787411D01*
X173084715Y-111854450D01*
X173031911Y-111900205D01*
X172962753Y-111910149D01*
X172899197Y-111881124D01*
X172873668Y-111850532D01*
X172792541Y-111713354D01*
X172787681Y-111705135D01*
X172787679Y-111705133D01*
X172787676Y-111705129D01*
X172671470Y-111588923D01*
X172671462Y-111588917D01*
X172550906Y-111517621D01*
X172529998Y-111505256D01*
X172529997Y-111505255D01*
X172529996Y-111505255D01*
X172529993Y-111505254D01*
X172372173Y-111459402D01*
X172372167Y-111459401D01*
X172335301Y-111456500D01*
X172335294Y-111456500D01*
X171903906Y-111456500D01*
X171903898Y-111456500D01*
X171867032Y-111459401D01*
X171867026Y-111459402D01*
X171709206Y-111505254D01*
X171709205Y-111505254D01*
X171662220Y-111533041D01*
X171594496Y-111550222D01*
X171528234Y-111528062D01*
X171484471Y-111473596D01*
X171475100Y-111426308D01*
X171475100Y-111315937D01*
X171476824Y-111300323D01*
X171476538Y-111300296D01*
X171477272Y-111292533D01*
X171475131Y-111224371D01*
X171475100Y-111222424D01*
X171475100Y-111193851D01*
X171475100Y-111193850D01*
X171474229Y-111186959D01*
X171473772Y-111181145D01*
X171472309Y-111134572D01*
X171466722Y-111115344D01*
X171462774Y-111096284D01*
X171462203Y-111091760D01*
X171460264Y-111076408D01*
X171443107Y-111033075D01*
X171441219Y-111027559D01*
X171428219Y-110982812D01*
X171418018Y-110965563D01*
X171409460Y-110948094D01*
X171402086Y-110929468D01*
X171402083Y-110929464D01*
X171402083Y-110929463D01*
X171374698Y-110891771D01*
X171371490Y-110886887D01*
X171347772Y-110846782D01*
X171347763Y-110846771D01*
X171333605Y-110832613D01*
X171320970Y-110817820D01*
X171309735Y-110802358D01*
X171309194Y-110801613D01*
X171309193Y-110801612D01*
X171273293Y-110771913D01*
X171268981Y-110767990D01*
X170241419Y-109740428D01*
X170207934Y-109679105D01*
X170205100Y-109652747D01*
X170205100Y-109487691D01*
X170224785Y-109420652D01*
X170277589Y-109374897D01*
X170346747Y-109364953D01*
X170392216Y-109380957D01*
G37*
%TD.AperFunction*%
%TA.AperFunction,Conductor*%
G36*
X168502639Y-107751685D02*
G01*
X168548394Y-107804489D01*
X168559600Y-107856000D01*
X168559600Y-109454295D01*
X168559601Y-109454295D01*
X168562086Y-109454100D01*
X168719798Y-109408281D01*
X168766979Y-109380379D01*
X168834703Y-109363196D01*
X168900965Y-109385356D01*
X168944729Y-109439822D01*
X168954100Y-109487111D01*
X168954100Y-109880455D01*
X168952375Y-109896072D01*
X168952661Y-109896099D01*
X168951926Y-109903866D01*
X168954069Y-109972046D01*
X168954100Y-109973993D01*
X168954100Y-110002543D01*
X168954101Y-110002560D01*
X168954968Y-110009431D01*
X168955426Y-110015250D01*
X168956890Y-110061824D01*
X168956891Y-110061827D01*
X168962480Y-110081067D01*
X168966424Y-110100111D01*
X168968936Y-110119991D01*
X168986090Y-110163319D01*
X168987982Y-110168847D01*
X169000981Y-110213588D01*
X169011180Y-110230834D01*
X169019738Y-110248303D01*
X169027114Y-110266932D01*
X169054498Y-110304623D01*
X169057706Y-110309507D01*
X169081427Y-110349616D01*
X169081433Y-110349624D01*
X169095590Y-110363780D01*
X169108228Y-110378576D01*
X169120005Y-110394786D01*
X169120006Y-110394787D01*
X169155909Y-110424488D01*
X169160220Y-110428410D01*
X169578581Y-110846771D01*
X169996743Y-111264933D01*
X170030228Y-111326256D01*
X170025244Y-111395948D01*
X169983372Y-111451881D01*
X169917908Y-111476298D01*
X169874468Y-111471691D01*
X169832167Y-111459401D01*
X169795301Y-111456500D01*
X169795294Y-111456500D01*
X169363906Y-111456500D01*
X169363898Y-111456500D01*
X169327032Y-111459401D01*
X169327026Y-111459402D01*
X169169206Y-111505254D01*
X169169203Y-111505255D01*
X169027737Y-111588917D01*
X169021569Y-111593702D01*
X169019672Y-111591256D01*
X168970958Y-111617857D01*
X168901266Y-111612873D01*
X168868896Y-111592069D01*
X168867631Y-111593702D01*
X168861462Y-111588917D01*
X168740906Y-111517621D01*
X168719998Y-111505256D01*
X168719997Y-111505255D01*
X168719996Y-111505255D01*
X168719993Y-111505254D01*
X168562173Y-111459402D01*
X168562167Y-111459401D01*
X168525301Y-111456500D01*
X168525294Y-111456500D01*
X168093906Y-111456500D01*
X168093898Y-111456500D01*
X168057032Y-111459401D01*
X168057026Y-111459402D01*
X167899206Y-111505254D01*
X167899196Y-111505258D01*
X167899187Y-111505264D01*
X167899178Y-111505266D01*
X167892046Y-111508353D01*
X167891547Y-111507201D01*
X167831461Y-111522439D01*
X167765201Y-111500272D01*
X167748397Y-111486206D01*
X167173909Y-110911718D01*
X167140424Y-110850395D01*
X167145408Y-110780703D01*
X167161274Y-110751149D01*
X167162529Y-110749420D01*
X167162533Y-110749416D01*
X167257179Y-110585484D01*
X167315674Y-110405456D01*
X167335460Y-110217200D01*
X167315674Y-110028944D01*
X167257179Y-109848916D01*
X167162533Y-109684984D01*
X167153965Y-109675468D01*
X167087350Y-109601484D01*
X167057120Y-109538492D01*
X167055500Y-109518512D01*
X167055500Y-109113516D01*
X167075185Y-109046477D01*
X167127989Y-109000722D01*
X167140488Y-108995813D01*
X167199334Y-108976314D01*
X167342667Y-108887905D01*
X167410058Y-108869465D01*
X167476722Y-108890387D01*
X167521492Y-108944029D01*
X167526839Y-108958849D01*
X167558316Y-109067193D01*
X167558317Y-109067196D01*
X167641914Y-109208552D01*
X167641921Y-109208561D01*
X167758038Y-109324678D01*
X167758047Y-109324685D01*
X167899401Y-109408281D01*
X168057114Y-109454100D01*
X168057111Y-109454100D01*
X168059598Y-109454295D01*
X168059600Y-109454294D01*
X168059600Y-107856000D01*
X168079285Y-107788961D01*
X168132089Y-107743206D01*
X168183600Y-107732000D01*
X168435600Y-107732000D01*
X168502639Y-107751685D01*
G37*
%TD.AperFunction*%
%TD*%
M02*
