%TF.GenerationSoftware,KiCad,Pcbnew,7.0.5*%
%TF.CreationDate,2023-07-26T01:35:09-03:00*%
%TF.ProjectId,HallCoinDetector,48616c6c-436f-4696-9e44-65746563746f,rev?*%
%TF.SameCoordinates,Original*%
%TF.FileFunction,Copper,L1,Top*%
%TF.FilePolarity,Positive*%
%FSLAX46Y46*%
G04 Gerber Fmt 4.6, Leading zero omitted, Abs format (unit mm)*
G04 Created by KiCad (PCBNEW 7.0.5) date 2023-07-26 01:35:09*
%MOMM*%
%LPD*%
G01*
G04 APERTURE LIST*
G04 Aperture macros list*
%AMRoundRect*
0 Rectangle with rounded corners*
0 $1 Rounding radius*
0 $2 $3 $4 $5 $6 $7 $8 $9 X,Y pos of 4 corners*
0 Add a 4 corners polygon primitive as box body*
4,1,4,$2,$3,$4,$5,$6,$7,$8,$9,$2,$3,0*
0 Add four circle primitives for the rounded corners*
1,1,$1+$1,$2,$3*
1,1,$1+$1,$4,$5*
1,1,$1+$1,$6,$7*
1,1,$1+$1,$8,$9*
0 Add four rect primitives between the rounded corners*
20,1,$1+$1,$2,$3,$4,$5,0*
20,1,$1+$1,$4,$5,$6,$7,0*
20,1,$1+$1,$6,$7,$8,$9,0*
20,1,$1+$1,$8,$9,$2,$3,0*%
%AMFreePoly0*
4,1,19,2.150000,-1.200000,1.177922,-1.200000,1.064578,-1.003895,0.918917,-0.830439,0.745359,-0.684899,0.549174,-0.571693,0.336318,-0.494257,0.113252,-0.454942,-0.113252,-0.454942,-0.336318,-0.494257,-0.549174,-0.571693,-0.745359,-0.684899,-0.918917,-0.830439,-1.064578,-1.003895,-1.177922,-1.200000,-2.150000,-1.200000,-2.150000,0.400000,2.150000,0.400000,2.150000,-1.200000,2.150000,-1.200000,
$1*%
%AMFreePoly1*
4,1,19,-1.064578,1.003895,-0.918917,0.830439,-0.745359,0.684899,-0.549174,0.571693,-0.336318,0.494257,-0.113252,0.454942,0.113252,0.454942,0.336318,0.494257,0.549174,0.571693,0.745359,0.684899,0.918917,0.830439,1.064578,1.003895,1.177922,1.200000,2.150000,1.200000,2.150000,-0.400000,-2.150000,-0.400000,-2.150000,1.200000,-1.177922,1.200000,-1.064578,1.003895,-1.064578,1.003895,
$1*%
G04 Aperture macros list end*
%TA.AperFunction,ComponentPad*%
%ADD10R,1.000000X1.000000*%
%TD*%
%TA.AperFunction,ComponentPad*%
%ADD11O,1.000000X1.000000*%
%TD*%
%TA.AperFunction,SMDPad,CuDef*%
%ADD12RoundRect,0.150000X0.150000X-0.512500X0.150000X0.512500X-0.150000X0.512500X-0.150000X-0.512500X0*%
%TD*%
%TA.AperFunction,SMDPad,CuDef*%
%ADD13RoundRect,0.350000X-1.650000X0.350000X-1.650000X-0.350000X1.650000X-0.350000X1.650000X0.350000X0*%
%TD*%
%TA.AperFunction,ComponentPad*%
%ADD14O,1.200000X2.400000*%
%TD*%
%TA.AperFunction,SMDPad,CuDef*%
%ADD15C,9.000000*%
%TD*%
%TA.AperFunction,SMDPad,CuDef*%
%ADD16RoundRect,0.250000X0.262500X0.450000X-0.262500X0.450000X-0.262500X-0.450000X0.262500X-0.450000X0*%
%TD*%
%TA.AperFunction,SMDPad,CuDef*%
%ADD17RoundRect,0.250000X0.475000X-0.250000X0.475000X0.250000X-0.475000X0.250000X-0.475000X-0.250000X0*%
%TD*%
%TA.AperFunction,SMDPad,CuDef*%
%ADD18RoundRect,0.250000X-0.262500X-0.450000X0.262500X-0.450000X0.262500X0.450000X-0.262500X0.450000X0*%
%TD*%
%TA.AperFunction,SMDPad,CuDef*%
%ADD19FreePoly0,0.000000*%
%TD*%
%TA.AperFunction,SMDPad,CuDef*%
%ADD20FreePoly1,0.000000*%
%TD*%
%TA.AperFunction,SMDPad,CuDef*%
%ADD21R,0.700000X0.450000*%
%TD*%
%TA.AperFunction,ViaPad*%
%ADD22C,0.800000*%
%TD*%
%TA.AperFunction,Conductor*%
%ADD23C,0.250000*%
%TD*%
%TA.AperFunction,Conductor*%
%ADD24C,0.400000*%
%TD*%
%TA.AperFunction,Conductor*%
%ADD25C,0.500000*%
%TD*%
G04 APERTURE END LIST*
D10*
%TO.P,M1,1,+*%
%TO.N,/3V*%
X175360400Y-106175700D03*
D11*
%TO.P,M1,2,-*%
%TO.N,Net-(D3-A)*%
X174090400Y-106175700D03*
%TD*%
D12*
%TO.P,U2,1,SW*%
%TO.N,Net-(U2-SW)*%
X163890000Y-102807500D03*
%TO.P,U2,2,GND*%
%TO.N,GND*%
X164840000Y-102807500D03*
%TO.P,U2,3,EN*%
%TO.N,/3V*%
X165790000Y-102807500D03*
%TO.P,U2,4,FB*%
%TO.N,Net-(U2-FB)*%
X165790000Y-100532500D03*
%TO.P,U2,5,OUT*%
%TO.N,/+5V*%
X164840000Y-100532500D03*
%TO.P,U2,6,Bat*%
%TO.N,/3V*%
X163890000Y-100532500D03*
%TD*%
D13*
%TO.P,BT1,*%
%TO.N,*%
X166454900Y-105873800D03*
D14*
%TO.P,BT1,1,+*%
%TO.N,/BAT*%
X176995900Y-116414800D03*
X155913900Y-116414800D03*
D15*
%TO.P,BT1,2,-*%
%TO.N,GND*%
X166454900Y-116541800D03*
%TD*%
D16*
%TO.P,R2,1*%
%TO.N,Net-(U2-FB)*%
X166326500Y-96653600D03*
%TO.P,R2,2*%
%TO.N,GND*%
X164501500Y-96653600D03*
%TD*%
D17*
%TO.P,C1,1*%
%TO.N,/3V*%
X160638800Y-98568800D03*
%TO.P,C1,2*%
%TO.N,GND*%
X160638800Y-96668800D03*
%TD*%
D16*
%TO.P,R14,1*%
%TO.N,Net-(D1-K)*%
X175671800Y-111080800D03*
%TO.P,R14,2*%
%TO.N,Net-(Q2-G)*%
X173846800Y-111080800D03*
%TD*%
D18*
%TO.P,R1,1*%
%TO.N,/+5V*%
X164501500Y-98584000D03*
%TO.P,R1,2*%
%TO.N,Net-(U2-FB)*%
X166326500Y-98584000D03*
%TD*%
D17*
%TO.P,C2,1*%
%TO.N,/+5V*%
X157336800Y-107966800D03*
%TO.P,C2,2*%
%TO.N,GND*%
X157336800Y-106066800D03*
%TD*%
D19*
%TO.P,L1,1,1*%
%TO.N,/3V*%
X160057200Y-100237600D03*
D20*
%TO.P,L1,2,2*%
%TO.N,Net-(U2-SW)*%
X160057200Y-103737600D03*
%TD*%
D21*
%TO.P,Q2,1,G*%
%TO.N,Net-(Q2-G)*%
X170170400Y-106458000D03*
%TO.P,Q2,2,S*%
%TO.N,GND*%
X170170400Y-107758000D03*
%TO.P,Q2,3,D*%
%TO.N,Net-(D3-A)*%
X172170400Y-107108000D03*
%TD*%
D17*
%TO.P,C3,1*%
%TO.N,/+5V*%
X162670800Y-98619600D03*
%TO.P,C3,2*%
%TO.N,GND*%
X162670800Y-96719600D03*
%TD*%
D22*
%TO.N,/+5V*%
X166430000Y-110217200D03*
X157336800Y-111690400D03*
X163686800Y-99092000D03*
X168665200Y-103714800D03*
X162264400Y-110166400D03*
%TO.N,GND*%
X168157200Y-110115600D03*
X176691600Y-120834400D03*
X157743200Y-122510800D03*
X159165600Y-106305600D03*
X173004900Y-118575700D03*
X160181600Y-118751600D03*
X171916400Y-110623600D03*
X164855200Y-104172000D03*
X158810000Y-117380000D03*
X176640800Y-113570000D03*
%TO.N,Net-(D1-K)*%
X174913600Y-110217200D03*
%TO.N,Net-(D3-A)*%
X167446000Y-100819200D03*
%TO.N,/BAT*%
X156066800Y-101784400D03*
%TO.N,/3V*%
X159216400Y-98584000D03*
%TD*%
D23*
%TO.N,/+5V*%
X164499600Y-98585900D02*
X164501500Y-98584000D01*
X163636000Y-98584000D02*
X163686800Y-98634800D01*
X157336800Y-111690400D02*
X160435600Y-111690400D01*
X168665200Y-103714800D02*
X169478000Y-104527600D01*
X163636000Y-98584000D02*
X162706400Y-98584000D01*
X169478000Y-107169200D02*
X166430000Y-110217200D01*
X169478000Y-104527600D02*
X169478000Y-107169200D01*
X162706400Y-98584000D02*
X162670800Y-98619600D01*
X157336800Y-111690400D02*
X157336800Y-107966800D01*
X166394400Y-110181600D02*
X166430000Y-110217200D01*
X160435600Y-111690400D02*
X162264400Y-110166400D01*
X164906000Y-100466500D02*
X164840000Y-100532500D01*
X164840000Y-100532500D02*
X164840000Y-99737200D01*
X163686800Y-98634800D02*
X163686800Y-99092000D01*
X164840000Y-99737200D02*
X164499600Y-99396800D01*
X164499600Y-99396800D02*
X164499600Y-98585900D01*
X162670800Y-98568800D02*
X162670800Y-98619600D01*
X164501500Y-98584000D02*
X163636000Y-98584000D01*
%TO.N,Net-(U2-FB)*%
X166326500Y-96653600D02*
X166326500Y-98584000D01*
X166326500Y-98584000D02*
X166326500Y-99996000D01*
X166326500Y-99996000D02*
X165790000Y-100532500D01*
%TO.N,Net-(D1-K)*%
X174812000Y-110217200D02*
X174913600Y-110217200D01*
X175673700Y-111080800D02*
X174913600Y-110320700D01*
X174913600Y-110217200D02*
X174913600Y-110318800D01*
X174913600Y-110318800D02*
X174812000Y-110217200D01*
X174913600Y-110320700D02*
X174913600Y-110217200D01*
%TO.N,Net-(Q2-G)*%
X173848700Y-109914300D02*
X173848700Y-111080800D01*
X170170400Y-106458000D02*
X170392400Y-106458000D01*
X170392400Y-106458000D02*
X173848700Y-109914300D01*
%TO.N,Net-(D3-A)*%
X172170400Y-107108000D02*
X173158100Y-107108000D01*
X167395200Y-100819200D02*
X167446000Y-100870000D01*
X173158100Y-107108000D02*
X174090400Y-106175700D01*
X170341600Y-105340400D02*
X170341600Y-103765600D01*
X170341600Y-103765600D02*
X167446000Y-100870000D01*
X172170400Y-107108000D02*
X172109200Y-107108000D01*
X167446000Y-100819200D02*
X167395200Y-100819200D01*
X172109200Y-107108000D02*
X170341600Y-105340400D01*
X167446000Y-100870000D02*
X167446000Y-100819200D01*
%TO.N,Net-(U2-SW)*%
X163890000Y-103105200D02*
X163686800Y-103308400D01*
D24*
X163890000Y-103054400D02*
X163206800Y-103737600D01*
X163206800Y-103737600D02*
X160057200Y-103737600D01*
D23*
X163890000Y-102807500D02*
X163890000Y-103105200D01*
X163890000Y-102807500D02*
X163890000Y-103054400D01*
D25*
%TO.N,/BAT*%
X156054600Y-116402600D02*
X156054600Y-101796600D01*
D23*
X156054600Y-101796600D02*
X156066800Y-101784400D01*
X156066800Y-116414800D02*
X156054600Y-116402600D01*
%TO.N,/3V*%
X165790000Y-102250000D02*
X165790000Y-102807500D01*
X165172000Y-101632000D02*
X165790000Y-102250000D01*
X163890000Y-100532500D02*
X163890000Y-101122000D01*
D25*
X159216400Y-98584000D02*
X160623600Y-98584000D01*
D24*
X163737600Y-100158800D02*
X160136000Y-100158800D01*
D23*
X164400000Y-101632000D02*
X165172000Y-101632000D01*
X163890000Y-101122000D02*
X164400000Y-101632000D01*
X163890000Y-100311200D02*
X163737600Y-100158800D01*
D25*
X160638800Y-99656000D02*
X160057200Y-100237600D01*
D24*
X160623600Y-98584000D02*
X160638800Y-98568800D01*
D25*
X160638800Y-98568800D02*
X160638800Y-99656000D01*
D23*
X163890000Y-100532500D02*
X163890000Y-100311200D01*
X160136000Y-100158800D02*
X160057200Y-100237600D01*
%TD*%
%TA.AperFunction,Conductor*%
%TO.N,GND*%
G36*
X175862019Y-94520633D02*
G01*
X175900149Y-94523131D01*
X175943793Y-94525992D01*
X176125459Y-94538985D01*
X176133102Y-94540015D01*
X176249451Y-94563158D01*
X176393666Y-94594531D01*
X176400383Y-94596395D01*
X176518618Y-94636531D01*
X176520224Y-94637103D01*
X176651740Y-94686156D01*
X176657483Y-94688635D01*
X176771830Y-94745024D01*
X176774042Y-94746173D01*
X176894913Y-94812173D01*
X176899641Y-94815037D01*
X177006649Y-94886537D01*
X177009358Y-94888454D01*
X177118652Y-94970271D01*
X177122345Y-94973265D01*
X177219502Y-95058469D01*
X177222448Y-95061228D01*
X177318769Y-95157549D01*
X177321526Y-95160492D01*
X177406729Y-95257648D01*
X177409732Y-95261353D01*
X177461564Y-95330592D01*
X177491543Y-95370639D01*
X177493461Y-95373349D01*
X177564961Y-95480357D01*
X177567828Y-95485091D01*
X177633802Y-95605912D01*
X177634992Y-95608204D01*
X177691356Y-95722499D01*
X177693842Y-95728258D01*
X177742878Y-95859727D01*
X177743497Y-95861465D01*
X177783597Y-95979596D01*
X177785472Y-95986352D01*
X177816848Y-96130590D01*
X177839980Y-96246880D01*
X177841015Y-96254560D01*
X177854021Y-96436413D01*
X177859367Y-96517966D01*
X177859500Y-96522023D01*
X177859500Y-114835420D01*
X177839815Y-114902459D01*
X177787011Y-114948214D01*
X177717853Y-114958158D01*
X177654299Y-114929135D01*
X177644770Y-114920879D01*
X177637156Y-114914281D01*
X177637154Y-114914280D01*
X177637152Y-114914278D01*
X177455149Y-114809198D01*
X177455145Y-114809196D01*
X177455144Y-114809196D01*
X177256533Y-114740456D01*
X177048502Y-114710546D01*
X177048498Y-114710546D01*
X176838572Y-114720545D01*
X176634321Y-114770096D01*
X176634317Y-114770098D01*
X176443156Y-114857398D01*
X176443151Y-114857401D01*
X176271946Y-114979315D01*
X176271940Y-114979320D01*
X176126914Y-115131420D01*
X176013288Y-115308225D01*
X175935174Y-115503344D01*
X175895400Y-115709714D01*
X175895400Y-115709715D01*
X175895400Y-117067225D01*
X175910372Y-117224018D01*
X175969584Y-117425675D01*
X175974642Y-117435486D01*
X176065891Y-117612486D01*
X176195805Y-117777683D01*
X176195809Y-117777687D01*
X176354646Y-117915321D01*
X176536650Y-118020401D01*
X176536652Y-118020401D01*
X176536656Y-118020404D01*
X176735267Y-118089144D01*
X176943298Y-118119054D01*
X177153230Y-118109054D01*
X177357476Y-118059504D01*
X177443099Y-118020401D01*
X177548643Y-117972201D01*
X177548646Y-117972199D01*
X177548653Y-117972196D01*
X177663573Y-117890361D01*
X177729600Y-117867509D01*
X177797500Y-117883982D01*
X177845716Y-117934549D01*
X177859500Y-117991369D01*
X177859500Y-122997976D01*
X177859367Y-123002033D01*
X177854021Y-123083585D01*
X177841015Y-123265438D01*
X177839980Y-123273118D01*
X177816848Y-123389408D01*
X177785472Y-123533646D01*
X177783597Y-123540402D01*
X177743497Y-123658533D01*
X177742878Y-123660271D01*
X177693842Y-123791740D01*
X177691356Y-123797499D01*
X177634992Y-123911794D01*
X177633802Y-123914086D01*
X177567828Y-124034907D01*
X177564961Y-124039641D01*
X177493461Y-124146649D01*
X177491543Y-124149359D01*
X177409744Y-124258631D01*
X177406723Y-124262357D01*
X177321529Y-124359502D01*
X177318755Y-124362464D01*
X177222464Y-124458755D01*
X177219502Y-124461529D01*
X177122357Y-124546723D01*
X177118631Y-124549744D01*
X177009359Y-124631543D01*
X177006649Y-124633461D01*
X176899641Y-124704961D01*
X176894907Y-124707828D01*
X176774086Y-124773802D01*
X176771794Y-124774992D01*
X176657499Y-124831356D01*
X176651740Y-124833842D01*
X176520271Y-124882878D01*
X176518533Y-124883497D01*
X176400402Y-124923597D01*
X176393647Y-124925472D01*
X176281206Y-124949932D01*
X176255124Y-124952766D01*
X156943874Y-124995678D01*
X156939681Y-124995546D01*
X156916481Y-124994025D01*
X156734560Y-124981015D01*
X156726880Y-124979980D01*
X156610590Y-124956848D01*
X156466352Y-124925472D01*
X156459596Y-124923597D01*
X156341465Y-124883497D01*
X156339727Y-124882878D01*
X156208258Y-124833842D01*
X156202499Y-124831356D01*
X156088204Y-124774992D01*
X156085912Y-124773802D01*
X155965091Y-124707828D01*
X155960357Y-124704961D01*
X155853349Y-124633461D01*
X155850639Y-124631543D01*
X155810592Y-124601564D01*
X155741353Y-124549732D01*
X155737648Y-124546729D01*
X155640492Y-124461526D01*
X155637549Y-124458769D01*
X155541228Y-124362448D01*
X155538469Y-124359502D01*
X155505450Y-124321851D01*
X155453265Y-124262345D01*
X155450271Y-124258652D01*
X155368454Y-124149358D01*
X155366537Y-124146649D01*
X155295037Y-124039641D01*
X155292170Y-124034907D01*
X155226173Y-123914042D01*
X155225024Y-123911830D01*
X155168635Y-123797483D01*
X155166156Y-123791740D01*
X155117103Y-123660224D01*
X155116531Y-123658618D01*
X155076395Y-123540383D01*
X155074531Y-123533666D01*
X155043150Y-123389408D01*
X155020015Y-123273102D01*
X155018985Y-123265459D01*
X155005992Y-123083793D01*
X155003256Y-123042056D01*
X155000633Y-123002018D01*
X155000500Y-122997963D01*
X155000500Y-120250217D01*
X163100035Y-120250217D01*
X163334303Y-120454893D01*
X163334320Y-120454906D01*
X163697634Y-120718870D01*
X164083170Y-120949217D01*
X164083185Y-120949225D01*
X164487776Y-121144065D01*
X164487792Y-121144071D01*
X164908252Y-121301873D01*
X164908268Y-121301879D01*
X165341166Y-121421351D01*
X165783050Y-121501541D01*
X166230353Y-121541799D01*
X166230357Y-121541800D01*
X166679443Y-121541800D01*
X166679446Y-121541799D01*
X167126749Y-121501541D01*
X167568633Y-121421351D01*
X168001531Y-121301879D01*
X168001547Y-121301873D01*
X168422007Y-121144071D01*
X168422023Y-121144065D01*
X168826614Y-120949225D01*
X168826629Y-120949217D01*
X169212165Y-120718870D01*
X169575479Y-120454906D01*
X169575509Y-120454882D01*
X169809763Y-120250218D01*
X169809763Y-120250217D01*
X166454900Y-116895353D01*
X163100035Y-120250217D01*
X155000500Y-120250217D01*
X155000500Y-117951026D01*
X155020185Y-117883987D01*
X155072989Y-117838232D01*
X155142147Y-117828288D01*
X155205700Y-117857311D01*
X155243842Y-117890362D01*
X155272646Y-117915321D01*
X155454650Y-118020401D01*
X155454652Y-118020401D01*
X155454656Y-118020404D01*
X155653267Y-118089144D01*
X155861298Y-118119054D01*
X156071230Y-118109054D01*
X156275476Y-118059504D01*
X156361099Y-118020401D01*
X156466643Y-117972201D01*
X156466646Y-117972199D01*
X156466653Y-117972196D01*
X156637852Y-117850286D01*
X156649346Y-117838232D01*
X156782885Y-117698179D01*
X156824385Y-117633604D01*
X156896513Y-117521372D01*
X156974625Y-117326257D01*
X157014400Y-117119885D01*
X157014400Y-116541803D01*
X161449860Y-116541803D01*
X161470008Y-116990438D01*
X161470009Y-116990447D01*
X161530293Y-117435486D01*
X161630225Y-117873319D01*
X161769006Y-118300442D01*
X161769009Y-118300450D01*
X161945509Y-118713394D01*
X161945513Y-118713402D01*
X162158333Y-119108887D01*
X162158333Y-119108888D01*
X162405733Y-119483683D01*
X162405734Y-119483684D01*
X162685746Y-119834808D01*
X162685757Y-119834821D01*
X162745665Y-119897480D01*
X166101346Y-116541800D01*
X166808453Y-116541800D01*
X170164133Y-119897480D01*
X170224051Y-119834811D01*
X170224054Y-119834808D01*
X170504065Y-119483684D01*
X170504066Y-119483683D01*
X170751466Y-119108888D01*
X170751466Y-119108887D01*
X170964286Y-118713402D01*
X170964290Y-118713394D01*
X171140790Y-118300450D01*
X171140793Y-118300442D01*
X171279574Y-117873319D01*
X171379506Y-117435486D01*
X171439790Y-116990447D01*
X171439791Y-116990438D01*
X171459940Y-116541803D01*
X171459940Y-116541796D01*
X171439791Y-116093161D01*
X171439790Y-116093152D01*
X171379506Y-115648113D01*
X171279574Y-115210280D01*
X171140793Y-114783157D01*
X171140790Y-114783149D01*
X170964290Y-114370205D01*
X170964286Y-114370197D01*
X170751466Y-113974712D01*
X170751466Y-113974711D01*
X170504066Y-113599916D01*
X170504065Y-113599915D01*
X170224053Y-113248791D01*
X170224042Y-113248778D01*
X170164133Y-113186118D01*
X166808453Y-116541799D01*
X166808453Y-116541800D01*
X166101346Y-116541800D01*
X166101346Y-116541799D01*
X162745665Y-113186119D01*
X162685746Y-113248790D01*
X162405734Y-113599915D01*
X162405733Y-113599916D01*
X162158333Y-113974711D01*
X162158333Y-113974712D01*
X161945513Y-114370197D01*
X161945509Y-114370205D01*
X161769009Y-114783149D01*
X161769006Y-114783157D01*
X161630225Y-115210280D01*
X161530293Y-115648113D01*
X161470009Y-116093152D01*
X161470008Y-116093161D01*
X161449860Y-116541796D01*
X161449860Y-116541803D01*
X157014400Y-116541803D01*
X157014400Y-115762375D01*
X156999428Y-115605582D01*
X156940216Y-115403925D01*
X156843911Y-115217118D01*
X156838534Y-115210280D01*
X156831628Y-115201498D01*
X156805661Y-115136633D01*
X156805100Y-115124848D01*
X156805100Y-112833381D01*
X163100035Y-112833381D01*
X166454899Y-116188245D01*
X169809763Y-112833381D01*
X169575496Y-112628706D01*
X169575479Y-112628693D01*
X169212165Y-112364729D01*
X168826629Y-112134382D01*
X168826614Y-112134374D01*
X168422023Y-111939534D01*
X168422007Y-111939528D01*
X168001547Y-111781726D01*
X168001531Y-111781720D01*
X167568633Y-111662248D01*
X167126749Y-111582058D01*
X166679446Y-111541800D01*
X166230353Y-111541800D01*
X165783050Y-111582058D01*
X165341166Y-111662248D01*
X164908268Y-111781720D01*
X164908252Y-111781726D01*
X164487792Y-111939528D01*
X164487776Y-111939534D01*
X164083185Y-112134374D01*
X164083170Y-112134382D01*
X163697634Y-112364729D01*
X163334320Y-112628693D01*
X163334303Y-112628706D01*
X163100035Y-112833381D01*
X156805100Y-112833381D01*
X156805100Y-112630335D01*
X156824785Y-112563296D01*
X156877589Y-112517541D01*
X156946747Y-112507597D01*
X156979536Y-112517056D01*
X157056992Y-112551542D01*
X157056997Y-112551544D01*
X157242154Y-112590900D01*
X157242155Y-112590900D01*
X157431444Y-112590900D01*
X157431446Y-112590900D01*
X157616603Y-112551544D01*
X157789530Y-112474551D01*
X157942671Y-112363288D01*
X157945588Y-112360047D01*
X157948400Y-112356926D01*
X158007887Y-112320279D01*
X158040548Y-112315900D01*
X160415245Y-112315900D01*
X160418908Y-112316008D01*
X160477445Y-112319481D01*
X160532600Y-112308753D01*
X160536645Y-112308105D01*
X160592392Y-112301064D01*
X160601247Y-112297557D01*
X160623214Y-112291131D01*
X160632576Y-112289311D01*
X160683324Y-112265206D01*
X160687087Y-112263570D01*
X160739332Y-112242886D01*
X160747037Y-112237286D01*
X160766722Y-112225597D01*
X160775331Y-112221509D01*
X160818504Y-112185530D01*
X160821720Y-112183027D01*
X160867187Y-112149994D01*
X160873262Y-112142649D01*
X160889414Y-112126438D01*
X162126374Y-111095639D01*
X162190476Y-111067845D01*
X162205756Y-111066900D01*
X162359044Y-111066900D01*
X162359046Y-111066900D01*
X162544203Y-111027544D01*
X162717130Y-110950551D01*
X162870271Y-110839288D01*
X162996933Y-110698616D01*
X163091579Y-110534684D01*
X163150074Y-110354656D01*
X163169860Y-110166400D01*
X163150074Y-109978144D01*
X163091579Y-109798116D01*
X162996933Y-109634184D01*
X162870271Y-109493512D01*
X162870270Y-109493511D01*
X162717134Y-109382251D01*
X162717129Y-109382248D01*
X162544207Y-109305257D01*
X162544202Y-109305255D01*
X162398401Y-109274265D01*
X162359046Y-109265900D01*
X162169754Y-109265900D01*
X162137297Y-109272798D01*
X161984597Y-109305255D01*
X161984592Y-109305257D01*
X161811670Y-109382248D01*
X161811665Y-109382251D01*
X161658529Y-109493511D01*
X161531866Y-109634185D01*
X161437221Y-109798115D01*
X161437218Y-109798122D01*
X161378727Y-109978140D01*
X161378726Y-109978144D01*
X161373738Y-110025603D01*
X161371075Y-110050937D01*
X161344489Y-110115551D01*
X161327137Y-110133233D01*
X160243627Y-111036159D01*
X160179524Y-111063955D01*
X160164244Y-111064900D01*
X158086300Y-111064900D01*
X158019261Y-111045215D01*
X157973506Y-110992411D01*
X157962300Y-110940900D01*
X157962300Y-109047100D01*
X157981985Y-108980061D01*
X158034789Y-108934306D01*
X158047282Y-108929399D01*
X158131134Y-108901614D01*
X158280456Y-108809512D01*
X158404512Y-108685456D01*
X158496614Y-108536134D01*
X158551799Y-108369597D01*
X158562300Y-108266809D01*
X158562299Y-107666792D01*
X158551799Y-107564003D01*
X158496614Y-107397466D01*
X158404512Y-107248144D01*
X158280456Y-107124088D01*
X158277142Y-107122043D01*
X158275346Y-107120048D01*
X158274789Y-107119607D01*
X158274864Y-107119511D01*
X158230418Y-107070097D01*
X158219197Y-107001134D01*
X158247040Y-106937052D01*
X158277148Y-106910965D01*
X158280142Y-106909118D01*
X158404115Y-106785145D01*
X158496156Y-106635924D01*
X158496158Y-106635919D01*
X158551305Y-106469497D01*
X158551306Y-106469490D01*
X158561799Y-106366786D01*
X158561800Y-106366773D01*
X158561800Y-106316800D01*
X157210800Y-106316800D01*
X157143761Y-106297115D01*
X157098006Y-106244311D01*
X157086800Y-106192800D01*
X157086800Y-105066800D01*
X157586800Y-105066800D01*
X157586800Y-105816800D01*
X158561799Y-105816800D01*
X158561799Y-105766828D01*
X158561798Y-105766813D01*
X158551305Y-105664102D01*
X158496158Y-105497680D01*
X158496156Y-105497675D01*
X158404115Y-105348454D01*
X158280145Y-105224484D01*
X158130924Y-105132443D01*
X158130919Y-105132441D01*
X157964497Y-105077294D01*
X157964490Y-105077293D01*
X157861786Y-105066800D01*
X157586800Y-105066800D01*
X157086800Y-105066800D01*
X156929100Y-105066800D01*
X156862061Y-105047115D01*
X156816306Y-104994311D01*
X156805100Y-104942800D01*
X156805100Y-104033895D01*
X156824785Y-103966856D01*
X156877589Y-103921101D01*
X156918300Y-103910952D01*
X156918252Y-103910552D01*
X156921480Y-103910159D01*
X156921641Y-103910120D01*
X156921959Y-103910100D01*
X156921972Y-103910100D01*
X157048472Y-103894740D01*
X157207530Y-103834418D01*
X157207532Y-103834416D01*
X157214174Y-103830931D01*
X157214822Y-103832166D01*
X157273454Y-103812823D01*
X157341108Y-103830281D01*
X157388583Y-103881543D01*
X157401553Y-103936755D01*
X157401553Y-104137602D01*
X157406699Y-104209560D01*
X157406700Y-104209565D01*
X157447245Y-104347650D01*
X157447247Y-104347653D01*
X157525057Y-104468728D01*
X157633827Y-104562977D01*
X157764743Y-104622765D01*
X157907200Y-104643247D01*
X157907203Y-104643247D01*
X162207200Y-104643247D01*
X162279161Y-104638100D01*
X162279163Y-104638099D01*
X162279165Y-104638099D01*
X162417250Y-104597554D01*
X162417250Y-104597553D01*
X162417253Y-104597553D01*
X162538328Y-104519743D01*
X162571988Y-104480896D01*
X162630767Y-104443123D01*
X162665701Y-104438100D01*
X163183752Y-104438100D01*
X163187497Y-104438213D01*
X163194842Y-104438657D01*
X163249406Y-104441958D01*
X163287114Y-104435047D01*
X163310421Y-104430777D01*
X163314125Y-104430213D01*
X163331970Y-104428046D01*
X163375672Y-104422740D01*
X163385135Y-104419150D01*
X163406761Y-104413122D01*
X163407693Y-104412951D01*
X163416732Y-104411295D01*
X163473312Y-104385829D01*
X163476742Y-104384409D01*
X163534730Y-104362418D01*
X163543066Y-104356662D01*
X163562621Y-104345634D01*
X163571857Y-104341478D01*
X163620696Y-104303213D01*
X163623676Y-104301021D01*
X163674729Y-104265783D01*
X163715865Y-104219348D01*
X163718384Y-104216672D01*
X163928239Y-104006816D01*
X163989561Y-103973334D01*
X164015919Y-103970500D01*
X164105686Y-103970500D01*
X164105694Y-103970500D01*
X164142569Y-103967598D01*
X164142571Y-103967597D01*
X164142573Y-103967597D01*
X164184191Y-103955505D01*
X164300398Y-103921744D01*
X164301181Y-103921281D01*
X164302369Y-103920579D01*
X164304112Y-103920136D01*
X164307557Y-103918646D01*
X164307797Y-103919201D01*
X164370093Y-103903395D01*
X164422397Y-103918753D01*
X164422644Y-103918184D01*
X164427255Y-103920179D01*
X164428612Y-103920578D01*
X164429801Y-103921281D01*
X164429806Y-103921283D01*
X164587505Y-103967099D01*
X164587511Y-103967100D01*
X164589998Y-103967295D01*
X164590000Y-103967295D01*
X164590000Y-103701814D01*
X164607267Y-103638694D01*
X164641744Y-103580398D01*
X164687598Y-103422569D01*
X164690500Y-103385694D01*
X164690500Y-102681499D01*
X164710185Y-102614461D01*
X164762989Y-102568706D01*
X164814500Y-102557500D01*
X164865500Y-102557500D01*
X164932539Y-102577185D01*
X164978294Y-102629989D01*
X164989500Y-102681500D01*
X164989500Y-103385701D01*
X164992401Y-103422567D01*
X164992402Y-103422573D01*
X165038254Y-103580393D01*
X165038255Y-103580396D01*
X165038256Y-103580398D01*
X165072732Y-103638694D01*
X165090000Y-103701814D01*
X165090000Y-103967295D01*
X165090001Y-103967295D01*
X165092486Y-103967100D01*
X165250197Y-103921281D01*
X165251382Y-103920581D01*
X165252436Y-103920313D01*
X165257357Y-103918184D01*
X165257700Y-103918977D01*
X165319105Y-103903395D01*
X165372289Y-103919008D01*
X165372446Y-103918647D01*
X165375371Y-103919913D01*
X165377624Y-103920574D01*
X165379602Y-103921744D01*
X165379604Y-103921744D01*
X165379605Y-103921745D01*
X165537426Y-103967597D01*
X165537429Y-103967597D01*
X165537431Y-103967598D01*
X165574306Y-103970500D01*
X165574314Y-103970500D01*
X166005686Y-103970500D01*
X166005694Y-103970500D01*
X166042569Y-103967598D01*
X166042571Y-103967597D01*
X166042573Y-103967597D01*
X166084191Y-103955505D01*
X166200398Y-103921744D01*
X166341865Y-103838081D01*
X166458081Y-103721865D01*
X166541744Y-103580398D01*
X166587598Y-103422569D01*
X166590500Y-103385694D01*
X166590500Y-102229306D01*
X166587598Y-102192431D01*
X166576855Y-102155455D01*
X166541745Y-102034606D01*
X166541744Y-102034603D01*
X166541744Y-102034602D01*
X166458081Y-101893135D01*
X166458079Y-101893133D01*
X166458076Y-101893129D01*
X166341870Y-101776923D01*
X166341867Y-101776921D01*
X166341865Y-101776919D01*
X166341549Y-101776732D01*
X166341353Y-101776522D01*
X166335702Y-101772139D01*
X166336409Y-101771227D01*
X166293866Y-101725664D01*
X166281362Y-101656923D01*
X166308006Y-101592333D01*
X166335921Y-101568144D01*
X166335702Y-101567861D01*
X166340911Y-101563820D01*
X166341550Y-101563267D01*
X166341865Y-101563081D01*
X166458081Y-101446865D01*
X166507707Y-101362950D01*
X166558773Y-101315270D01*
X166627514Y-101302766D01*
X166692104Y-101329410D01*
X166708767Y-101346903D01*
X166709119Y-101346587D01*
X166713466Y-101351415D01*
X166713467Y-101351416D01*
X166777371Y-101422388D01*
X166840129Y-101492088D01*
X166993265Y-101603348D01*
X166993270Y-101603351D01*
X167166192Y-101680342D01*
X167166197Y-101680344D01*
X167351354Y-101719700D01*
X167359748Y-101719700D01*
X167426787Y-101739385D01*
X167447429Y-101756019D01*
X168368300Y-102676890D01*
X168401785Y-102738213D01*
X168396801Y-102807905D01*
X168354929Y-102863838D01*
X168331056Y-102877850D01*
X168212467Y-102930650D01*
X168212465Y-102930651D01*
X168059329Y-103041911D01*
X167932666Y-103182585D01*
X167838021Y-103346515D01*
X167838018Y-103346522D01*
X167779527Y-103526540D01*
X167779526Y-103526544D01*
X167759740Y-103714800D01*
X167779526Y-103903056D01*
X167779527Y-103903059D01*
X167838018Y-104083077D01*
X167838021Y-104083084D01*
X167932667Y-104247016D01*
X168017721Y-104341478D01*
X168059329Y-104387688D01*
X168143693Y-104448982D01*
X168186359Y-104504312D01*
X168192338Y-104573925D01*
X168159732Y-104635720D01*
X168098894Y-104670077D01*
X168070808Y-104673300D01*
X164730946Y-104673300D01*
X164719077Y-104674104D01*
X164689400Y-104676117D01*
X164509878Y-104720763D01*
X164509876Y-104720764D01*
X164344149Y-104802956D01*
X164199959Y-104918859D01*
X164084056Y-105063049D01*
X164001864Y-105228776D01*
X164001863Y-105228778D01*
X163957217Y-105408300D01*
X163954400Y-105449848D01*
X163954400Y-106297751D01*
X163957217Y-106339299D01*
X164001863Y-106518821D01*
X164001864Y-106518823D01*
X164084056Y-106684550D01*
X164084057Y-106684551D01*
X164084058Y-106684553D01*
X164115432Y-106723583D01*
X164199959Y-106828740D01*
X164282073Y-106894745D01*
X164344147Y-106944642D01*
X164509879Y-107026837D01*
X164689401Y-107071482D01*
X164689402Y-107071482D01*
X164689405Y-107071483D01*
X164730946Y-107074300D01*
X164730948Y-107074300D01*
X168178852Y-107074300D01*
X168178854Y-107074300D01*
X168220395Y-107071483D01*
X168399921Y-107026837D01*
X168399932Y-107026831D01*
X168402022Y-107026064D01*
X168403395Y-107025972D01*
X168406445Y-107025214D01*
X168406580Y-107025760D01*
X168471737Y-107021418D01*
X168532897Y-107055201D01*
X168566084Y-107116686D01*
X168560761Y-107186352D01*
X168532472Y-107230136D01*
X166482228Y-109280381D01*
X166420905Y-109313866D01*
X166394547Y-109316700D01*
X166335354Y-109316700D01*
X166302897Y-109323598D01*
X166150197Y-109356055D01*
X166150192Y-109356057D01*
X165977270Y-109433048D01*
X165977265Y-109433051D01*
X165824129Y-109544311D01*
X165697466Y-109684985D01*
X165602821Y-109848915D01*
X165602818Y-109848922D01*
X165544327Y-110028940D01*
X165544326Y-110028944D01*
X165524540Y-110217200D01*
X165544326Y-110405456D01*
X165544327Y-110405459D01*
X165602818Y-110585477D01*
X165602821Y-110585484D01*
X165697467Y-110749416D01*
X165824128Y-110890088D01*
X165824129Y-110890088D01*
X165977265Y-111001348D01*
X165977270Y-111001351D01*
X166150192Y-111078342D01*
X166150197Y-111078344D01*
X166335354Y-111117700D01*
X166335355Y-111117700D01*
X166524644Y-111117700D01*
X166524646Y-111117700D01*
X166709803Y-111078344D01*
X166882730Y-111001351D01*
X167035871Y-110890088D01*
X167162533Y-110749416D01*
X167257179Y-110585484D01*
X167315674Y-110405456D01*
X167333321Y-110237544D01*
X167359904Y-110172934D01*
X167368951Y-110162838D01*
X169245745Y-108286044D01*
X169307064Y-108252562D01*
X169376756Y-108257546D01*
X169432688Y-108299416D01*
X169463212Y-108340190D01*
X169578306Y-108426350D01*
X169578313Y-108426354D01*
X169713020Y-108476596D01*
X169713027Y-108476598D01*
X169772555Y-108482999D01*
X169772572Y-108483000D01*
X169945400Y-108483000D01*
X169945400Y-107657000D01*
X169965085Y-107589961D01*
X170017889Y-107544206D01*
X170069400Y-107533000D01*
X170271400Y-107533000D01*
X170338439Y-107552685D01*
X170384194Y-107605489D01*
X170395400Y-107657000D01*
X170395400Y-108483000D01*
X170568228Y-108483000D01*
X170568244Y-108482999D01*
X170627772Y-108476598D01*
X170627779Y-108476596D01*
X170762486Y-108426354D01*
X170762493Y-108426350D01*
X170877587Y-108340190D01*
X170877590Y-108340187D01*
X170963750Y-108225093D01*
X170963753Y-108225088D01*
X170980848Y-108179253D01*
X171022719Y-108123318D01*
X171088183Y-108098900D01*
X171156456Y-108113751D01*
X171184712Y-108134903D01*
X173014089Y-109964280D01*
X173047574Y-110025603D01*
X173042590Y-110095295D01*
X173014091Y-110139640D01*
X172991588Y-110162144D01*
X172988963Y-110166400D01*
X172899487Y-110311463D01*
X172899485Y-110311466D01*
X172899486Y-110311466D01*
X172844301Y-110478003D01*
X172844301Y-110478004D01*
X172844300Y-110478004D01*
X172833800Y-110580783D01*
X172833800Y-111580801D01*
X172833801Y-111580819D01*
X172844300Y-111683596D01*
X172844301Y-111683599D01*
X172876816Y-111781720D01*
X172899486Y-111850134D01*
X172991588Y-111999456D01*
X173115644Y-112123512D01*
X173264966Y-112215614D01*
X173431503Y-112270799D01*
X173534291Y-112281300D01*
X174159308Y-112281299D01*
X174159316Y-112281298D01*
X174159319Y-112281298D01*
X174215602Y-112275548D01*
X174262097Y-112270799D01*
X174428634Y-112215614D01*
X174577956Y-112123512D01*
X174671619Y-112029848D01*
X174732942Y-111996364D01*
X174802634Y-112001348D01*
X174846981Y-112029848D01*
X174940644Y-112123512D01*
X175089966Y-112215614D01*
X175256503Y-112270799D01*
X175359291Y-112281300D01*
X175984308Y-112281299D01*
X175984316Y-112281298D01*
X175984319Y-112281298D01*
X176040602Y-112275548D01*
X176087097Y-112270799D01*
X176253634Y-112215614D01*
X176402956Y-112123512D01*
X176527012Y-111999456D01*
X176619114Y-111850134D01*
X176674299Y-111683597D01*
X176684800Y-111580809D01*
X176684799Y-110580792D01*
X176674299Y-110478003D01*
X176619114Y-110311466D01*
X176527012Y-110162144D01*
X176402956Y-110038088D01*
X176305764Y-109978140D01*
X176253636Y-109945987D01*
X176253631Y-109945985D01*
X176252162Y-109945498D01*
X176087097Y-109890801D01*
X176087095Y-109890800D01*
X175984316Y-109880300D01*
X175984309Y-109880300D01*
X175830490Y-109880300D01*
X175763451Y-109860615D01*
X175723103Y-109818300D01*
X175709728Y-109795135D01*
X175646133Y-109684984D01*
X175519471Y-109544312D01*
X175487283Y-109520926D01*
X175366334Y-109433051D01*
X175366329Y-109433048D01*
X175193407Y-109356057D01*
X175193402Y-109356055D01*
X175047601Y-109325065D01*
X175008246Y-109316700D01*
X174818954Y-109316700D01*
X174786497Y-109323598D01*
X174633797Y-109356055D01*
X174633792Y-109356057D01*
X174460871Y-109433048D01*
X174425596Y-109458677D01*
X174359789Y-109482156D01*
X174291735Y-109466330D01*
X174265030Y-109446039D01*
X172768447Y-107949456D01*
X172734962Y-107888133D01*
X172739946Y-107818441D01*
X172781818Y-107762508D01*
X172781820Y-107762506D01*
X172787531Y-107758231D01*
X172852996Y-107733816D01*
X172861839Y-107733500D01*
X173075357Y-107733500D01*
X173090977Y-107735224D01*
X173091004Y-107734939D01*
X173098766Y-107735673D01*
X173098766Y-107735672D01*
X173098767Y-107735673D01*
X173102099Y-107735568D01*
X173166947Y-107733531D01*
X173168894Y-107733500D01*
X173197447Y-107733500D01*
X173197450Y-107733500D01*
X173204328Y-107732630D01*
X173210141Y-107732172D01*
X173256727Y-107730709D01*
X173275969Y-107725117D01*
X173295012Y-107721174D01*
X173314892Y-107718664D01*
X173358222Y-107701507D01*
X173363746Y-107699617D01*
X173367496Y-107698527D01*
X173408490Y-107686618D01*
X173425729Y-107676422D01*
X173443203Y-107667862D01*
X173461827Y-107660488D01*
X173461827Y-107660487D01*
X173461832Y-107660486D01*
X173499549Y-107633082D01*
X173504405Y-107629892D01*
X173544520Y-107606170D01*
X173558689Y-107591999D01*
X173573479Y-107579368D01*
X173589687Y-107567594D01*
X173619399Y-107531676D01*
X173623312Y-107527376D01*
X173939006Y-107211682D01*
X174000327Y-107178199D01*
X174038835Y-107175962D01*
X174090400Y-107181041D01*
X174286532Y-107161724D01*
X174475127Y-107104514D01*
X174477253Y-107103377D01*
X174478495Y-107103118D01*
X174480755Y-107102183D01*
X174480932Y-107102611D01*
X174545654Y-107089135D01*
X174610015Y-107113467D01*
X174618069Y-107119496D01*
X174731288Y-107161724D01*
X174752917Y-107169791D01*
X174752916Y-107169791D01*
X174756851Y-107170214D01*
X174812527Y-107176200D01*
X175908272Y-107176199D01*
X175967883Y-107169791D01*
X176102731Y-107119496D01*
X176217946Y-107033246D01*
X176304196Y-106918031D01*
X176354491Y-106783183D01*
X176360900Y-106723573D01*
X176360899Y-105627828D01*
X176354491Y-105568217D01*
X176328182Y-105497680D01*
X176304197Y-105433371D01*
X176304193Y-105433364D01*
X176217947Y-105318155D01*
X176217944Y-105318152D01*
X176102735Y-105231906D01*
X176102728Y-105231902D01*
X175967882Y-105181608D01*
X175967883Y-105181608D01*
X175908283Y-105175201D01*
X175908281Y-105175200D01*
X175908273Y-105175200D01*
X175908264Y-105175200D01*
X174812529Y-105175200D01*
X174812523Y-105175201D01*
X174752916Y-105181608D01*
X174618071Y-105231902D01*
X174618066Y-105231905D01*
X174610014Y-105237933D01*
X174544549Y-105262348D01*
X174480930Y-105248804D01*
X174480759Y-105249218D01*
X174478523Y-105248292D01*
X174477250Y-105248021D01*
X174475129Y-105246887D01*
X174475128Y-105246886D01*
X174475127Y-105246886D01*
X174286532Y-105189676D01*
X174286529Y-105189675D01*
X174090400Y-105170359D01*
X173894270Y-105189675D01*
X173705666Y-105246888D01*
X173531867Y-105339786D01*
X173531860Y-105339790D01*
X173379516Y-105464816D01*
X173254490Y-105617160D01*
X173254486Y-105617167D01*
X173161588Y-105790966D01*
X173104375Y-105979570D01*
X173085059Y-106175700D01*
X173085059Y-106175701D01*
X173090136Y-106227260D01*
X173077116Y-106295906D01*
X173054415Y-106327093D01*
X172941404Y-106440105D01*
X172880081Y-106473590D01*
X172810389Y-106468606D01*
X172779410Y-106451690D01*
X172762731Y-106439204D01*
X172762728Y-106439202D01*
X172627882Y-106388908D01*
X172627883Y-106388908D01*
X172568283Y-106382501D01*
X172568281Y-106382500D01*
X172568273Y-106382500D01*
X172568265Y-106382500D01*
X172319652Y-106382500D01*
X172252613Y-106362815D01*
X172231971Y-106346181D01*
X171003419Y-105117628D01*
X170969934Y-105056305D01*
X170967100Y-105029947D01*
X170967100Y-103848342D01*
X170968824Y-103832722D01*
X170968539Y-103832696D01*
X170969273Y-103824933D01*
X170967131Y-103756752D01*
X170967100Y-103754805D01*
X170967100Y-103726254D01*
X170967100Y-103726250D01*
X170966231Y-103719372D01*
X170965772Y-103713543D01*
X170964309Y-103666972D01*
X170958722Y-103647744D01*
X170954774Y-103628684D01*
X170952263Y-103608804D01*
X170935112Y-103565487D01*
X170933219Y-103559958D01*
X170920218Y-103515209D01*
X170920216Y-103515206D01*
X170910023Y-103497971D01*
X170901461Y-103480494D01*
X170894087Y-103461870D01*
X170894086Y-103461868D01*
X170866679Y-103424145D01*
X170863488Y-103419286D01*
X170839772Y-103379183D01*
X170839765Y-103379174D01*
X170825606Y-103365015D01*
X170812968Y-103350219D01*
X170810277Y-103346515D01*
X170801194Y-103334013D01*
X170765288Y-103304309D01*
X170760976Y-103300386D01*
X168386465Y-100925875D01*
X168352980Y-100864552D01*
X168350826Y-100825228D01*
X168351460Y-100819200D01*
X168331674Y-100630944D01*
X168273179Y-100450916D01*
X168178533Y-100286984D01*
X168051871Y-100146312D01*
X168021910Y-100124544D01*
X167898734Y-100035051D01*
X167898729Y-100035048D01*
X167725807Y-99958057D01*
X167725802Y-99958055D01*
X167580000Y-99927065D01*
X167540646Y-99918700D01*
X167351354Y-99918700D01*
X167318897Y-99925598D01*
X167166197Y-99958055D01*
X167126435Y-99975759D01*
X167057185Y-99985043D01*
X166993909Y-99955415D01*
X166956696Y-99896279D01*
X166952000Y-99862479D01*
X166952000Y-99761087D01*
X166971685Y-99694048D01*
X167010902Y-99655548D01*
X167057656Y-99626712D01*
X167181712Y-99502656D01*
X167273814Y-99353334D01*
X167328999Y-99186797D01*
X167339500Y-99084009D01*
X167339499Y-98083992D01*
X167328999Y-97981203D01*
X167273814Y-97814666D01*
X167273810Y-97814660D01*
X167273809Y-97814657D01*
X167201827Y-97697956D01*
X167193154Y-97683895D01*
X167174714Y-97616505D01*
X167193154Y-97553704D01*
X167273814Y-97422934D01*
X167328999Y-97256397D01*
X167339500Y-97153609D01*
X167339499Y-96153592D01*
X167328999Y-96050803D01*
X167273814Y-95884266D01*
X167181712Y-95734944D01*
X167057656Y-95610888D01*
X166908334Y-95518786D01*
X166741797Y-95463601D01*
X166741795Y-95463600D01*
X166639010Y-95453100D01*
X166013998Y-95453100D01*
X166013980Y-95453101D01*
X165911203Y-95463600D01*
X165911200Y-95463601D01*
X165744668Y-95518785D01*
X165744663Y-95518787D01*
X165595345Y-95610887D01*
X165501327Y-95704905D01*
X165440003Y-95738389D01*
X165370312Y-95733405D01*
X165325965Y-95704904D01*
X165232345Y-95611284D01*
X165083124Y-95519243D01*
X165083119Y-95519241D01*
X164916697Y-95464094D01*
X164916690Y-95464093D01*
X164813986Y-95453600D01*
X164751499Y-95453600D01*
X164751500Y-96779600D01*
X164731815Y-96846639D01*
X164679012Y-96892394D01*
X164627500Y-96903600D01*
X163935800Y-96903600D01*
X163906119Y-96933281D01*
X163844796Y-96966766D01*
X163818438Y-96969600D01*
X161507962Y-96969600D01*
X161440923Y-96949915D01*
X161420281Y-96933281D01*
X161405800Y-96918800D01*
X159413801Y-96918800D01*
X159413801Y-96968786D01*
X159424294Y-97071497D01*
X159479441Y-97237919D01*
X159479443Y-97237924D01*
X159571484Y-97387145D01*
X159695457Y-97511118D01*
X159698452Y-97512965D01*
X159700075Y-97514769D01*
X159701123Y-97515598D01*
X159700981Y-97515776D01*
X159745179Y-97564910D01*
X159756404Y-97633873D01*
X159728564Y-97697956D01*
X159698462Y-97724041D01*
X159695144Y-97726087D01*
X159689472Y-97730572D01*
X159688403Y-97729220D01*
X159635016Y-97758365D01*
X159565325Y-97753371D01*
X159558239Y-97750475D01*
X159496207Y-97722857D01*
X159496202Y-97722855D01*
X159350401Y-97691865D01*
X159311046Y-97683500D01*
X159121754Y-97683500D01*
X159089297Y-97690398D01*
X158936597Y-97722855D01*
X158936592Y-97722857D01*
X158763670Y-97799848D01*
X158763665Y-97799851D01*
X158610529Y-97911111D01*
X158483866Y-98051785D01*
X158389221Y-98215715D01*
X158389218Y-98215722D01*
X158330727Y-98395740D01*
X158330726Y-98395744D01*
X158310940Y-98584000D01*
X158330726Y-98772256D01*
X158330727Y-98772259D01*
X158389218Y-98952277D01*
X158389221Y-98952284D01*
X158483866Y-99116215D01*
X158491759Y-99124981D01*
X158521989Y-99187973D01*
X158513363Y-99257308D01*
X158468622Y-99310973D01*
X158401969Y-99331931D01*
X158399609Y-99331953D01*
X157907197Y-99331953D01*
X157835239Y-99337099D01*
X157835234Y-99337100D01*
X157697149Y-99377645D01*
X157576073Y-99455456D01*
X157481823Y-99564226D01*
X157470409Y-99589220D01*
X157424653Y-99642023D01*
X157357614Y-99661707D01*
X157290574Y-99642022D01*
X157287175Y-99639757D01*
X157244701Y-99610439D01*
X157207531Y-99584782D01*
X157048474Y-99524460D01*
X157048468Y-99524459D01*
X156921974Y-99509100D01*
X156921972Y-99509100D01*
X156837228Y-99509100D01*
X156837226Y-99509100D01*
X156710731Y-99524459D01*
X156710725Y-99524460D01*
X156551668Y-99584782D01*
X156411672Y-99681416D01*
X156298863Y-99808750D01*
X156219810Y-99959373D01*
X156179100Y-100124544D01*
X156179100Y-100294655D01*
X156219810Y-100459826D01*
X156298864Y-100610450D01*
X156298866Y-100610452D01*
X156379558Y-100701535D01*
X156409280Y-100764768D01*
X156400096Y-100834031D01*
X156354924Y-100887335D01*
X156288105Y-100907755D01*
X156260964Y-100905053D01*
X156161446Y-100883900D01*
X155972154Y-100883900D01*
X155939697Y-100890798D01*
X155786997Y-100923255D01*
X155786992Y-100923257D01*
X155614070Y-101000248D01*
X155614065Y-101000251D01*
X155460929Y-101111511D01*
X155334266Y-101252185D01*
X155239619Y-101416118D01*
X155237775Y-101420261D01*
X155192520Y-101473494D01*
X155125669Y-101493809D01*
X155058447Y-101474758D01*
X155012196Y-101422388D01*
X155000500Y-101369815D01*
X155000500Y-96522036D01*
X155000633Y-96517980D01*
X155005989Y-96436265D01*
X155007238Y-96418800D01*
X159413800Y-96418800D01*
X160388800Y-96418800D01*
X160388800Y-95668800D01*
X160888800Y-95668800D01*
X160888800Y-96418800D01*
X161801638Y-96418800D01*
X161868677Y-96438485D01*
X161889319Y-96455119D01*
X161903800Y-96469600D01*
X162420800Y-96469600D01*
X162920800Y-96469600D01*
X163449000Y-96469600D01*
X163478681Y-96439919D01*
X163540004Y-96406434D01*
X163566362Y-96403600D01*
X164251500Y-96403600D01*
X164251500Y-95453600D01*
X164251499Y-95453599D01*
X164189028Y-95453600D01*
X164189011Y-95453601D01*
X164086302Y-95464094D01*
X163919880Y-95519241D01*
X163919875Y-95519243D01*
X163770654Y-95611284D01*
X163646683Y-95735255D01*
X163639350Y-95747144D01*
X163587400Y-95793867D01*
X163518437Y-95805087D01*
X163468714Y-95787581D01*
X163464927Y-95785245D01*
X163464919Y-95785241D01*
X163298497Y-95730094D01*
X163298490Y-95730093D01*
X163195786Y-95719600D01*
X162920800Y-95719600D01*
X162920800Y-96469600D01*
X162420800Y-96469600D01*
X162420800Y-95719600D01*
X162145829Y-95719600D01*
X162145812Y-95719601D01*
X162043102Y-95730094D01*
X161876680Y-95785241D01*
X161876671Y-95785245D01*
X161752447Y-95861867D01*
X161685055Y-95880307D01*
X161618391Y-95859384D01*
X161599670Y-95844009D01*
X161582145Y-95826484D01*
X161432924Y-95734443D01*
X161432919Y-95734441D01*
X161266497Y-95679294D01*
X161266490Y-95679293D01*
X161163786Y-95668800D01*
X160888800Y-95668800D01*
X160388800Y-95668800D01*
X160113829Y-95668800D01*
X160113812Y-95668801D01*
X160011102Y-95679294D01*
X159844680Y-95734441D01*
X159844675Y-95734443D01*
X159695454Y-95826484D01*
X159571484Y-95950454D01*
X159479443Y-96099675D01*
X159479441Y-96099680D01*
X159424294Y-96266102D01*
X159424293Y-96266109D01*
X159413800Y-96368813D01*
X159413800Y-96418800D01*
X155007238Y-96418800D01*
X155010813Y-96368813D01*
X155018986Y-96254538D01*
X155020015Y-96246901D01*
X155043155Y-96130567D01*
X155074533Y-95986323D01*
X155076392Y-95979625D01*
X155116547Y-95861335D01*
X155117087Y-95859817D01*
X155166162Y-95728242D01*
X155168628Y-95722530D01*
X155225044Y-95608129D01*
X155226152Y-95605996D01*
X155292184Y-95485066D01*
X155295029Y-95480368D01*
X155366563Y-95373311D01*
X155368428Y-95370676D01*
X155450291Y-95261321D01*
X155453244Y-95257678D01*
X155538503Y-95160459D01*
X155541198Y-95157581D01*
X155637581Y-95061198D01*
X155640459Y-95058503D01*
X155737678Y-94973244D01*
X155741321Y-94970291D01*
X155850676Y-94888428D01*
X155853311Y-94886563D01*
X155960368Y-94815029D01*
X155965066Y-94812184D01*
X156085996Y-94746152D01*
X156088129Y-94745044D01*
X156202530Y-94688628D01*
X156208242Y-94686162D01*
X156339817Y-94637087D01*
X156341335Y-94636547D01*
X156459625Y-94596392D01*
X156466323Y-94594533D01*
X156610567Y-94563155D01*
X156726901Y-94540015D01*
X156734536Y-94538986D01*
X156916290Y-94525986D01*
X156946237Y-94524023D01*
X156997981Y-94520633D01*
X157002036Y-94520500D01*
X175857964Y-94520500D01*
X175862019Y-94520633D01*
G37*
%TD.AperFunction*%
%TD*%
M02*
