%TF.GenerationSoftware,KiCad,Pcbnew,7.0.5*%
%TF.CreationDate,2023-07-26T01:35:09-03:00*%
%TF.ProjectId,HallCoinDetector,48616c6c-436f-4696-9e44-65746563746f,rev?*%
%TF.SameCoordinates,Original*%
%TF.FileFunction,Legend,Top*%
%TF.FilePolarity,Positive*%
%FSLAX46Y46*%
G04 Gerber Fmt 4.6, Leading zero omitted, Abs format (unit mm)*
G04 Created by KiCad (PCBNEW 7.0.5) date 2023-07-26 01:35:09*
%MOMM*%
%LPD*%
G01*
G04 APERTURE LIST*
%ADD10C,0.150000*%
%ADD11C,0.120000*%
G04 APERTURE END LIST*
D10*
X177639120Y-99650800D02*
G75*
G03*
X177639120Y-99650800I-4994960J0D01*
G01*
%TO.C,M1*%
X176854819Y-102976823D02*
X175854819Y-102976823D01*
X175854819Y-102976823D02*
X176569104Y-102643490D01*
X176569104Y-102643490D02*
X175854819Y-102310157D01*
X175854819Y-102310157D02*
X176854819Y-102310157D01*
X176854819Y-101310157D02*
X176854819Y-101881585D01*
X176854819Y-101595871D02*
X175854819Y-101595871D01*
X175854819Y-101595871D02*
X175997676Y-101691109D01*
X175997676Y-101691109D02*
X176092914Y-101786347D01*
X176092914Y-101786347D02*
X176140533Y-101881585D01*
%TO.C,U2*%
X163104819Y-105371904D02*
X163914342Y-105371904D01*
X163914342Y-105371904D02*
X164009580Y-105324285D01*
X164009580Y-105324285D02*
X164057200Y-105276666D01*
X164057200Y-105276666D02*
X164104819Y-105181428D01*
X164104819Y-105181428D02*
X164104819Y-104990952D01*
X164104819Y-104990952D02*
X164057200Y-104895714D01*
X164057200Y-104895714D02*
X164009580Y-104848095D01*
X164009580Y-104848095D02*
X163914342Y-104800476D01*
X163914342Y-104800476D02*
X163104819Y-104800476D01*
X163200057Y-104371904D02*
X163152438Y-104324285D01*
X163152438Y-104324285D02*
X163104819Y-104229047D01*
X163104819Y-104229047D02*
X163104819Y-103990952D01*
X163104819Y-103990952D02*
X163152438Y-103895714D01*
X163152438Y-103895714D02*
X163200057Y-103848095D01*
X163200057Y-103848095D02*
X163295295Y-103800476D01*
X163295295Y-103800476D02*
X163390533Y-103800476D01*
X163390533Y-103800476D02*
X163533390Y-103848095D01*
X163533390Y-103848095D02*
X164104819Y-104419523D01*
X164104819Y-104419523D02*
X164104819Y-103800476D01*
%TO.C,R2*%
X167983333Y-97064819D02*
X167650000Y-96588628D01*
X167411905Y-97064819D02*
X167411905Y-96064819D01*
X167411905Y-96064819D02*
X167792857Y-96064819D01*
X167792857Y-96064819D02*
X167888095Y-96112438D01*
X167888095Y-96112438D02*
X167935714Y-96160057D01*
X167935714Y-96160057D02*
X167983333Y-96255295D01*
X167983333Y-96255295D02*
X167983333Y-96398152D01*
X167983333Y-96398152D02*
X167935714Y-96493390D01*
X167935714Y-96493390D02*
X167888095Y-96541009D01*
X167888095Y-96541009D02*
X167792857Y-96588628D01*
X167792857Y-96588628D02*
X167411905Y-96588628D01*
X168364286Y-96160057D02*
X168411905Y-96112438D01*
X168411905Y-96112438D02*
X168507143Y-96064819D01*
X168507143Y-96064819D02*
X168745238Y-96064819D01*
X168745238Y-96064819D02*
X168840476Y-96112438D01*
X168840476Y-96112438D02*
X168888095Y-96160057D01*
X168888095Y-96160057D02*
X168935714Y-96255295D01*
X168935714Y-96255295D02*
X168935714Y-96350533D01*
X168935714Y-96350533D02*
X168888095Y-96493390D01*
X168888095Y-96493390D02*
X168316667Y-97064819D01*
X168316667Y-97064819D02*
X168935714Y-97064819D01*
%TO.C,C1*%
X159259580Y-96526666D02*
X159307200Y-96574285D01*
X159307200Y-96574285D02*
X159354819Y-96717142D01*
X159354819Y-96717142D02*
X159354819Y-96812380D01*
X159354819Y-96812380D02*
X159307200Y-96955237D01*
X159307200Y-96955237D02*
X159211961Y-97050475D01*
X159211961Y-97050475D02*
X159116723Y-97098094D01*
X159116723Y-97098094D02*
X158926247Y-97145713D01*
X158926247Y-97145713D02*
X158783390Y-97145713D01*
X158783390Y-97145713D02*
X158592914Y-97098094D01*
X158592914Y-97098094D02*
X158497676Y-97050475D01*
X158497676Y-97050475D02*
X158402438Y-96955237D01*
X158402438Y-96955237D02*
X158354819Y-96812380D01*
X158354819Y-96812380D02*
X158354819Y-96717142D01*
X158354819Y-96717142D02*
X158402438Y-96574285D01*
X158402438Y-96574285D02*
X158450057Y-96526666D01*
X159354819Y-95574285D02*
X159354819Y-96145713D01*
X159354819Y-95859999D02*
X158354819Y-95859999D01*
X158354819Y-95859999D02*
X158497676Y-95955237D01*
X158497676Y-95955237D02*
X158592914Y-96050475D01*
X158592914Y-96050475D02*
X158640533Y-96145713D01*
%TO.C,R14*%
X174116442Y-113185619D02*
X173783109Y-112709428D01*
X173545014Y-113185619D02*
X173545014Y-112185619D01*
X173545014Y-112185619D02*
X173925966Y-112185619D01*
X173925966Y-112185619D02*
X174021204Y-112233238D01*
X174021204Y-112233238D02*
X174068823Y-112280857D01*
X174068823Y-112280857D02*
X174116442Y-112376095D01*
X174116442Y-112376095D02*
X174116442Y-112518952D01*
X174116442Y-112518952D02*
X174068823Y-112614190D01*
X174068823Y-112614190D02*
X174021204Y-112661809D01*
X174021204Y-112661809D02*
X173925966Y-112709428D01*
X173925966Y-112709428D02*
X173545014Y-112709428D01*
X175068823Y-113185619D02*
X174497395Y-113185619D01*
X174783109Y-113185619D02*
X174783109Y-112185619D01*
X174783109Y-112185619D02*
X174687871Y-112328476D01*
X174687871Y-112328476D02*
X174592633Y-112423714D01*
X174592633Y-112423714D02*
X174497395Y-112471333D01*
X175925966Y-112518952D02*
X175925966Y-113185619D01*
X175687871Y-112138000D02*
X175449776Y-112852285D01*
X175449776Y-112852285D02*
X176068823Y-112852285D01*
%TO.C,R1*%
X167983333Y-99314819D02*
X167650000Y-98838628D01*
X167411905Y-99314819D02*
X167411905Y-98314819D01*
X167411905Y-98314819D02*
X167792857Y-98314819D01*
X167792857Y-98314819D02*
X167888095Y-98362438D01*
X167888095Y-98362438D02*
X167935714Y-98410057D01*
X167935714Y-98410057D02*
X167983333Y-98505295D01*
X167983333Y-98505295D02*
X167983333Y-98648152D01*
X167983333Y-98648152D02*
X167935714Y-98743390D01*
X167935714Y-98743390D02*
X167888095Y-98791009D01*
X167888095Y-98791009D02*
X167792857Y-98838628D01*
X167792857Y-98838628D02*
X167411905Y-98838628D01*
X168935714Y-99314819D02*
X168364286Y-99314819D01*
X168650000Y-99314819D02*
X168650000Y-98314819D01*
X168650000Y-98314819D02*
X168554762Y-98457676D01*
X168554762Y-98457676D02*
X168459524Y-98552914D01*
X168459524Y-98552914D02*
X168364286Y-98600533D01*
%TO.C,C2*%
X156259580Y-107526666D02*
X156307200Y-107574285D01*
X156307200Y-107574285D02*
X156354819Y-107717142D01*
X156354819Y-107717142D02*
X156354819Y-107812380D01*
X156354819Y-107812380D02*
X156307200Y-107955237D01*
X156307200Y-107955237D02*
X156211961Y-108050475D01*
X156211961Y-108050475D02*
X156116723Y-108098094D01*
X156116723Y-108098094D02*
X155926247Y-108145713D01*
X155926247Y-108145713D02*
X155783390Y-108145713D01*
X155783390Y-108145713D02*
X155592914Y-108098094D01*
X155592914Y-108098094D02*
X155497676Y-108050475D01*
X155497676Y-108050475D02*
X155402438Y-107955237D01*
X155402438Y-107955237D02*
X155354819Y-107812380D01*
X155354819Y-107812380D02*
X155354819Y-107717142D01*
X155354819Y-107717142D02*
X155402438Y-107574285D01*
X155402438Y-107574285D02*
X155450057Y-107526666D01*
X155450057Y-107145713D02*
X155402438Y-107098094D01*
X155402438Y-107098094D02*
X155354819Y-107002856D01*
X155354819Y-107002856D02*
X155354819Y-106764761D01*
X155354819Y-106764761D02*
X155402438Y-106669523D01*
X155402438Y-106669523D02*
X155450057Y-106621904D01*
X155450057Y-106621904D02*
X155545295Y-106574285D01*
X155545295Y-106574285D02*
X155640533Y-106574285D01*
X155640533Y-106574285D02*
X155783390Y-106621904D01*
X155783390Y-106621904D02*
X156354819Y-107193332D01*
X156354819Y-107193332D02*
X156354819Y-106574285D01*
%TO.C,L1*%
X160483333Y-105564819D02*
X160007143Y-105564819D01*
X160007143Y-105564819D02*
X160007143Y-104564819D01*
X161340476Y-105564819D02*
X160769048Y-105564819D01*
X161054762Y-105564819D02*
X161054762Y-104564819D01*
X161054762Y-104564819D02*
X160959524Y-104707676D01*
X160959524Y-104707676D02*
X160864286Y-104802914D01*
X160864286Y-104802914D02*
X160769048Y-104850533D01*
%TO.C,Q2*%
X170200057Y-105205238D02*
X170152438Y-105300476D01*
X170152438Y-105300476D02*
X170057200Y-105395714D01*
X170057200Y-105395714D02*
X169914342Y-105538571D01*
X169914342Y-105538571D02*
X169866723Y-105633809D01*
X169866723Y-105633809D02*
X169866723Y-105729047D01*
X170104819Y-105681428D02*
X170057200Y-105776666D01*
X170057200Y-105776666D02*
X169961961Y-105871904D01*
X169961961Y-105871904D02*
X169771485Y-105919523D01*
X169771485Y-105919523D02*
X169438152Y-105919523D01*
X169438152Y-105919523D02*
X169247676Y-105871904D01*
X169247676Y-105871904D02*
X169152438Y-105776666D01*
X169152438Y-105776666D02*
X169104819Y-105681428D01*
X169104819Y-105681428D02*
X169104819Y-105490952D01*
X169104819Y-105490952D02*
X169152438Y-105395714D01*
X169152438Y-105395714D02*
X169247676Y-105300476D01*
X169247676Y-105300476D02*
X169438152Y-105252857D01*
X169438152Y-105252857D02*
X169771485Y-105252857D01*
X169771485Y-105252857D02*
X169961961Y-105300476D01*
X169961961Y-105300476D02*
X170057200Y-105395714D01*
X170057200Y-105395714D02*
X170104819Y-105490952D01*
X170104819Y-105490952D02*
X170104819Y-105681428D01*
X169200057Y-104871904D02*
X169152438Y-104824285D01*
X169152438Y-104824285D02*
X169104819Y-104729047D01*
X169104819Y-104729047D02*
X169104819Y-104490952D01*
X169104819Y-104490952D02*
X169152438Y-104395714D01*
X169152438Y-104395714D02*
X169200057Y-104348095D01*
X169200057Y-104348095D02*
X169295295Y-104300476D01*
X169295295Y-104300476D02*
X169390533Y-104300476D01*
X169390533Y-104300476D02*
X169533390Y-104348095D01*
X169533390Y-104348095D02*
X170104819Y-104919523D01*
X170104819Y-104919523D02*
X170104819Y-104300476D01*
%TO.C,C3*%
X163009580Y-95776666D02*
X163057200Y-95824285D01*
X163057200Y-95824285D02*
X163104819Y-95967142D01*
X163104819Y-95967142D02*
X163104819Y-96062380D01*
X163104819Y-96062380D02*
X163057200Y-96205237D01*
X163057200Y-96205237D02*
X162961961Y-96300475D01*
X162961961Y-96300475D02*
X162866723Y-96348094D01*
X162866723Y-96348094D02*
X162676247Y-96395713D01*
X162676247Y-96395713D02*
X162533390Y-96395713D01*
X162533390Y-96395713D02*
X162342914Y-96348094D01*
X162342914Y-96348094D02*
X162247676Y-96300475D01*
X162247676Y-96300475D02*
X162152438Y-96205237D01*
X162152438Y-96205237D02*
X162104819Y-96062380D01*
X162104819Y-96062380D02*
X162104819Y-95967142D01*
X162104819Y-95967142D02*
X162152438Y-95824285D01*
X162152438Y-95824285D02*
X162200057Y-95776666D01*
X162104819Y-95443332D02*
X162104819Y-94824285D01*
X162104819Y-94824285D02*
X162485771Y-95157618D01*
X162485771Y-95157618D02*
X162485771Y-95014761D01*
X162485771Y-95014761D02*
X162533390Y-94919523D01*
X162533390Y-94919523D02*
X162581009Y-94871904D01*
X162581009Y-94871904D02*
X162676247Y-94824285D01*
X162676247Y-94824285D02*
X162914342Y-94824285D01*
X162914342Y-94824285D02*
X163009580Y-94871904D01*
X163009580Y-94871904D02*
X163057200Y-94919523D01*
X163057200Y-94919523D02*
X163104819Y-95014761D01*
X163104819Y-95014761D02*
X163104819Y-95300475D01*
X163104819Y-95300475D02*
X163057200Y-95395713D01*
X163057200Y-95395713D02*
X163009580Y-95443332D01*
D11*
%TO.C,M1*%
X176120400Y-105065700D02*
X176120400Y-106175700D01*
X175360400Y-105065700D02*
X176120400Y-105065700D01*
X174600400Y-105065700D02*
X173395400Y-105065700D01*
X174600400Y-105065700D02*
X174600400Y-105612229D01*
X173395400Y-105065700D02*
X173395400Y-105868170D01*
X173395400Y-106483230D02*
X173395400Y-107285700D01*
X174600400Y-106739171D02*
X174600400Y-107285700D01*
X174600400Y-107285700D02*
X173395400Y-107285700D01*
%TO.C,U2*%
X163280000Y-101670000D02*
X163280000Y-103470000D01*
X163280000Y-101670000D02*
X163280000Y-100870000D01*
X166400000Y-101670000D02*
X166400000Y-102470000D01*
X166400000Y-101670000D02*
X166400000Y-100870000D01*
%TO.C,R2*%
X165641064Y-97388600D02*
X165186936Y-97388600D01*
X165641064Y-95918600D02*
X165186936Y-95918600D01*
%TO.C,C1*%
X159903800Y-97880052D02*
X159903800Y-97357548D01*
X161373800Y-97880052D02*
X161373800Y-97357548D01*
%TO.C,R14*%
X174986364Y-111815800D02*
X174532236Y-111815800D01*
X174986364Y-110345800D02*
X174532236Y-110345800D01*
%TO.C,R1*%
X165186936Y-97849000D02*
X165641064Y-97849000D01*
X165186936Y-99319000D02*
X165641064Y-99319000D01*
%TO.C,C2*%
X156601800Y-107278052D02*
X156601800Y-106755548D01*
X158071800Y-107278052D02*
X158071800Y-106755548D01*
%TO.C,L1*%
X158047200Y-102357600D02*
X158047200Y-101617600D01*
X162067200Y-101617600D02*
X162067200Y-102357600D01*
%TO.C,Q2*%
X170490400Y-108268000D02*
X171900400Y-108268000D01*
X171900400Y-105948000D02*
X169870400Y-105948000D01*
X171900400Y-105948000D02*
X171900400Y-106608000D01*
X171900400Y-107608000D02*
X171900400Y-108268000D01*
%TO.C,C3*%
X161935800Y-97930852D02*
X161935800Y-97408348D01*
X163405800Y-97930852D02*
X163405800Y-97408348D01*
%TD*%
M02*
