M48
; DRILL file {KiCad 7.0.5} date Wed Jul 26 01:35:07 2023
; FORMAT={-:-/ absolute / inch / decimal}
; #@! TF.CreationDate,2023-07-26T01:35:07-03:00
; #@! TF.GenerationSoftware,Kicad,Pcbnew,7.0.5
; #@! TF.FileFunction,Plated,1,2,PTH
FMAT,2
INCH
; #@! TA.AperFunction,Plated,PTH,ViaDrill
T1C0.0157
; #@! TA.AperFunction,Plated,PTH,ComponentDrill
T2C0.0236
; #@! TA.AperFunction,Plated,PTH,ComponentDrill
T3C0.0256
%
G90
G05
T1
X6.1444Y-4.0073
X6.1944Y-4.3973
X6.2104Y-4.8233
X6.2524Y-4.6213
X6.2664Y-4.1853
X6.2684Y-3.8813
X6.3064Y-4.6753
X6.3884Y-4.3373
X6.4444Y-3.9013
X6.4904Y-4.1013
X6.5524Y-4.3393
X6.5924Y-3.9693
X6.6204Y-4.3353
X6.6404Y-4.0833
X6.7684Y-4.3553
X6.8112Y-4.6683
X6.8864Y-4.3393
X6.9544Y-4.4713
X6.9564Y-4.7573
T3
X6.854Y-4.1801
X6.904Y-4.1801
T2
G00X6.1383Y-4.5596
M15
G01X6.1383Y-4.6069
M16
G05
G00X6.9683Y-4.5596
M15
G01X6.9683Y-4.6069
M16
G05
T0
M30
