%TF.GenerationSoftware,KiCad,Pcbnew,7.0.5*%
%TF.CreationDate,2023-06-29T16:53:01-03:00*%
%TF.ProjectId,HallCoinDetector,48616c6c-436f-4696-9e44-65746563746f,rev?*%
%TF.SameCoordinates,Original*%
%TF.FileFunction,Copper,L1,Top*%
%TF.FilePolarity,Positive*%
%FSLAX46Y46*%
G04 Gerber Fmt 4.6, Leading zero omitted, Abs format (unit mm)*
G04 Created by KiCad (PCBNEW 7.0.5) date 2023-06-29 16:53:01*
%MOMM*%
%LPD*%
G01*
G04 APERTURE LIST*
G04 Aperture macros list*
%AMRoundRect*
0 Rectangle with rounded corners*
0 $1 Rounding radius*
0 $2 $3 $4 $5 $6 $7 $8 $9 X,Y pos of 4 corners*
0 Add a 4 corners polygon primitive as box body*
4,1,4,$2,$3,$4,$5,$6,$7,$8,$9,$2,$3,0*
0 Add four circle primitives for the rounded corners*
1,1,$1+$1,$2,$3*
1,1,$1+$1,$4,$5*
1,1,$1+$1,$6,$7*
1,1,$1+$1,$8,$9*
0 Add four rect primitives between the rounded corners*
20,1,$1+$1,$2,$3,$4,$5,0*
20,1,$1+$1,$4,$5,$6,$7,0*
20,1,$1+$1,$6,$7,$8,$9,0*
20,1,$1+$1,$8,$9,$2,$3,0*%
%AMFreePoly0*
4,1,19,2.150000,-1.200000,1.177922,-1.200000,1.064578,-1.003895,0.918917,-0.830439,0.745359,-0.684899,0.549174,-0.571693,0.336318,-0.494257,0.113252,-0.454942,-0.113252,-0.454942,-0.336318,-0.494257,-0.549174,-0.571693,-0.745359,-0.684899,-0.918917,-0.830439,-1.064578,-1.003895,-1.177922,-1.200000,-2.150000,-1.200000,-2.150000,0.400000,2.150000,0.400000,2.150000,-1.200000,2.150000,-1.200000,
$1*%
%AMFreePoly1*
4,1,19,-1.064578,1.003895,-0.918917,0.830439,-0.745359,0.684899,-0.549174,0.571693,-0.336318,0.494257,-0.113252,0.454942,0.113252,0.454942,0.336318,0.494257,0.549174,0.571693,0.745359,0.684899,0.918917,0.830439,1.064578,1.003895,1.177922,1.200000,2.150000,1.200000,2.150000,-0.400000,-2.150000,-0.400000,-2.150000,1.200000,-1.177922,1.200000,-1.064578,1.003895,-1.064578,1.003895,
$1*%
G04 Aperture macros list end*
%TA.AperFunction,ComponentPad*%
%ADD10O,1.000000X1.000000*%
%TD*%
%TA.AperFunction,ComponentPad*%
%ADD11R,1.000000X1.000000*%
%TD*%
%TA.AperFunction,SMDPad,CuDef*%
%ADD12C,9.000000*%
%TD*%
%TA.AperFunction,ComponentPad*%
%ADD13O,2.400000X1.200000*%
%TD*%
%TA.AperFunction,BGAPad,CuDef*%
%ADD14RoundRect,0.350000X0.350000X1.650000X-0.350000X1.650000X-0.350000X-1.650000X0.350000X-1.650000X0*%
%TD*%
%TA.AperFunction,SMDPad,CuDef*%
%ADD15RoundRect,0.250000X0.450000X-0.262500X0.450000X0.262500X-0.450000X0.262500X-0.450000X-0.262500X0*%
%TD*%
%TA.AperFunction,SMDPad,CuDef*%
%ADD16RoundRect,0.150000X-0.512500X-0.150000X0.512500X-0.150000X0.512500X0.150000X-0.512500X0.150000X0*%
%TD*%
%TA.AperFunction,SMDPad,CuDef*%
%ADD17RoundRect,0.250000X-0.250000X-0.475000X0.250000X-0.475000X0.250000X0.475000X-0.250000X0.475000X0*%
%TD*%
%TA.AperFunction,SMDPad,CuDef*%
%ADD18RoundRect,0.250000X-0.450000X0.262500X-0.450000X-0.262500X0.450000X-0.262500X0.450000X0.262500X0*%
%TD*%
%TA.AperFunction,SMDPad,CuDef*%
%ADD19FreePoly0,270.000000*%
%TD*%
%TA.AperFunction,SMDPad,CuDef*%
%ADD20FreePoly1,270.000000*%
%TD*%
%TA.AperFunction,SMDPad,CuDef*%
%ADD21R,0.450000X0.700000*%
%TD*%
%TA.AperFunction,ViaPad*%
%ADD22C,0.800000*%
%TD*%
%TA.AperFunction,Conductor*%
%ADD23C,0.250000*%
%TD*%
%TA.AperFunction,Conductor*%
%ADD24C,0.500000*%
%TD*%
%TA.AperFunction,Conductor*%
%ADD25C,0.400000*%
%TD*%
G04 APERTURE END LIST*
D10*
%TO.P,M1,2,-*%
%TO.N,Net-(D3-A)*%
X167741600Y-120690400D03*
D11*
%TO.P,M1,1,+*%
%TO.N,/3V*%
X167741600Y-121960400D03*
%TD*%
D12*
%TO.P,BT1,2,-*%
%TO.N,GND*%
X158318200Y-113207800D03*
D13*
%TO.P,BT1,1,+*%
%TO.N,/BAT*%
X158445200Y-102666800D03*
D14*
%TO.P,BT1,*%
%TO.N,*%
X168986200Y-113207800D03*
D13*
%TO.P,BT1,1,+*%
%TO.N,/BAT*%
X158445200Y-123748800D03*
%TD*%
D15*
%TO.P,R2,1*%
%TO.N,Net-(U2-FB)*%
X178206400Y-112926500D03*
%TO.P,R2,2*%
%TO.N,GND*%
X178206400Y-111101500D03*
%TD*%
D16*
%TO.P,U2,1,SW*%
%TO.N,Net-(U2-SW)*%
X172052500Y-110490000D03*
%TO.P,U2,2,GND*%
%TO.N,GND*%
X172052500Y-111440000D03*
%TO.P,U2,3,EN*%
%TO.N,/3V*%
X172052500Y-112390000D03*
%TO.P,U2,4,FB*%
%TO.N,Net-(U2-FB)*%
X174327500Y-112390000D03*
%TO.P,U2,5,OUT*%
%TO.N,/+5V*%
X174327500Y-111440000D03*
%TO.P,U2,6,Bat*%
%TO.N,/3V*%
X174327500Y-110490000D03*
%TD*%
D17*
%TO.P,C1,2*%
%TO.N,GND*%
X178191200Y-107238800D03*
%TO.P,C1,1*%
%TO.N,/3V*%
X176291200Y-107238800D03*
%TD*%
D15*
%TO.P,R14,2*%
%TO.N,Net-(Q2-G)*%
X163779200Y-120448700D03*
%TO.P,R14,1*%
%TO.N,Net-(D1-K)*%
X163779200Y-122273700D03*
%TD*%
D18*
%TO.P,R1,1*%
%TO.N,/+5V*%
X176276000Y-111101500D03*
%TO.P,R1,2*%
%TO.N,Net-(U2-FB)*%
X176276000Y-112926500D03*
%TD*%
D17*
%TO.P,C2,2*%
%TO.N,GND*%
X168793200Y-103936800D03*
%TO.P,C2,1*%
%TO.N,/+5V*%
X166893200Y-103936800D03*
%TD*%
D19*
%TO.P,L1,1,1*%
%TO.N,/3V*%
X174622400Y-106657200D03*
D20*
%TO.P,L1,2,2*%
%TO.N,Net-(U2-SW)*%
X171122400Y-106657200D03*
%TD*%
D21*
%TO.P,Q2,3,D*%
%TO.N,Net-(D3-A)*%
X167752000Y-118770400D03*
%TO.P,Q2,2,S*%
%TO.N,GND*%
X167102000Y-116770400D03*
%TO.P,Q2,1,G*%
%TO.N,Net-(Q2-G)*%
X168402000Y-116770400D03*
%TD*%
D17*
%TO.P,C3,1*%
%TO.N,/+5V*%
X176240400Y-109270800D03*
%TO.P,C3,2*%
%TO.N,GND*%
X178140400Y-109270800D03*
%TD*%
D22*
%TO.N,Net-(D3-A)*%
X174040800Y-114046000D03*
%TO.N,GND*%
X156108400Y-106781600D03*
X154025600Y-123291600D03*
X161290000Y-123240800D03*
X152349200Y-104343200D03*
X157480000Y-105410000D03*
X168554400Y-105765600D03*
%TO.N,/+5V*%
X164693600Y-108864400D03*
%TO.N,GND*%
X157530800Y-120700800D03*
%TO.N,Net-(D1-K)*%
X164642800Y-121513600D03*
%TO.N,GND*%
X164744400Y-114757200D03*
X164236400Y-118516400D03*
%TO.N,/BAT*%
X173075600Y-102666800D03*
%TO.N,/+5V*%
X171145200Y-115265200D03*
%TO.N,GND*%
X170688000Y-111455200D03*
%TO.N,/3V*%
X176276000Y-105816400D03*
%TO.N,/+5V*%
X164642800Y-113030000D03*
X163169600Y-103936800D03*
X175768000Y-110286800D03*
%TD*%
D23*
%TO.N,/BAT*%
X173063400Y-102654600D02*
X173075600Y-102666800D01*
%TO.N,Net-(D3-A)*%
X174040800Y-113995200D02*
X173990000Y-114046000D01*
X174040800Y-114046000D02*
X174040800Y-113995200D01*
X173990000Y-114046000D02*
X174040800Y-114046000D01*
X171094400Y-116941600D02*
X173990000Y-114046000D01*
X169519600Y-116941600D02*
X171094400Y-116941600D01*
X167752000Y-118770400D02*
X167752000Y-118709200D01*
X167752000Y-118709200D02*
X169519600Y-116941600D01*
X167752000Y-118770400D02*
X167752000Y-120680000D01*
X167752000Y-120680000D02*
X167741600Y-120690400D01*
%TO.N,Net-(Q2-G)*%
X164945700Y-120448700D02*
X163779200Y-120448700D01*
X168402000Y-116992400D02*
X164945700Y-120448700D01*
X168402000Y-116770400D02*
X168402000Y-116992400D01*
%TO.N,Net-(D1-K)*%
X163779200Y-122273700D02*
X164539300Y-121513600D01*
X164539300Y-121513600D02*
X164642800Y-121513600D01*
%TO.N,/+5V*%
X163169600Y-107035600D02*
X164693600Y-108864400D01*
X163169600Y-103936800D02*
X163169600Y-107035600D01*
X163169600Y-103936800D02*
X166893200Y-103936800D01*
%TO.N,Net-(D1-K)*%
X164541200Y-121513600D02*
X164642800Y-121412000D01*
X164642800Y-121513600D02*
X164541200Y-121513600D01*
X164642800Y-121412000D02*
X164642800Y-121513600D01*
%TO.N,/+5V*%
X167690800Y-116078000D02*
X164642800Y-113030000D01*
X170332400Y-116078000D02*
X167690800Y-116078000D01*
X171145200Y-115265200D02*
X170332400Y-116078000D01*
D24*
%TO.N,/BAT*%
X158457400Y-102654600D02*
X173063400Y-102654600D01*
D23*
X158445200Y-102666800D02*
X158457400Y-102654600D01*
%TO.N,/+5V*%
X176274100Y-111099600D02*
X176276000Y-111101500D01*
X175463200Y-111099600D02*
X176274100Y-111099600D01*
X175122800Y-111440000D02*
X175463200Y-111099600D01*
X174327500Y-111440000D02*
X175122800Y-111440000D01*
X176276000Y-109306400D02*
X176240400Y-109270800D01*
X176276000Y-110236000D02*
X176276000Y-109306400D01*
X176225200Y-110286800D02*
X175768000Y-110286800D01*
X176276000Y-110236000D02*
X176225200Y-110286800D01*
X176276000Y-111101500D02*
X176276000Y-110236000D01*
X176291200Y-109270800D02*
X176240400Y-109270800D01*
%TO.N,Net-(U2-FB)*%
X174864000Y-112926500D02*
X174327500Y-112390000D01*
X176276000Y-112926500D02*
X174864000Y-112926500D01*
X178206400Y-112926500D02*
X176276000Y-112926500D01*
D24*
%TO.N,/3V*%
X175204000Y-107238800D02*
X174622400Y-106657200D01*
X176291200Y-107238800D02*
X175204000Y-107238800D01*
D25*
X176276000Y-107223600D02*
X176291200Y-107238800D01*
D24*
X176276000Y-105816400D02*
X176276000Y-107223600D01*
D23*
%TO.N,/+5V*%
X164678400Y-112994400D02*
X164642800Y-113030000D01*
X174393500Y-111506000D02*
X174327500Y-111440000D01*
%TO.N,Net-(U2-SW)*%
X171754800Y-110490000D02*
X171551600Y-110286800D01*
D25*
X171805600Y-110490000D02*
X171122400Y-109806800D01*
X171122400Y-109806800D02*
X171122400Y-106657200D01*
D23*
X172052500Y-110490000D02*
X171754800Y-110490000D01*
X172052500Y-110490000D02*
X171805600Y-110490000D01*
%TO.N,/3V*%
X173106000Y-112390000D02*
X172052500Y-112390000D01*
X173228000Y-112268000D02*
X173106000Y-112390000D01*
X174327500Y-110490000D02*
X173943249Y-110490000D01*
D25*
X174701200Y-110337600D02*
X174701200Y-106736000D01*
D23*
X174548800Y-110490000D02*
X174701200Y-110337600D01*
X173228000Y-111205249D02*
X173228000Y-112268000D01*
X173943249Y-110490000D02*
X173228000Y-111205249D01*
X174327500Y-110490000D02*
X174548800Y-110490000D01*
X174701200Y-106736000D02*
X174622400Y-106657200D01*
%TD*%
%TA.AperFunction,Conductor*%
%TO.N,GND*%
G36*
X157129589Y-101620185D02*
G01*
X157175344Y-101672989D01*
X157185288Y-101742147D01*
X157156263Y-101805703D01*
X157139202Y-101821970D01*
X157082316Y-101866705D01*
X157082312Y-101866709D01*
X156944678Y-102025546D01*
X156839598Y-102207550D01*
X156770856Y-102406165D01*
X156770856Y-102406167D01*
X156760451Y-102478540D01*
X156740946Y-102614201D01*
X156750945Y-102824127D01*
X156800496Y-103028378D01*
X156800498Y-103028382D01*
X156887798Y-103219543D01*
X156887801Y-103219548D01*
X156887802Y-103219550D01*
X156887804Y-103219553D01*
X156930550Y-103279581D01*
X157009715Y-103390753D01*
X157009720Y-103390759D01*
X157161820Y-103535785D01*
X157256778Y-103596811D01*
X157338628Y-103649413D01*
X157533743Y-103727525D01*
X157617978Y-103743760D01*
X157740114Y-103767300D01*
X157740115Y-103767300D01*
X159097619Y-103767300D01*
X159097625Y-103767300D01*
X159254418Y-103752328D01*
X159456075Y-103693116D01*
X159642882Y-103596811D01*
X159808086Y-103466892D01*
X159824544Y-103447897D01*
X159883322Y-103410123D01*
X159918258Y-103405100D01*
X162224846Y-103405100D01*
X162291885Y-103424785D01*
X162337640Y-103477589D01*
X162347584Y-103546747D01*
X162342777Y-103567418D01*
X162290008Y-103729825D01*
X162283926Y-103748544D01*
X162264140Y-103936800D01*
X162283926Y-104125056D01*
X162283927Y-104125059D01*
X162342418Y-104305077D01*
X162342421Y-104305084D01*
X162437067Y-104469016D01*
X162471449Y-104507201D01*
X162512250Y-104552515D01*
X162542480Y-104615506D01*
X162544100Y-104635487D01*
X162544100Y-107015245D01*
X162543991Y-107018917D01*
X162540519Y-107077442D01*
X162540519Y-107077446D01*
X162551244Y-107132595D01*
X162551895Y-107136660D01*
X162558936Y-107192393D01*
X162562443Y-107201250D01*
X162568868Y-107223215D01*
X162570689Y-107232577D01*
X162570689Y-107232578D01*
X162594789Y-107283317D01*
X162596431Y-107287093D01*
X162617114Y-107339332D01*
X162617116Y-107339336D01*
X162622712Y-107347037D01*
X162634402Y-107366722D01*
X162638491Y-107375330D01*
X162638491Y-107375331D01*
X162674450Y-107418482D01*
X162676979Y-107421731D01*
X162710006Y-107467187D01*
X162710007Y-107467188D01*
X162717347Y-107473260D01*
X162733565Y-107489420D01*
X163021650Y-107835122D01*
X163764820Y-108726927D01*
X163792616Y-108791030D01*
X163792882Y-108819268D01*
X163788140Y-108864397D01*
X163788140Y-108864400D01*
X163807926Y-109052656D01*
X163807927Y-109052659D01*
X163866418Y-109232677D01*
X163866421Y-109232684D01*
X163961067Y-109396616D01*
X164069140Y-109516643D01*
X164087729Y-109537288D01*
X164240865Y-109648548D01*
X164240870Y-109648551D01*
X164413792Y-109725542D01*
X164413797Y-109725544D01*
X164598954Y-109764900D01*
X164598955Y-109764900D01*
X164788244Y-109764900D01*
X164788246Y-109764900D01*
X164973403Y-109725544D01*
X165146330Y-109648551D01*
X165299471Y-109537288D01*
X165426133Y-109396616D01*
X165520779Y-109232684D01*
X165579274Y-109052656D01*
X165599060Y-108864400D01*
X165579274Y-108676144D01*
X165520779Y-108496116D01*
X165426133Y-108332184D01*
X165299471Y-108191512D01*
X165299470Y-108191511D01*
X165146334Y-108080251D01*
X165146329Y-108080248D01*
X164973407Y-108003257D01*
X164973402Y-108003255D01*
X164792756Y-107964858D01*
X164731274Y-107931666D01*
X164723278Y-107922951D01*
X163823841Y-106843626D01*
X163796045Y-106779523D01*
X163795100Y-106764243D01*
X163795100Y-104686300D01*
X163814785Y-104619261D01*
X163867589Y-104573506D01*
X163919100Y-104562300D01*
X165812899Y-104562300D01*
X165879938Y-104581985D01*
X165925693Y-104634789D01*
X165930603Y-104647292D01*
X165958386Y-104731134D01*
X166050488Y-104880456D01*
X166174544Y-105004512D01*
X166323866Y-105096614D01*
X166490403Y-105151799D01*
X166593191Y-105162300D01*
X167193208Y-105162299D01*
X167193216Y-105162298D01*
X167193219Y-105162298D01*
X167249502Y-105156548D01*
X167295997Y-105151799D01*
X167462534Y-105096614D01*
X167611856Y-105004512D01*
X167735912Y-104880456D01*
X167737952Y-104877147D01*
X167739945Y-104875355D01*
X167740393Y-104874789D01*
X167740489Y-104874865D01*
X167789894Y-104830423D01*
X167858856Y-104819195D01*
X167922940Y-104847034D01*
X167949029Y-104877139D01*
X167950881Y-104880141D01*
X167950883Y-104880144D01*
X168074854Y-105004115D01*
X168224075Y-105096156D01*
X168224080Y-105096158D01*
X168390502Y-105151305D01*
X168390509Y-105151306D01*
X168493219Y-105161799D01*
X168543198Y-105161798D01*
X168543199Y-105161798D01*
X168543200Y-104186800D01*
X169043199Y-104186800D01*
X169043199Y-105161798D01*
X169043200Y-105161799D01*
X169093172Y-105161799D01*
X169093186Y-105161798D01*
X169195897Y-105151305D01*
X169362319Y-105096158D01*
X169362324Y-105096156D01*
X169511545Y-105004115D01*
X169635515Y-104880145D01*
X169727556Y-104730924D01*
X169727558Y-104730919D01*
X169782705Y-104564497D01*
X169782706Y-104564490D01*
X169793199Y-104461786D01*
X169793200Y-104461773D01*
X169793200Y-104186800D01*
X169043199Y-104186800D01*
X168543200Y-104186800D01*
X168543200Y-103810800D01*
X168562885Y-103743760D01*
X168615689Y-103698006D01*
X168667200Y-103686800D01*
X169793199Y-103686800D01*
X169793199Y-103529100D01*
X169812884Y-103462061D01*
X169865688Y-103416306D01*
X169917199Y-103405100D01*
X170825900Y-103405100D01*
X170892939Y-103424785D01*
X170938694Y-103477589D01*
X170949899Y-103529099D01*
X170949900Y-103564656D01*
X170970254Y-103647240D01*
X170990610Y-103729826D01*
X171037899Y-103819927D01*
X171051625Y-103888435D01*
X171026133Y-103953489D01*
X170969517Y-103994433D01*
X170928103Y-104001553D01*
X170722397Y-104001553D01*
X170650439Y-104006699D01*
X170650434Y-104006700D01*
X170512349Y-104047245D01*
X170391273Y-104125056D01*
X170297023Y-104233826D01*
X170297022Y-104233828D01*
X170237234Y-104364743D01*
X170227100Y-104435234D01*
X170216754Y-104507197D01*
X170216753Y-104507201D01*
X170216753Y-108807202D01*
X170221899Y-108879160D01*
X170221900Y-108879165D01*
X170262445Y-109017250D01*
X170270286Y-109029451D01*
X170340257Y-109138328D01*
X170379102Y-109171987D01*
X170416876Y-109230763D01*
X170421900Y-109265700D01*
X170421900Y-109783751D01*
X170421787Y-109787496D01*
X170418042Y-109849403D01*
X170418042Y-109849405D01*
X170429221Y-109910412D01*
X170429784Y-109914113D01*
X170437259Y-109975670D01*
X170437260Y-109975674D01*
X170440851Y-109985143D01*
X170446874Y-110006746D01*
X170448704Y-110016730D01*
X170474159Y-110073290D01*
X170475589Y-110076741D01*
X170497582Y-110134730D01*
X170502226Y-110141457D01*
X170503336Y-110143066D01*
X170514361Y-110162613D01*
X170518520Y-110171855D01*
X170518524Y-110171860D01*
X170556771Y-110220678D01*
X170558991Y-110223696D01*
X170594212Y-110274724D01*
X170594216Y-110274728D01*
X170594217Y-110274729D01*
X170640650Y-110315864D01*
X170643341Y-110318398D01*
X170769739Y-110444796D01*
X170853181Y-110528238D01*
X170886666Y-110589561D01*
X170889500Y-110615919D01*
X170889500Y-110705701D01*
X170892401Y-110742567D01*
X170892402Y-110742573D01*
X170938254Y-110900393D01*
X170938256Y-110900399D01*
X170939426Y-110902377D01*
X170939869Y-110904126D01*
X170941353Y-110907554D01*
X170940799Y-110907793D01*
X170956603Y-110970102D01*
X170941249Y-111022395D01*
X170941817Y-111022641D01*
X170939827Y-111027239D01*
X170939428Y-111028599D01*
X170938722Y-111029791D01*
X170938716Y-111029806D01*
X170892900Y-111187505D01*
X170892899Y-111187511D01*
X170892704Y-111189998D01*
X170892705Y-111190000D01*
X171158185Y-111190000D01*
X171221306Y-111207268D01*
X171279602Y-111241744D01*
X171321224Y-111253836D01*
X171437426Y-111287597D01*
X171437429Y-111287597D01*
X171437431Y-111287598D01*
X171474306Y-111290500D01*
X172178500Y-111290500D01*
X172245539Y-111310185D01*
X172291294Y-111362989D01*
X172302500Y-111414500D01*
X172302500Y-111465500D01*
X172282815Y-111532539D01*
X172230011Y-111578294D01*
X172178500Y-111589500D01*
X171474298Y-111589500D01*
X171437432Y-111592401D01*
X171437426Y-111592402D01*
X171279606Y-111638254D01*
X171279603Y-111638255D01*
X171221306Y-111672732D01*
X171158185Y-111690000D01*
X170892705Y-111690000D01*
X170892704Y-111690001D01*
X170892899Y-111692488D01*
X170892900Y-111692494D01*
X170938716Y-111850193D01*
X170938720Y-111850203D01*
X170939427Y-111851398D01*
X170939695Y-111852454D01*
X170941816Y-111857356D01*
X170941024Y-111857698D01*
X170956603Y-111919123D01*
X170940993Y-111972284D01*
X170941355Y-111972441D01*
X170940087Y-111975369D01*
X170939427Y-111977620D01*
X170938259Y-111979594D01*
X170938254Y-111979607D01*
X170892402Y-112137426D01*
X170892401Y-112137432D01*
X170889500Y-112174298D01*
X170889500Y-112605701D01*
X170892401Y-112642567D01*
X170892402Y-112642573D01*
X170938254Y-112800393D01*
X170938255Y-112800396D01*
X170938256Y-112800398D01*
X170962708Y-112841744D01*
X171021917Y-112941862D01*
X171021923Y-112941870D01*
X171138129Y-113058076D01*
X171138133Y-113058079D01*
X171138135Y-113058081D01*
X171279602Y-113141744D01*
X171321224Y-113153836D01*
X171437426Y-113187597D01*
X171437429Y-113187597D01*
X171437431Y-113187598D01*
X171474306Y-113190500D01*
X171474314Y-113190500D01*
X172630686Y-113190500D01*
X172630694Y-113190500D01*
X172667569Y-113187598D01*
X172667571Y-113187597D01*
X172667573Y-113187597D01*
X172709191Y-113175505D01*
X172825398Y-113141744D01*
X172966865Y-113058081D01*
X172971276Y-113053669D01*
X173032596Y-113020183D01*
X173055064Y-113017409D01*
X173062446Y-113017177D01*
X173114847Y-113015531D01*
X173116794Y-113015500D01*
X173145347Y-113015500D01*
X173145350Y-113015500D01*
X173152228Y-113014630D01*
X173158041Y-113014172D01*
X173204627Y-113012709D01*
X173223869Y-113007117D01*
X173242912Y-113003174D01*
X173262792Y-113000664D01*
X173262806Y-113000658D01*
X173268220Y-112999269D01*
X173338049Y-113001660D01*
X173386744Y-113031690D01*
X173403938Y-113048884D01*
X173413134Y-113058080D01*
X173413138Y-113058083D01*
X173501698Y-113110457D01*
X173549381Y-113161526D01*
X173561885Y-113230268D01*
X173535240Y-113294857D01*
X173511463Y-113317507D01*
X173434927Y-113373113D01*
X173308266Y-113513785D01*
X173213621Y-113677715D01*
X173213618Y-113677722D01*
X173179830Y-113781712D01*
X173155126Y-113857744D01*
X173146533Y-113939500D01*
X173143445Y-113968884D01*
X173116860Y-114033499D01*
X173107805Y-114043603D01*
X172184646Y-114966761D01*
X172123323Y-115000246D01*
X172053631Y-114995262D01*
X171997698Y-114953390D01*
X171979034Y-114917397D01*
X171972382Y-114896924D01*
X171972380Y-114896920D01*
X171972379Y-114896916D01*
X171877733Y-114732984D01*
X171751071Y-114592312D01*
X171751070Y-114592311D01*
X171597934Y-114481051D01*
X171597929Y-114481048D01*
X171425007Y-114404057D01*
X171425002Y-114404055D01*
X171279200Y-114373065D01*
X171239846Y-114364700D01*
X171050554Y-114364700D01*
X171018097Y-114371598D01*
X170865397Y-114404055D01*
X170865392Y-114404057D01*
X170692470Y-114481048D01*
X170692465Y-114481051D01*
X170539329Y-114592311D01*
X170412665Y-114732985D01*
X170411016Y-114735256D01*
X170409725Y-114736251D01*
X170408319Y-114737813D01*
X170408033Y-114737555D01*
X170355685Y-114777920D01*
X170286071Y-114783898D01*
X170224277Y-114751290D01*
X170189922Y-114690450D01*
X170186700Y-114662368D01*
X170186700Y-111483848D01*
X170185456Y-111465500D01*
X170183883Y-111442305D01*
X170139237Y-111262779D01*
X170057042Y-111097047D01*
X169997232Y-111022641D01*
X169941140Y-110952859D01*
X169815044Y-110851500D01*
X169796953Y-110836958D01*
X169796951Y-110836957D01*
X169796950Y-110836956D01*
X169631223Y-110754764D01*
X169631221Y-110754763D01*
X169451697Y-110710117D01*
X169451701Y-110710117D01*
X169420539Y-110708004D01*
X169410154Y-110707300D01*
X168562246Y-110707300D01*
X168550377Y-110708104D01*
X168520700Y-110710117D01*
X168341178Y-110754763D01*
X168341176Y-110754764D01*
X168175449Y-110836956D01*
X168031259Y-110952859D01*
X167915356Y-111097049D01*
X167833164Y-111262776D01*
X167833163Y-111262778D01*
X167788517Y-111442300D01*
X167785700Y-111483848D01*
X167785700Y-114931751D01*
X167788518Y-114973310D01*
X167788657Y-114974193D01*
X167788605Y-114974588D01*
X167788887Y-114978742D01*
X167788054Y-114978798D01*
X167779595Y-115043473D01*
X167734517Y-115096855D01*
X167667733Y-115117392D01*
X167600449Y-115098563D01*
X167578473Y-115081083D01*
X166731649Y-114234259D01*
X165581760Y-113084369D01*
X165548275Y-113023046D01*
X165546123Y-113009668D01*
X165528474Y-112841744D01*
X165469979Y-112661716D01*
X165375333Y-112497784D01*
X165248671Y-112357112D01*
X165248670Y-112357111D01*
X165095534Y-112245851D01*
X165095529Y-112245848D01*
X164922607Y-112168857D01*
X164922602Y-112168855D01*
X164774735Y-112137426D01*
X164737446Y-112129500D01*
X164548154Y-112129500D01*
X164515697Y-112136398D01*
X164362997Y-112168855D01*
X164362992Y-112168857D01*
X164190070Y-112245848D01*
X164190065Y-112245851D01*
X164036929Y-112357111D01*
X163910266Y-112497785D01*
X163815621Y-112661715D01*
X163815618Y-112661722D01*
X163770560Y-112800398D01*
X163757126Y-112841744D01*
X163746603Y-112941865D01*
X163739745Y-113007122D01*
X163737340Y-113030000D01*
X163757126Y-113218256D01*
X163757127Y-113218259D01*
X163815618Y-113398277D01*
X163815621Y-113398284D01*
X163910267Y-113562216D01*
X164036928Y-113702888D01*
X164036929Y-113702888D01*
X164190065Y-113814148D01*
X164190070Y-113814151D01*
X164362992Y-113891142D01*
X164362997Y-113891144D01*
X164548154Y-113930500D01*
X164607348Y-113930500D01*
X164674387Y-113950185D01*
X164695029Y-113966819D01*
X166573951Y-115845742D01*
X166607436Y-115907065D01*
X166602452Y-115976757D01*
X166560583Y-116032688D01*
X166519811Y-116063210D01*
X166519809Y-116063212D01*
X166433649Y-116178306D01*
X166433645Y-116178313D01*
X166383403Y-116313020D01*
X166383401Y-116313027D01*
X166377000Y-116372555D01*
X166377000Y-116545400D01*
X167203000Y-116545400D01*
X167270039Y-116565085D01*
X167315794Y-116617889D01*
X167327000Y-116669400D01*
X167327000Y-116871400D01*
X167307315Y-116938439D01*
X167254511Y-116984194D01*
X167203000Y-116995400D01*
X166377000Y-116995400D01*
X166377000Y-117168244D01*
X166383401Y-117227772D01*
X166383403Y-117227779D01*
X166433645Y-117362486D01*
X166433649Y-117362493D01*
X166519809Y-117477587D01*
X166519812Y-117477590D01*
X166634906Y-117563750D01*
X166634913Y-117563754D01*
X166680747Y-117580849D01*
X166736681Y-117622720D01*
X166761098Y-117688184D01*
X166746247Y-117756457D01*
X166725095Y-117784712D01*
X164894768Y-119615038D01*
X164833445Y-119648523D01*
X164763753Y-119643539D01*
X164719406Y-119615038D01*
X164697857Y-119593489D01*
X164697856Y-119593488D01*
X164548534Y-119501386D01*
X164381997Y-119446201D01*
X164381995Y-119446200D01*
X164279210Y-119435700D01*
X163279198Y-119435700D01*
X163279180Y-119435701D01*
X163176403Y-119446200D01*
X163176400Y-119446201D01*
X163009868Y-119501385D01*
X163009863Y-119501387D01*
X162860542Y-119593489D01*
X162736489Y-119717542D01*
X162644387Y-119866863D01*
X162644385Y-119866866D01*
X162644386Y-119866866D01*
X162589201Y-120033403D01*
X162589201Y-120033404D01*
X162589200Y-120033404D01*
X162578700Y-120136183D01*
X162578700Y-120761201D01*
X162578701Y-120761219D01*
X162589200Y-120863996D01*
X162589201Y-120863999D01*
X162609682Y-120925805D01*
X162644386Y-121030534D01*
X162716127Y-121146846D01*
X162736489Y-121179857D01*
X162830151Y-121273519D01*
X162863636Y-121334842D01*
X162858652Y-121404534D01*
X162830151Y-121448881D01*
X162736489Y-121542542D01*
X162644387Y-121691863D01*
X162644385Y-121691868D01*
X162616549Y-121775870D01*
X162589201Y-121858403D01*
X162589201Y-121858404D01*
X162589200Y-121858404D01*
X162578700Y-121961183D01*
X162578700Y-122586201D01*
X162578701Y-122586219D01*
X162589200Y-122688996D01*
X162589201Y-122688999D01*
X162644385Y-122855531D01*
X162644386Y-122855534D01*
X162736488Y-123004856D01*
X162860544Y-123128912D01*
X163009866Y-123221014D01*
X163176403Y-123276199D01*
X163279191Y-123286700D01*
X164279208Y-123286699D01*
X164279216Y-123286698D01*
X164279219Y-123286698D01*
X164335502Y-123280948D01*
X164381997Y-123276199D01*
X164548534Y-123221014D01*
X164697856Y-123128912D01*
X164821912Y-123004856D01*
X164914014Y-122855534D01*
X164969199Y-122688997D01*
X164979700Y-122586209D01*
X164979699Y-122429847D01*
X164999383Y-122362809D01*
X165052187Y-122317054D01*
X165053095Y-122316643D01*
X165095530Y-122297751D01*
X165248671Y-122186488D01*
X165375333Y-122045816D01*
X165469979Y-121881884D01*
X165528474Y-121701856D01*
X165548260Y-121513600D01*
X165528474Y-121325344D01*
X165470476Y-121146846D01*
X165469981Y-121145322D01*
X165469980Y-121145321D01*
X165469979Y-121145316D01*
X165394455Y-121014505D01*
X165377983Y-120946607D01*
X165400836Y-120880580D01*
X165414156Y-120864832D01*
X166910545Y-119368443D01*
X166971866Y-119334960D01*
X167041558Y-119339944D01*
X167097491Y-119381815D01*
X167101767Y-119387527D01*
X167126184Y-119452991D01*
X167126500Y-119461838D01*
X167126500Y-119842262D01*
X167106815Y-119909301D01*
X167081169Y-119938111D01*
X167030717Y-119979517D01*
X167030714Y-119979519D01*
X167030712Y-119979522D01*
X166905690Y-120131860D01*
X166905686Y-120131867D01*
X166812788Y-120305666D01*
X166755575Y-120494270D01*
X166736259Y-120690400D01*
X166755575Y-120886529D01*
X166755576Y-120886532D01*
X166799259Y-121030536D01*
X166812787Y-121075129D01*
X166813921Y-121077250D01*
X166814180Y-121078494D01*
X166815118Y-121080759D01*
X166814688Y-121080936D01*
X166828164Y-121145653D01*
X166803833Y-121210014D01*
X166797805Y-121218066D01*
X166797802Y-121218071D01*
X166747508Y-121352917D01*
X166746618Y-121361200D01*
X166741101Y-121412523D01*
X166741100Y-121412535D01*
X166741100Y-122508270D01*
X166741101Y-122508276D01*
X166747508Y-122567883D01*
X166797802Y-122702728D01*
X166797806Y-122702735D01*
X166884052Y-122817944D01*
X166884055Y-122817947D01*
X166999264Y-122904193D01*
X166999271Y-122904197D01*
X167134117Y-122954491D01*
X167134116Y-122954491D01*
X167141044Y-122955235D01*
X167193727Y-122960900D01*
X168289472Y-122960899D01*
X168349083Y-122954491D01*
X168483931Y-122904196D01*
X168599146Y-122817946D01*
X168685396Y-122702731D01*
X168735691Y-122567883D01*
X168742100Y-122508273D01*
X168742099Y-121412528D01*
X168735691Y-121352917D01*
X168728949Y-121334842D01*
X168685397Y-121218072D01*
X168685396Y-121218069D01*
X168679367Y-121210015D01*
X168654951Y-121144554D01*
X168668495Y-121080925D01*
X168668083Y-121080755D01*
X168669006Y-121078524D01*
X168669277Y-121077253D01*
X168670414Y-121075127D01*
X168727624Y-120886532D01*
X168746941Y-120690400D01*
X168727624Y-120494268D01*
X168670414Y-120305673D01*
X168670411Y-120305669D01*
X168670411Y-120305666D01*
X168577513Y-120131867D01*
X168577509Y-120131860D01*
X168452486Y-119979520D01*
X168452484Y-119979518D01*
X168452483Y-119979517D01*
X168438955Y-119968415D01*
X168422832Y-119955182D01*
X168383499Y-119897435D01*
X168377500Y-119859331D01*
X168377500Y-119461838D01*
X168397185Y-119394799D01*
X168402234Y-119387526D01*
X168406509Y-119381815D01*
X168420796Y-119362731D01*
X168471091Y-119227883D01*
X168477500Y-119168273D01*
X168477499Y-118919650D01*
X168497183Y-118852612D01*
X168513813Y-118831975D01*
X169742371Y-117603419D01*
X169803695Y-117569934D01*
X169830053Y-117567100D01*
X171011657Y-117567100D01*
X171027277Y-117568824D01*
X171027304Y-117568539D01*
X171035066Y-117569273D01*
X171035066Y-117569272D01*
X171035067Y-117569273D01*
X171038399Y-117569168D01*
X171103247Y-117567131D01*
X171105194Y-117567100D01*
X171133747Y-117567100D01*
X171133750Y-117567100D01*
X171140628Y-117566230D01*
X171146441Y-117565772D01*
X171193027Y-117564309D01*
X171212269Y-117558717D01*
X171231312Y-117554774D01*
X171251192Y-117552264D01*
X171294522Y-117535107D01*
X171300046Y-117533217D01*
X171303796Y-117532127D01*
X171344790Y-117520218D01*
X171362029Y-117510022D01*
X171379503Y-117501462D01*
X171398127Y-117494088D01*
X171398127Y-117494087D01*
X171398132Y-117494086D01*
X171435849Y-117466682D01*
X171440705Y-117463492D01*
X171480820Y-117439770D01*
X171494989Y-117425599D01*
X171509779Y-117412968D01*
X171525987Y-117401194D01*
X171555699Y-117365276D01*
X171559612Y-117360976D01*
X173937770Y-114982819D01*
X173999094Y-114949334D01*
X174025452Y-114946500D01*
X174135444Y-114946500D01*
X174135446Y-114946500D01*
X174320603Y-114907144D01*
X174493530Y-114830151D01*
X174646671Y-114718888D01*
X174773333Y-114578216D01*
X174867979Y-114414284D01*
X174926474Y-114234256D01*
X174946260Y-114046000D01*
X174926474Y-113857744D01*
X174879872Y-113714318D01*
X174877877Y-113644477D01*
X174913957Y-113584644D01*
X174976658Y-113553816D01*
X174997803Y-113552000D01*
X175098912Y-113552000D01*
X175165951Y-113571685D01*
X175204449Y-113610901D01*
X175233288Y-113657656D01*
X175357344Y-113781712D01*
X175506666Y-113873814D01*
X175673203Y-113928999D01*
X175775991Y-113939500D01*
X176776008Y-113939499D01*
X176776016Y-113939498D01*
X176776019Y-113939498D01*
X176832302Y-113933748D01*
X176878797Y-113928999D01*
X177045334Y-113873814D01*
X177176104Y-113793154D01*
X177243495Y-113774714D01*
X177306295Y-113793154D01*
X177369396Y-113832075D01*
X177437057Y-113873809D01*
X177437060Y-113873810D01*
X177437066Y-113873814D01*
X177603603Y-113928999D01*
X177706391Y-113939500D01*
X178706408Y-113939499D01*
X178706416Y-113939498D01*
X178706419Y-113939498D01*
X178762702Y-113933748D01*
X178809197Y-113928999D01*
X178975734Y-113873814D01*
X179125056Y-113781712D01*
X179249112Y-113657656D01*
X179341214Y-113508334D01*
X179396399Y-113341797D01*
X179406900Y-113239009D01*
X179406899Y-112613992D01*
X179406051Y-112605694D01*
X179396399Y-112511203D01*
X179396398Y-112511200D01*
X179345338Y-112357112D01*
X179341214Y-112344666D01*
X179249112Y-112195344D01*
X179155095Y-112101327D01*
X179121610Y-112040004D01*
X179126594Y-111970312D01*
X179155095Y-111925964D01*
X179248717Y-111832342D01*
X179340756Y-111683124D01*
X179340758Y-111683119D01*
X179395905Y-111516697D01*
X179395906Y-111516690D01*
X179406399Y-111413986D01*
X179406400Y-111413973D01*
X179406400Y-111351500D01*
X178080400Y-111351500D01*
X178013361Y-111331815D01*
X177967606Y-111279011D01*
X177956400Y-111227500D01*
X177956400Y-110535800D01*
X177926719Y-110506119D01*
X177893234Y-110444796D01*
X177890400Y-110418438D01*
X177890400Y-109520800D01*
X178390400Y-109520800D01*
X178390400Y-110049000D01*
X178420081Y-110078681D01*
X178453566Y-110140004D01*
X178456400Y-110166362D01*
X178456400Y-110851500D01*
X179406399Y-110851500D01*
X179406399Y-110789028D01*
X179406398Y-110789013D01*
X179395905Y-110686302D01*
X179340758Y-110519880D01*
X179340756Y-110519875D01*
X179248715Y-110370654D01*
X179124744Y-110246683D01*
X179124740Y-110246680D01*
X179112858Y-110239351D01*
X179066133Y-110187403D01*
X179054912Y-110118440D01*
X179072423Y-110068706D01*
X179074756Y-110064924D01*
X179074758Y-110064919D01*
X179129905Y-109898497D01*
X179129906Y-109898490D01*
X179140399Y-109795786D01*
X179140400Y-109795773D01*
X179140400Y-109520800D01*
X178390400Y-109520800D01*
X177890400Y-109520800D01*
X177890400Y-109020800D01*
X178390400Y-109020800D01*
X179140399Y-109020800D01*
X179140399Y-108745828D01*
X179140398Y-108745813D01*
X179129905Y-108643102D01*
X179074758Y-108476680D01*
X179074756Y-108476675D01*
X178998132Y-108352448D01*
X178979692Y-108285055D01*
X179000615Y-108218392D01*
X179015992Y-108199668D01*
X179033516Y-108182144D01*
X179125556Y-108032924D01*
X179125558Y-108032919D01*
X179180705Y-107866497D01*
X179180706Y-107866490D01*
X179191199Y-107763786D01*
X179191200Y-107763773D01*
X179191200Y-107488800D01*
X178441200Y-107488800D01*
X178441200Y-108401638D01*
X178421515Y-108468677D01*
X178404881Y-108489319D01*
X178390400Y-108503800D01*
X178390400Y-109020800D01*
X177890400Y-109020800D01*
X177890400Y-108107961D01*
X177910085Y-108040922D01*
X177926720Y-108020279D01*
X177941199Y-108005799D01*
X177941200Y-106013800D01*
X178441200Y-106013800D01*
X178441200Y-106988800D01*
X179191199Y-106988800D01*
X179191199Y-106713828D01*
X179191198Y-106713813D01*
X179180705Y-106611102D01*
X179125558Y-106444680D01*
X179125556Y-106444675D01*
X179033515Y-106295454D01*
X178909545Y-106171484D01*
X178760324Y-106079443D01*
X178760319Y-106079441D01*
X178593897Y-106024294D01*
X178593890Y-106024293D01*
X178491186Y-106013800D01*
X178441200Y-106013800D01*
X177941200Y-106013800D01*
X177941199Y-106013799D01*
X177891229Y-106013800D01*
X177891211Y-106013801D01*
X177788502Y-106024294D01*
X177622080Y-106079441D01*
X177622075Y-106079443D01*
X177472854Y-106171484D01*
X177348883Y-106295455D01*
X177348879Y-106295460D01*
X177347026Y-106298465D01*
X177345218Y-106300090D01*
X177344402Y-106301123D01*
X177344225Y-106300983D01*
X177295074Y-106345185D01*
X177226111Y-106356401D01*
X177162031Y-106328552D01*
X177135953Y-106298453D01*
X177135937Y-106298428D01*
X177133912Y-106295144D01*
X177133908Y-106295140D01*
X177129434Y-106289481D01*
X177131494Y-106287851D01*
X177103873Y-106237267D01*
X177107108Y-106172591D01*
X177107468Y-106171484D01*
X177161674Y-106004656D01*
X177181460Y-105816400D01*
X177161674Y-105628144D01*
X177103179Y-105448116D01*
X177008533Y-105284184D01*
X176881871Y-105143512D01*
X176859385Y-105127175D01*
X176728734Y-105032251D01*
X176728729Y-105032248D01*
X176555807Y-104955257D01*
X176555802Y-104955255D01*
X176410000Y-104924265D01*
X176370646Y-104915900D01*
X176181354Y-104915900D01*
X176148897Y-104922798D01*
X175996197Y-104955255D01*
X175996192Y-104955257D01*
X175823270Y-105032248D01*
X175823265Y-105032251D01*
X175724932Y-105103695D01*
X175659126Y-105127175D01*
X175591072Y-105111349D01*
X175542377Y-105061244D01*
X175528047Y-105003377D01*
X175528047Y-104507200D01*
X175522900Y-104435239D01*
X175484683Y-104305084D01*
X175482354Y-104297149D01*
X175441660Y-104233828D01*
X175404543Y-104176072D01*
X175295773Y-104081823D01*
X175275153Y-104072406D01*
X175222350Y-104026650D01*
X175202666Y-103959610D01*
X175222352Y-103892571D01*
X175227064Y-103886347D01*
X175231135Y-103880450D01*
X175262900Y-103819927D01*
X175310190Y-103729825D01*
X175350900Y-103564656D01*
X175350900Y-103394544D01*
X175310190Y-103229375D01*
X175294256Y-103199016D01*
X175231136Y-103078750D01*
X175192451Y-103035084D01*
X175118329Y-102951417D01*
X175032742Y-102892340D01*
X174978331Y-102854782D01*
X174819274Y-102794460D01*
X174819268Y-102794459D01*
X174692774Y-102779100D01*
X174692772Y-102779100D01*
X174608028Y-102779100D01*
X174608026Y-102779100D01*
X174481531Y-102794459D01*
X174481525Y-102794460D01*
X174322468Y-102854782D01*
X174182470Y-102951417D01*
X174176396Y-102958274D01*
X174117206Y-102995399D01*
X174047340Y-102994631D01*
X173988981Y-102956212D01*
X173960657Y-102892340D01*
X173961852Y-102861651D01*
X173960594Y-102861519D01*
X173961272Y-102855059D01*
X173961274Y-102855056D01*
X173981060Y-102666800D01*
X173961274Y-102478544D01*
X173902779Y-102298516D01*
X173808133Y-102134584D01*
X173681471Y-101993912D01*
X173681470Y-101993911D01*
X173528334Y-101882651D01*
X173528329Y-101882648D01*
X173427552Y-101837779D01*
X173374315Y-101792529D01*
X173353994Y-101725680D01*
X173373040Y-101658456D01*
X173425406Y-101612201D01*
X173477988Y-101600500D01*
X180215500Y-101600500D01*
X180282539Y-101620185D01*
X180328294Y-101672989D01*
X180339500Y-101724500D01*
X180339500Y-124335500D01*
X180319815Y-124402539D01*
X180267011Y-124448294D01*
X180215500Y-124459500D01*
X160120401Y-124459500D01*
X160053362Y-124439815D01*
X160007607Y-124387011D01*
X159997663Y-124317853D01*
X160013014Y-124273500D01*
X160050801Y-124208049D01*
X160050800Y-124208049D01*
X160050804Y-124208044D01*
X160119544Y-124009433D01*
X160149454Y-123801402D01*
X160139454Y-123591470D01*
X160089904Y-123387224D01*
X160089901Y-123387217D01*
X160002601Y-123196056D01*
X160002598Y-123196051D01*
X160002597Y-123196050D01*
X160002596Y-123196047D01*
X159880686Y-123024848D01*
X159880684Y-123024846D01*
X159880679Y-123024840D01*
X159728579Y-122879814D01*
X159551774Y-122766188D01*
X159356655Y-122688074D01*
X159150286Y-122648300D01*
X159150285Y-122648300D01*
X157792775Y-122648300D01*
X157635982Y-122663272D01*
X157635978Y-122663273D01*
X157434327Y-122722483D01*
X157247513Y-122818791D01*
X157082316Y-122948705D01*
X157082312Y-122948709D01*
X156944678Y-123107546D01*
X156839598Y-123289550D01*
X156770856Y-123488165D01*
X156770856Y-123488167D01*
X156756004Y-123591470D01*
X156740946Y-123696201D01*
X156750945Y-123906127D01*
X156800496Y-124110378D01*
X156879782Y-124283988D01*
X156889726Y-124353147D01*
X156860701Y-124416703D01*
X156801923Y-124454477D01*
X156766988Y-124459500D01*
X150034524Y-124459500D01*
X149967485Y-124439815D01*
X149921730Y-124387011D01*
X149910524Y-124335776D01*
X149894036Y-116916217D01*
X154963335Y-116916217D01*
X155197603Y-117120893D01*
X155197620Y-117120906D01*
X155560934Y-117384870D01*
X155946470Y-117615217D01*
X155946485Y-117615225D01*
X156351076Y-117810065D01*
X156351092Y-117810071D01*
X156771552Y-117967873D01*
X156771568Y-117967879D01*
X157204466Y-118087351D01*
X157646350Y-118167541D01*
X158093653Y-118207799D01*
X158093657Y-118207800D01*
X158542743Y-118207800D01*
X158542746Y-118207799D01*
X158990049Y-118167541D01*
X159431933Y-118087351D01*
X159864831Y-117967879D01*
X159864847Y-117967873D01*
X160285307Y-117810071D01*
X160285323Y-117810065D01*
X160689914Y-117615225D01*
X160689929Y-117615217D01*
X161075465Y-117384870D01*
X161438779Y-117120906D01*
X161438809Y-117120882D01*
X161673063Y-116916218D01*
X161673063Y-116916217D01*
X158318200Y-113561353D01*
X154963335Y-116916217D01*
X149894036Y-116916217D01*
X149885795Y-113207803D01*
X153313160Y-113207803D01*
X153333308Y-113656438D01*
X153333309Y-113656447D01*
X153393593Y-114101486D01*
X153493525Y-114539319D01*
X153632306Y-114966442D01*
X153632309Y-114966450D01*
X153808809Y-115379394D01*
X153808813Y-115379402D01*
X154021633Y-115774887D01*
X154021633Y-115774888D01*
X154269033Y-116149683D01*
X154269034Y-116149684D01*
X154549046Y-116500808D01*
X154549057Y-116500821D01*
X154608965Y-116563480D01*
X157964646Y-113207800D01*
X158671753Y-113207800D01*
X162027433Y-116563480D01*
X162087351Y-116500811D01*
X162087354Y-116500808D01*
X162367365Y-116149684D01*
X162367366Y-116149683D01*
X162614766Y-115774888D01*
X162614766Y-115774887D01*
X162827586Y-115379402D01*
X162827590Y-115379394D01*
X163004090Y-114966450D01*
X163004093Y-114966442D01*
X163142874Y-114539319D01*
X163242806Y-114101486D01*
X163303090Y-113656447D01*
X163303091Y-113656438D01*
X163323240Y-113207803D01*
X163323240Y-113207796D01*
X163303091Y-112759161D01*
X163303090Y-112759152D01*
X163242806Y-112314113D01*
X163142874Y-111876280D01*
X163004093Y-111449157D01*
X163004090Y-111449149D01*
X162827590Y-111036205D01*
X162827586Y-111036197D01*
X162614766Y-110640712D01*
X162614766Y-110640711D01*
X162367366Y-110265916D01*
X162367365Y-110265915D01*
X162087353Y-109914791D01*
X162087342Y-109914778D01*
X162027433Y-109852118D01*
X158671753Y-113207799D01*
X158671753Y-113207800D01*
X157964646Y-113207800D01*
X157964646Y-113207799D01*
X154608966Y-109852119D01*
X154608965Y-109852119D01*
X154549046Y-109914790D01*
X154269034Y-110265915D01*
X154269033Y-110265916D01*
X154021633Y-110640711D01*
X154021633Y-110640712D01*
X153808813Y-111036197D01*
X153808809Y-111036205D01*
X153632309Y-111449149D01*
X153632306Y-111449157D01*
X153493525Y-111876280D01*
X153393593Y-112314113D01*
X153333309Y-112759152D01*
X153333308Y-112759161D01*
X153313160Y-113207796D01*
X153313160Y-113207803D01*
X149885795Y-113207803D01*
X149877554Y-109499381D01*
X154963335Y-109499381D01*
X158318199Y-112854245D01*
X161673063Y-109499381D01*
X161438796Y-109294706D01*
X161438779Y-109294693D01*
X161075465Y-109030729D01*
X160689929Y-108800382D01*
X160689914Y-108800374D01*
X160285323Y-108605534D01*
X160285307Y-108605528D01*
X159864847Y-108447726D01*
X159864831Y-108447720D01*
X159431933Y-108328248D01*
X158990049Y-108248058D01*
X158542746Y-108207800D01*
X158093653Y-108207800D01*
X157646350Y-108248058D01*
X157204466Y-108328248D01*
X156771568Y-108447720D01*
X156771552Y-108447726D01*
X156351092Y-108605528D01*
X156351076Y-108605534D01*
X155946485Y-108800374D01*
X155946470Y-108800382D01*
X155560934Y-109030729D01*
X155197620Y-109294693D01*
X155197603Y-109294706D01*
X154963335Y-109499381D01*
X149877554Y-109499381D01*
X149860500Y-101824862D01*
X149860500Y-101724500D01*
X149880185Y-101657461D01*
X149932989Y-101611706D01*
X149984500Y-101600500D01*
X157062550Y-101600500D01*
X157129589Y-101620185D01*
G37*
%TD.AperFunction*%
%TD*%
M02*
