%TF.GenerationSoftware,KiCad,Pcbnew,7.0.5*%
%TF.CreationDate,2023-06-29T16:53:02-03:00*%
%TF.ProjectId,HallCoinDetector,48616c6c-436f-4696-9e44-65746563746f,rev?*%
%TF.SameCoordinates,Original*%
%TF.FileFunction,Legend,Bot*%
%TF.FilePolarity,Positive*%
%FSLAX46Y46*%
G04 Gerber Fmt 4.6, Leading zero omitted, Abs format (unit mm)*
G04 Created by KiCad (PCBNEW 7.0.5) date 2023-06-29 16:53:02*
%MOMM*%
%LPD*%
G01*
G04 APERTURE LIST*
%ADD10C,0.150000*%
%ADD11C,0.120000*%
G04 APERTURE END LIST*
D10*
%TO.C,D2*%
X167712819Y-120572305D02*
X166712819Y-120572305D01*
X166712819Y-120572305D02*
X166712819Y-120810400D01*
X166712819Y-120810400D02*
X166760438Y-120953257D01*
X166760438Y-120953257D02*
X166855676Y-121048495D01*
X166855676Y-121048495D02*
X166950914Y-121096114D01*
X166950914Y-121096114D02*
X167141390Y-121143733D01*
X167141390Y-121143733D02*
X167284247Y-121143733D01*
X167284247Y-121143733D02*
X167474723Y-121096114D01*
X167474723Y-121096114D02*
X167569961Y-121048495D01*
X167569961Y-121048495D02*
X167665200Y-120953257D01*
X167665200Y-120953257D02*
X167712819Y-120810400D01*
X167712819Y-120810400D02*
X167712819Y-120572305D01*
X166808057Y-121524686D02*
X166760438Y-121572305D01*
X166760438Y-121572305D02*
X166712819Y-121667543D01*
X166712819Y-121667543D02*
X166712819Y-121905638D01*
X166712819Y-121905638D02*
X166760438Y-122000876D01*
X166760438Y-122000876D02*
X166808057Y-122048495D01*
X166808057Y-122048495D02*
X166903295Y-122096114D01*
X166903295Y-122096114D02*
X166998533Y-122096114D01*
X166998533Y-122096114D02*
X167141390Y-122048495D01*
X167141390Y-122048495D02*
X167712819Y-121477067D01*
X167712819Y-121477067D02*
X167712819Y-122096114D01*
%TO.C,D1*%
X161750994Y-120267619D02*
X161750994Y-119267619D01*
X161750994Y-119267619D02*
X161512899Y-119267619D01*
X161512899Y-119267619D02*
X161370042Y-119315238D01*
X161370042Y-119315238D02*
X161274804Y-119410476D01*
X161274804Y-119410476D02*
X161227185Y-119505714D01*
X161227185Y-119505714D02*
X161179566Y-119696190D01*
X161179566Y-119696190D02*
X161179566Y-119839047D01*
X161179566Y-119839047D02*
X161227185Y-120029523D01*
X161227185Y-120029523D02*
X161274804Y-120124761D01*
X161274804Y-120124761D02*
X161370042Y-120220000D01*
X161370042Y-120220000D02*
X161512899Y-120267619D01*
X161512899Y-120267619D02*
X161750994Y-120267619D01*
X160227185Y-120267619D02*
X160798613Y-120267619D01*
X160512899Y-120267619D02*
X160512899Y-119267619D01*
X160512899Y-119267619D02*
X160608137Y-119410476D01*
X160608137Y-119410476D02*
X160703375Y-119505714D01*
X160703375Y-119505714D02*
X160798613Y-119553333D01*
%TO.C,SW1*%
X174483732Y-107416800D02*
X174340875Y-107464419D01*
X174340875Y-107464419D02*
X174102780Y-107464419D01*
X174102780Y-107464419D02*
X174007542Y-107416800D01*
X174007542Y-107416800D02*
X173959923Y-107369180D01*
X173959923Y-107369180D02*
X173912304Y-107273942D01*
X173912304Y-107273942D02*
X173912304Y-107178704D01*
X173912304Y-107178704D02*
X173959923Y-107083466D01*
X173959923Y-107083466D02*
X174007542Y-107035847D01*
X174007542Y-107035847D02*
X174102780Y-106988228D01*
X174102780Y-106988228D02*
X174293256Y-106940609D01*
X174293256Y-106940609D02*
X174388494Y-106892990D01*
X174388494Y-106892990D02*
X174436113Y-106845371D01*
X174436113Y-106845371D02*
X174483732Y-106750133D01*
X174483732Y-106750133D02*
X174483732Y-106654895D01*
X174483732Y-106654895D02*
X174436113Y-106559657D01*
X174436113Y-106559657D02*
X174388494Y-106512038D01*
X174388494Y-106512038D02*
X174293256Y-106464419D01*
X174293256Y-106464419D02*
X174055161Y-106464419D01*
X174055161Y-106464419D02*
X173912304Y-106512038D01*
X173578970Y-106464419D02*
X173340875Y-107464419D01*
X173340875Y-107464419D02*
X173150399Y-106750133D01*
X173150399Y-106750133D02*
X172959923Y-107464419D01*
X172959923Y-107464419D02*
X172721828Y-106464419D01*
X171817066Y-107464419D02*
X172388494Y-107464419D01*
X172102780Y-107464419D02*
X172102780Y-106464419D01*
X172102780Y-106464419D02*
X172198018Y-106607276D01*
X172198018Y-106607276D02*
X172293256Y-106702514D01*
X172293256Y-106702514D02*
X172388494Y-106750133D01*
%TO.C,R13*%
X165782419Y-120667542D02*
X165306228Y-120334209D01*
X165782419Y-120096114D02*
X164782419Y-120096114D01*
X164782419Y-120096114D02*
X164782419Y-120477066D01*
X164782419Y-120477066D02*
X164830038Y-120572304D01*
X164830038Y-120572304D02*
X164877657Y-120619923D01*
X164877657Y-120619923D02*
X164972895Y-120667542D01*
X164972895Y-120667542D02*
X165115752Y-120667542D01*
X165115752Y-120667542D02*
X165210990Y-120619923D01*
X165210990Y-120619923D02*
X165258609Y-120572304D01*
X165258609Y-120572304D02*
X165306228Y-120477066D01*
X165306228Y-120477066D02*
X165306228Y-120096114D01*
X165782419Y-121619923D02*
X165782419Y-121048495D01*
X165782419Y-121334209D02*
X164782419Y-121334209D01*
X164782419Y-121334209D02*
X164925276Y-121238971D01*
X164925276Y-121238971D02*
X165020514Y-121143733D01*
X165020514Y-121143733D02*
X165068133Y-121048495D01*
X164782419Y-121953257D02*
X164782419Y-122572304D01*
X164782419Y-122572304D02*
X165163371Y-122238971D01*
X165163371Y-122238971D02*
X165163371Y-122381828D01*
X165163371Y-122381828D02*
X165210990Y-122477066D01*
X165210990Y-122477066D02*
X165258609Y-122524685D01*
X165258609Y-122524685D02*
X165353847Y-122572304D01*
X165353847Y-122572304D02*
X165591942Y-122572304D01*
X165591942Y-122572304D02*
X165687180Y-122524685D01*
X165687180Y-122524685D02*
X165734800Y-122477066D01*
X165734800Y-122477066D02*
X165782419Y-122381828D01*
X165782419Y-122381828D02*
X165782419Y-122096114D01*
X165782419Y-122096114D02*
X165734800Y-122000876D01*
X165734800Y-122000876D02*
X165687180Y-121953257D01*
%TO.C,R8*%
X169992966Y-108024819D02*
X170326299Y-107548628D01*
X170564394Y-108024819D02*
X170564394Y-107024819D01*
X170564394Y-107024819D02*
X170183442Y-107024819D01*
X170183442Y-107024819D02*
X170088204Y-107072438D01*
X170088204Y-107072438D02*
X170040585Y-107120057D01*
X170040585Y-107120057D02*
X169992966Y-107215295D01*
X169992966Y-107215295D02*
X169992966Y-107358152D01*
X169992966Y-107358152D02*
X170040585Y-107453390D01*
X170040585Y-107453390D02*
X170088204Y-107501009D01*
X170088204Y-107501009D02*
X170183442Y-107548628D01*
X170183442Y-107548628D02*
X170564394Y-107548628D01*
X169421537Y-107453390D02*
X169516775Y-107405771D01*
X169516775Y-107405771D02*
X169564394Y-107358152D01*
X169564394Y-107358152D02*
X169612013Y-107262914D01*
X169612013Y-107262914D02*
X169612013Y-107215295D01*
X169612013Y-107215295D02*
X169564394Y-107120057D01*
X169564394Y-107120057D02*
X169516775Y-107072438D01*
X169516775Y-107072438D02*
X169421537Y-107024819D01*
X169421537Y-107024819D02*
X169231061Y-107024819D01*
X169231061Y-107024819D02*
X169135823Y-107072438D01*
X169135823Y-107072438D02*
X169088204Y-107120057D01*
X169088204Y-107120057D02*
X169040585Y-107215295D01*
X169040585Y-107215295D02*
X169040585Y-107262914D01*
X169040585Y-107262914D02*
X169088204Y-107358152D01*
X169088204Y-107358152D02*
X169135823Y-107405771D01*
X169135823Y-107405771D02*
X169231061Y-107453390D01*
X169231061Y-107453390D02*
X169421537Y-107453390D01*
X169421537Y-107453390D02*
X169516775Y-107501009D01*
X169516775Y-107501009D02*
X169564394Y-107548628D01*
X169564394Y-107548628D02*
X169612013Y-107643866D01*
X169612013Y-107643866D02*
X169612013Y-107834342D01*
X169612013Y-107834342D02*
X169564394Y-107929580D01*
X169564394Y-107929580D02*
X169516775Y-107977200D01*
X169516775Y-107977200D02*
X169421537Y-108024819D01*
X169421537Y-108024819D02*
X169231061Y-108024819D01*
X169231061Y-108024819D02*
X169135823Y-107977200D01*
X169135823Y-107977200D02*
X169088204Y-107929580D01*
X169088204Y-107929580D02*
X169040585Y-107834342D01*
X169040585Y-107834342D02*
X169040585Y-107643866D01*
X169040585Y-107643866D02*
X169088204Y-107548628D01*
X169088204Y-107548628D02*
X169135823Y-107501009D01*
X169135823Y-107501009D02*
X169231061Y-107453390D01*
%TO.C,R6*%
X158367619Y-106818133D02*
X157891428Y-106484800D01*
X158367619Y-106246705D02*
X157367619Y-106246705D01*
X157367619Y-106246705D02*
X157367619Y-106627657D01*
X157367619Y-106627657D02*
X157415238Y-106722895D01*
X157415238Y-106722895D02*
X157462857Y-106770514D01*
X157462857Y-106770514D02*
X157558095Y-106818133D01*
X157558095Y-106818133D02*
X157700952Y-106818133D01*
X157700952Y-106818133D02*
X157796190Y-106770514D01*
X157796190Y-106770514D02*
X157843809Y-106722895D01*
X157843809Y-106722895D02*
X157891428Y-106627657D01*
X157891428Y-106627657D02*
X157891428Y-106246705D01*
X157367619Y-107675276D02*
X157367619Y-107484800D01*
X157367619Y-107484800D02*
X157415238Y-107389562D01*
X157415238Y-107389562D02*
X157462857Y-107341943D01*
X157462857Y-107341943D02*
X157605714Y-107246705D01*
X157605714Y-107246705D02*
X157796190Y-107199086D01*
X157796190Y-107199086D02*
X158177142Y-107199086D01*
X158177142Y-107199086D02*
X158272380Y-107246705D01*
X158272380Y-107246705D02*
X158320000Y-107294324D01*
X158320000Y-107294324D02*
X158367619Y-107389562D01*
X158367619Y-107389562D02*
X158367619Y-107580038D01*
X158367619Y-107580038D02*
X158320000Y-107675276D01*
X158320000Y-107675276D02*
X158272380Y-107722895D01*
X158272380Y-107722895D02*
X158177142Y-107770514D01*
X158177142Y-107770514D02*
X157939047Y-107770514D01*
X157939047Y-107770514D02*
X157843809Y-107722895D01*
X157843809Y-107722895D02*
X157796190Y-107675276D01*
X157796190Y-107675276D02*
X157748571Y-107580038D01*
X157748571Y-107580038D02*
X157748571Y-107389562D01*
X157748571Y-107389562D02*
X157796190Y-107294324D01*
X157796190Y-107294324D02*
X157843809Y-107246705D01*
X157843809Y-107246705D02*
X157939047Y-107199086D01*
%TO.C,R10*%
X159140757Y-114120819D02*
X159474090Y-113644628D01*
X159712185Y-114120819D02*
X159712185Y-113120819D01*
X159712185Y-113120819D02*
X159331233Y-113120819D01*
X159331233Y-113120819D02*
X159235995Y-113168438D01*
X159235995Y-113168438D02*
X159188376Y-113216057D01*
X159188376Y-113216057D02*
X159140757Y-113311295D01*
X159140757Y-113311295D02*
X159140757Y-113454152D01*
X159140757Y-113454152D02*
X159188376Y-113549390D01*
X159188376Y-113549390D02*
X159235995Y-113597009D01*
X159235995Y-113597009D02*
X159331233Y-113644628D01*
X159331233Y-113644628D02*
X159712185Y-113644628D01*
X158188376Y-114120819D02*
X158759804Y-114120819D01*
X158474090Y-114120819D02*
X158474090Y-113120819D01*
X158474090Y-113120819D02*
X158569328Y-113263676D01*
X158569328Y-113263676D02*
X158664566Y-113358914D01*
X158664566Y-113358914D02*
X158759804Y-113406533D01*
X157569328Y-113120819D02*
X157474090Y-113120819D01*
X157474090Y-113120819D02*
X157378852Y-113168438D01*
X157378852Y-113168438D02*
X157331233Y-113216057D01*
X157331233Y-113216057D02*
X157283614Y-113311295D01*
X157283614Y-113311295D02*
X157235995Y-113501771D01*
X157235995Y-113501771D02*
X157235995Y-113739866D01*
X157235995Y-113739866D02*
X157283614Y-113930342D01*
X157283614Y-113930342D02*
X157331233Y-114025580D01*
X157331233Y-114025580D02*
X157378852Y-114073200D01*
X157378852Y-114073200D02*
X157474090Y-114120819D01*
X157474090Y-114120819D02*
X157569328Y-114120819D01*
X157569328Y-114120819D02*
X157664566Y-114073200D01*
X157664566Y-114073200D02*
X157712185Y-114025580D01*
X157712185Y-114025580D02*
X157759804Y-113930342D01*
X157759804Y-113930342D02*
X157807423Y-113739866D01*
X157807423Y-113739866D02*
X157807423Y-113501771D01*
X157807423Y-113501771D02*
X157759804Y-113311295D01*
X157759804Y-113311295D02*
X157712185Y-113216057D01*
X157712185Y-113216057D02*
X157664566Y-113168438D01*
X157664566Y-113168438D02*
X157569328Y-113120819D01*
%TO.C,R5*%
X159635619Y-108596133D02*
X159159428Y-108262800D01*
X159635619Y-108024705D02*
X158635619Y-108024705D01*
X158635619Y-108024705D02*
X158635619Y-108405657D01*
X158635619Y-108405657D02*
X158683238Y-108500895D01*
X158683238Y-108500895D02*
X158730857Y-108548514D01*
X158730857Y-108548514D02*
X158826095Y-108596133D01*
X158826095Y-108596133D02*
X158968952Y-108596133D01*
X158968952Y-108596133D02*
X159064190Y-108548514D01*
X159064190Y-108548514D02*
X159111809Y-108500895D01*
X159111809Y-108500895D02*
X159159428Y-108405657D01*
X159159428Y-108405657D02*
X159159428Y-108024705D01*
X158635619Y-109500895D02*
X158635619Y-109024705D01*
X158635619Y-109024705D02*
X159111809Y-108977086D01*
X159111809Y-108977086D02*
X159064190Y-109024705D01*
X159064190Y-109024705D02*
X159016571Y-109119943D01*
X159016571Y-109119943D02*
X159016571Y-109358038D01*
X159016571Y-109358038D02*
X159064190Y-109453276D01*
X159064190Y-109453276D02*
X159111809Y-109500895D01*
X159111809Y-109500895D02*
X159207047Y-109548514D01*
X159207047Y-109548514D02*
X159445142Y-109548514D01*
X159445142Y-109548514D02*
X159540380Y-109500895D01*
X159540380Y-109500895D02*
X159588000Y-109453276D01*
X159588000Y-109453276D02*
X159635619Y-109358038D01*
X159635619Y-109358038D02*
X159635619Y-109119943D01*
X159635619Y-109119943D02*
X159588000Y-109024705D01*
X159588000Y-109024705D02*
X159540380Y-108977086D01*
%TO.C,r12*%
X168767309Y-115134819D02*
X168767309Y-114468152D01*
X168767309Y-114658628D02*
X168719690Y-114563390D01*
X168719690Y-114563390D02*
X168672071Y-114515771D01*
X168672071Y-114515771D02*
X168576833Y-114468152D01*
X168576833Y-114468152D02*
X168481595Y-114468152D01*
X167624452Y-115134819D02*
X168195880Y-115134819D01*
X167910166Y-115134819D02*
X167910166Y-114134819D01*
X167910166Y-114134819D02*
X168005404Y-114277676D01*
X168005404Y-114277676D02*
X168100642Y-114372914D01*
X168100642Y-114372914D02*
X168195880Y-114420533D01*
X167243499Y-114230057D02*
X167195880Y-114182438D01*
X167195880Y-114182438D02*
X167100642Y-114134819D01*
X167100642Y-114134819D02*
X166862547Y-114134819D01*
X166862547Y-114134819D02*
X166767309Y-114182438D01*
X166767309Y-114182438D02*
X166719690Y-114230057D01*
X166719690Y-114230057D02*
X166672071Y-114325295D01*
X166672071Y-114325295D02*
X166672071Y-114420533D01*
X166672071Y-114420533D02*
X166719690Y-114563390D01*
X166719690Y-114563390D02*
X167291118Y-115134819D01*
X167291118Y-115134819D02*
X166672071Y-115134819D01*
%TO.C,U1*%
X165164904Y-112869419D02*
X165164904Y-113678942D01*
X165164904Y-113678942D02*
X165117285Y-113774180D01*
X165117285Y-113774180D02*
X165069666Y-113821800D01*
X165069666Y-113821800D02*
X164974428Y-113869419D01*
X164974428Y-113869419D02*
X164783952Y-113869419D01*
X164783952Y-113869419D02*
X164688714Y-113821800D01*
X164688714Y-113821800D02*
X164641095Y-113774180D01*
X164641095Y-113774180D02*
X164593476Y-113678942D01*
X164593476Y-113678942D02*
X164593476Y-112869419D01*
X163593476Y-113869419D02*
X164164904Y-113869419D01*
X163879190Y-113869419D02*
X163879190Y-112869419D01*
X163879190Y-112869419D02*
X163974428Y-113012276D01*
X163974428Y-113012276D02*
X164069666Y-113107514D01*
X164069666Y-113107514D02*
X164164904Y-113155133D01*
%TO.C,R9*%
X158613766Y-112190419D02*
X158947099Y-111714228D01*
X159185194Y-112190419D02*
X159185194Y-111190419D01*
X159185194Y-111190419D02*
X158804242Y-111190419D01*
X158804242Y-111190419D02*
X158709004Y-111238038D01*
X158709004Y-111238038D02*
X158661385Y-111285657D01*
X158661385Y-111285657D02*
X158613766Y-111380895D01*
X158613766Y-111380895D02*
X158613766Y-111523752D01*
X158613766Y-111523752D02*
X158661385Y-111618990D01*
X158661385Y-111618990D02*
X158709004Y-111666609D01*
X158709004Y-111666609D02*
X158804242Y-111714228D01*
X158804242Y-111714228D02*
X159185194Y-111714228D01*
X158137575Y-112190419D02*
X157947099Y-112190419D01*
X157947099Y-112190419D02*
X157851861Y-112142800D01*
X157851861Y-112142800D02*
X157804242Y-112095180D01*
X157804242Y-112095180D02*
X157709004Y-111952323D01*
X157709004Y-111952323D02*
X157661385Y-111761847D01*
X157661385Y-111761847D02*
X157661385Y-111380895D01*
X157661385Y-111380895D02*
X157709004Y-111285657D01*
X157709004Y-111285657D02*
X157756623Y-111238038D01*
X157756623Y-111238038D02*
X157851861Y-111190419D01*
X157851861Y-111190419D02*
X158042337Y-111190419D01*
X158042337Y-111190419D02*
X158137575Y-111238038D01*
X158137575Y-111238038D02*
X158185194Y-111285657D01*
X158185194Y-111285657D02*
X158232813Y-111380895D01*
X158232813Y-111380895D02*
X158232813Y-111618990D01*
X158232813Y-111618990D02*
X158185194Y-111714228D01*
X158185194Y-111714228D02*
X158137575Y-111761847D01*
X158137575Y-111761847D02*
X158042337Y-111809466D01*
X158042337Y-111809466D02*
X157851861Y-111809466D01*
X157851861Y-111809466D02*
X157756623Y-111761847D01*
X157756623Y-111761847D02*
X157709004Y-111714228D01*
X157709004Y-111714228D02*
X157661385Y-111618990D01*
%TO.C,C5*%
X158677866Y-116230780D02*
X158725485Y-116278400D01*
X158725485Y-116278400D02*
X158868342Y-116326019D01*
X158868342Y-116326019D02*
X158963580Y-116326019D01*
X158963580Y-116326019D02*
X159106437Y-116278400D01*
X159106437Y-116278400D02*
X159201675Y-116183161D01*
X159201675Y-116183161D02*
X159249294Y-116087923D01*
X159249294Y-116087923D02*
X159296913Y-115897447D01*
X159296913Y-115897447D02*
X159296913Y-115754590D01*
X159296913Y-115754590D02*
X159249294Y-115564114D01*
X159249294Y-115564114D02*
X159201675Y-115468876D01*
X159201675Y-115468876D02*
X159106437Y-115373638D01*
X159106437Y-115373638D02*
X158963580Y-115326019D01*
X158963580Y-115326019D02*
X158868342Y-115326019D01*
X158868342Y-115326019D02*
X158725485Y-115373638D01*
X158725485Y-115373638D02*
X158677866Y-115421257D01*
X157773104Y-115326019D02*
X158249294Y-115326019D01*
X158249294Y-115326019D02*
X158296913Y-115802209D01*
X158296913Y-115802209D02*
X158249294Y-115754590D01*
X158249294Y-115754590D02*
X158154056Y-115706971D01*
X158154056Y-115706971D02*
X157915961Y-115706971D01*
X157915961Y-115706971D02*
X157820723Y-115754590D01*
X157820723Y-115754590D02*
X157773104Y-115802209D01*
X157773104Y-115802209D02*
X157725485Y-115897447D01*
X157725485Y-115897447D02*
X157725485Y-116135542D01*
X157725485Y-116135542D02*
X157773104Y-116230780D01*
X157773104Y-116230780D02*
X157820723Y-116278400D01*
X157820723Y-116278400D02*
X157915961Y-116326019D01*
X157915961Y-116326019D02*
X158154056Y-116326019D01*
X158154056Y-116326019D02*
X158249294Y-116278400D01*
X158249294Y-116278400D02*
X158296913Y-116230780D01*
%TO.C,U3*%
X175082819Y-110286895D02*
X175892342Y-110286895D01*
X175892342Y-110286895D02*
X175987580Y-110334514D01*
X175987580Y-110334514D02*
X176035200Y-110382133D01*
X176035200Y-110382133D02*
X176082819Y-110477371D01*
X176082819Y-110477371D02*
X176082819Y-110667847D01*
X176082819Y-110667847D02*
X176035200Y-110763085D01*
X176035200Y-110763085D02*
X175987580Y-110810704D01*
X175987580Y-110810704D02*
X175892342Y-110858323D01*
X175892342Y-110858323D02*
X175082819Y-110858323D01*
X175082819Y-111239276D02*
X175082819Y-111858323D01*
X175082819Y-111858323D02*
X175463771Y-111524990D01*
X175463771Y-111524990D02*
X175463771Y-111667847D01*
X175463771Y-111667847D02*
X175511390Y-111763085D01*
X175511390Y-111763085D02*
X175559009Y-111810704D01*
X175559009Y-111810704D02*
X175654247Y-111858323D01*
X175654247Y-111858323D02*
X175892342Y-111858323D01*
X175892342Y-111858323D02*
X175987580Y-111810704D01*
X175987580Y-111810704D02*
X176035200Y-111763085D01*
X176035200Y-111763085D02*
X176082819Y-111667847D01*
X176082819Y-111667847D02*
X176082819Y-111382133D01*
X176082819Y-111382133D02*
X176035200Y-111286895D01*
X176035200Y-111286895D02*
X175987580Y-111239276D01*
%TO.C,C4*%
X158497266Y-118309580D02*
X158544885Y-118357200D01*
X158544885Y-118357200D02*
X158687742Y-118404819D01*
X158687742Y-118404819D02*
X158782980Y-118404819D01*
X158782980Y-118404819D02*
X158925837Y-118357200D01*
X158925837Y-118357200D02*
X159021075Y-118261961D01*
X159021075Y-118261961D02*
X159068694Y-118166723D01*
X159068694Y-118166723D02*
X159116313Y-117976247D01*
X159116313Y-117976247D02*
X159116313Y-117833390D01*
X159116313Y-117833390D02*
X159068694Y-117642914D01*
X159068694Y-117642914D02*
X159021075Y-117547676D01*
X159021075Y-117547676D02*
X158925837Y-117452438D01*
X158925837Y-117452438D02*
X158782980Y-117404819D01*
X158782980Y-117404819D02*
X158687742Y-117404819D01*
X158687742Y-117404819D02*
X158544885Y-117452438D01*
X158544885Y-117452438D02*
X158497266Y-117500057D01*
X157640123Y-117738152D02*
X157640123Y-118404819D01*
X157878218Y-117357200D02*
X158116313Y-118071485D01*
X158116313Y-118071485D02*
X157497266Y-118071485D01*
%TO.C,R7*%
X169991066Y-109394419D02*
X170324399Y-108918228D01*
X170562494Y-109394419D02*
X170562494Y-108394419D01*
X170562494Y-108394419D02*
X170181542Y-108394419D01*
X170181542Y-108394419D02*
X170086304Y-108442038D01*
X170086304Y-108442038D02*
X170038685Y-108489657D01*
X170038685Y-108489657D02*
X169991066Y-108584895D01*
X169991066Y-108584895D02*
X169991066Y-108727752D01*
X169991066Y-108727752D02*
X170038685Y-108822990D01*
X170038685Y-108822990D02*
X170086304Y-108870609D01*
X170086304Y-108870609D02*
X170181542Y-108918228D01*
X170181542Y-108918228D02*
X170562494Y-108918228D01*
X169657732Y-108394419D02*
X168991066Y-108394419D01*
X168991066Y-108394419D02*
X169419637Y-109394419D01*
%TO.C,D3*%
X177064894Y-112856419D02*
X177064894Y-111856419D01*
X177064894Y-111856419D02*
X176826799Y-111856419D01*
X176826799Y-111856419D02*
X176683942Y-111904038D01*
X176683942Y-111904038D02*
X176588704Y-111999276D01*
X176588704Y-111999276D02*
X176541085Y-112094514D01*
X176541085Y-112094514D02*
X176493466Y-112284990D01*
X176493466Y-112284990D02*
X176493466Y-112427847D01*
X176493466Y-112427847D02*
X176541085Y-112618323D01*
X176541085Y-112618323D02*
X176588704Y-112713561D01*
X176588704Y-112713561D02*
X176683942Y-112808800D01*
X176683942Y-112808800D02*
X176826799Y-112856419D01*
X176826799Y-112856419D02*
X177064894Y-112856419D01*
X176160132Y-111856419D02*
X175541085Y-111856419D01*
X175541085Y-111856419D02*
X175874418Y-112237371D01*
X175874418Y-112237371D02*
X175731561Y-112237371D01*
X175731561Y-112237371D02*
X175636323Y-112284990D01*
X175636323Y-112284990D02*
X175588704Y-112332609D01*
X175588704Y-112332609D02*
X175541085Y-112427847D01*
X175541085Y-112427847D02*
X175541085Y-112665942D01*
X175541085Y-112665942D02*
X175588704Y-112761180D01*
X175588704Y-112761180D02*
X175636323Y-112808800D01*
X175636323Y-112808800D02*
X175731561Y-112856419D01*
X175731561Y-112856419D02*
X176017275Y-112856419D01*
X176017275Y-112856419D02*
X176112513Y-112808800D01*
X176112513Y-112808800D02*
X176160132Y-112761180D01*
%TO.C,R4*%
X168932019Y-104381633D02*
X168455828Y-104048300D01*
X168932019Y-103810205D02*
X167932019Y-103810205D01*
X167932019Y-103810205D02*
X167932019Y-104191157D01*
X167932019Y-104191157D02*
X167979638Y-104286395D01*
X167979638Y-104286395D02*
X168027257Y-104334014D01*
X168027257Y-104334014D02*
X168122495Y-104381633D01*
X168122495Y-104381633D02*
X168265352Y-104381633D01*
X168265352Y-104381633D02*
X168360590Y-104334014D01*
X168360590Y-104334014D02*
X168408209Y-104286395D01*
X168408209Y-104286395D02*
X168455828Y-104191157D01*
X168455828Y-104191157D02*
X168455828Y-103810205D01*
X168265352Y-105238776D02*
X168932019Y-105238776D01*
X167884400Y-105000681D02*
X168598685Y-104762586D01*
X168598685Y-104762586D02*
X168598685Y-105381633D01*
%TO.C,R11*%
X159089957Y-113560019D02*
X159423290Y-113083828D01*
X159661385Y-113560019D02*
X159661385Y-112560019D01*
X159661385Y-112560019D02*
X159280433Y-112560019D01*
X159280433Y-112560019D02*
X159185195Y-112607638D01*
X159185195Y-112607638D02*
X159137576Y-112655257D01*
X159137576Y-112655257D02*
X159089957Y-112750495D01*
X159089957Y-112750495D02*
X159089957Y-112893352D01*
X159089957Y-112893352D02*
X159137576Y-112988590D01*
X159137576Y-112988590D02*
X159185195Y-113036209D01*
X159185195Y-113036209D02*
X159280433Y-113083828D01*
X159280433Y-113083828D02*
X159661385Y-113083828D01*
X158137576Y-113560019D02*
X158709004Y-113560019D01*
X158423290Y-113560019D02*
X158423290Y-112560019D01*
X158423290Y-112560019D02*
X158518528Y-112702876D01*
X158518528Y-112702876D02*
X158613766Y-112798114D01*
X158613766Y-112798114D02*
X158709004Y-112845733D01*
X157185195Y-113560019D02*
X157756623Y-113560019D01*
X157470909Y-113560019D02*
X157470909Y-112560019D01*
X157470909Y-112560019D02*
X157566147Y-112702876D01*
X157566147Y-112702876D02*
X157661385Y-112798114D01*
X157661385Y-112798114D02*
X157756623Y-112845733D01*
%TO.C,R3*%
X164250666Y-107616419D02*
X164583999Y-107140228D01*
X164822094Y-107616419D02*
X164822094Y-106616419D01*
X164822094Y-106616419D02*
X164441142Y-106616419D01*
X164441142Y-106616419D02*
X164345904Y-106664038D01*
X164345904Y-106664038D02*
X164298285Y-106711657D01*
X164298285Y-106711657D02*
X164250666Y-106806895D01*
X164250666Y-106806895D02*
X164250666Y-106949752D01*
X164250666Y-106949752D02*
X164298285Y-107044990D01*
X164298285Y-107044990D02*
X164345904Y-107092609D01*
X164345904Y-107092609D02*
X164441142Y-107140228D01*
X164441142Y-107140228D02*
X164822094Y-107140228D01*
X163917332Y-106616419D02*
X163298285Y-106616419D01*
X163298285Y-106616419D02*
X163631618Y-106997371D01*
X163631618Y-106997371D02*
X163488761Y-106997371D01*
X163488761Y-106997371D02*
X163393523Y-107044990D01*
X163393523Y-107044990D02*
X163345904Y-107092609D01*
X163345904Y-107092609D02*
X163298285Y-107187847D01*
X163298285Y-107187847D02*
X163298285Y-107425942D01*
X163298285Y-107425942D02*
X163345904Y-107521180D01*
X163345904Y-107521180D02*
X163393523Y-107568800D01*
X163393523Y-107568800D02*
X163488761Y-107616419D01*
X163488761Y-107616419D02*
X163774475Y-107616419D01*
X163774475Y-107616419D02*
X163869713Y-107568800D01*
X163869713Y-107568800D02*
X163917332Y-107521180D01*
%TO.C,U4*%
X165114104Y-112049419D02*
X165114104Y-112858942D01*
X165114104Y-112858942D02*
X165066485Y-112954180D01*
X165066485Y-112954180D02*
X165018866Y-113001800D01*
X165018866Y-113001800D02*
X164923628Y-113049419D01*
X164923628Y-113049419D02*
X164733152Y-113049419D01*
X164733152Y-113049419D02*
X164637914Y-113001800D01*
X164637914Y-113001800D02*
X164590295Y-112954180D01*
X164590295Y-112954180D02*
X164542676Y-112858942D01*
X164542676Y-112858942D02*
X164542676Y-112049419D01*
X163637914Y-112382752D02*
X163637914Y-113049419D01*
X163876009Y-112001800D02*
X164114104Y-112716085D01*
X164114104Y-112716085D02*
X163495057Y-112716085D01*
D11*
%TO.C,D2*%
X166568000Y-120310400D02*
X166568000Y-122995400D01*
X166568000Y-122995400D02*
X164648000Y-122995400D01*
X164648000Y-122995400D02*
X164648000Y-120310400D01*
%TO.C,D1*%
X160012900Y-120502800D02*
X162697900Y-120502800D01*
X162697900Y-120502800D02*
X162697900Y-122422800D01*
X162697900Y-122422800D02*
X160012900Y-122422800D01*
%TO.C,SW1*%
X176600400Y-103089600D02*
X176600400Y-103879600D01*
X174550400Y-104929600D02*
X174750400Y-104929600D01*
X173050400Y-100789600D02*
X173050400Y-102079600D01*
X173050400Y-100789600D02*
X172850400Y-100579600D01*
X171950400Y-100579600D02*
X172850400Y-100579600D01*
X171750400Y-102079600D02*
X171750400Y-100789600D01*
X171750400Y-100789600D02*
X171950400Y-100579600D01*
X171550400Y-104929600D02*
X173250400Y-104929600D01*
X170300400Y-102079600D02*
X176000400Y-102079600D01*
X169700400Y-103879600D02*
X169700400Y-103089600D01*
%TO.C,R13*%
X164412600Y-121537464D02*
X164412600Y-121083336D01*
X162942600Y-121537464D02*
X162942600Y-121083336D01*
%TO.C,R8*%
X170053364Y-109955000D02*
X169599236Y-109955000D01*
X170053364Y-108485000D02*
X169599236Y-108485000D01*
%TO.C,R6*%
X160297800Y-106757736D02*
X160297800Y-107211864D01*
X158827800Y-106757736D02*
X158827800Y-107211864D01*
%TO.C,R10*%
X158724964Y-116051000D02*
X158270836Y-116051000D01*
X158724964Y-114581000D02*
X158270836Y-114581000D01*
%TO.C,R5*%
X156795800Y-108989864D02*
X156795800Y-108535736D01*
X158265800Y-108989864D02*
X158265800Y-108535736D01*
%TO.C,r12*%
X167516436Y-112295000D02*
X167970564Y-112295000D01*
X167516436Y-113765000D02*
X167970564Y-113765000D01*
%TO.C,U1*%
X164403000Y-119374600D02*
X166353000Y-119374600D01*
X164403000Y-119374600D02*
X162453000Y-119374600D01*
X164403000Y-114254600D02*
X167853000Y-114254600D01*
X164403000Y-114254600D02*
X162453000Y-114254600D01*
%TO.C,R9*%
X158674164Y-114120600D02*
X158220036Y-114120600D01*
X158674164Y-112650600D02*
X158220036Y-112650600D01*
%TO.C,C5*%
X158772452Y-118286200D02*
X158249948Y-118286200D01*
X158772452Y-116816200D02*
X158249948Y-116816200D01*
%TO.C,U3*%
X174788000Y-111048800D02*
X174788000Y-110248800D01*
X174788000Y-111048800D02*
X174788000Y-112848800D01*
X171668000Y-111048800D02*
X171668000Y-110248800D01*
X171668000Y-111048800D02*
X171668000Y-111848800D01*
%TO.C,C4*%
X158471180Y-119890000D02*
X158190020Y-119890000D01*
X158471180Y-118870000D02*
X158190020Y-118870000D01*
%TO.C,R7*%
X169597336Y-106554600D02*
X170051464Y-106554600D01*
X169597336Y-108024600D02*
X170051464Y-108024600D01*
%TO.C,D3*%
X178686800Y-113401600D02*
X174676800Y-113401600D01*
X178686800Y-113401600D02*
X178686800Y-115401600D01*
X178686800Y-115401600D02*
X174676800Y-115401600D01*
%TO.C,R4*%
X166092200Y-104775364D02*
X166092200Y-104321236D01*
X167562200Y-104775364D02*
X167562200Y-104321236D01*
%TO.C,R11*%
X158220036Y-112190200D02*
X158674164Y-112190200D01*
X158220036Y-110720200D02*
X158674164Y-110720200D01*
%TO.C,R3*%
X163856936Y-104776600D02*
X164311064Y-104776600D01*
X163856936Y-106246600D02*
X164311064Y-106246600D01*
%TO.C,U4*%
X164352200Y-111754600D02*
X166302200Y-111754600D01*
X164352200Y-111754600D02*
X160902200Y-111754600D01*
X164352200Y-106634600D02*
X166302200Y-106634600D01*
X164352200Y-106634600D02*
X162402200Y-106634600D01*
%TD*%
M02*
