M48
; DRILL file {KiCad 7.0.5} date Thu Jun 29 16:52:52 2023
; FORMAT={-:-/ absolute / inch / decimal}
; #@! TF.CreationDate,2023-06-29T16:52:52-03:00
; #@! TF.GenerationSoftware,Kicad,Pcbnew,7.0.5
; #@! TF.FileFunction,Plated,1,2,PTH
FMAT,2
INCH
; #@! TA.AperFunction,Plated,PTH,ViaDrill
T1C0.0157
; #@! TA.AperFunction,Plated,PTH,ComponentDrill
T2C0.0236
; #@! TA.AperFunction,Plated,PTH,ComponentDrill
T3C0.0256
%
G90
G05
T1
X5.998Y-4.108
X6.064Y-4.854
X6.146Y-4.204
X6.2Y-4.15
X6.202Y-4.752
X6.35Y-4.852
X6.424Y-4.092
X6.466Y-4.666
X6.482Y-4.45
X6.482Y-4.784
X6.484Y-4.286
X6.486Y-4.518
X6.636Y-4.164
X6.72Y-4.388
X6.738Y-4.538
X6.814Y-4.042
X6.852Y-4.49
X6.92Y-4.342
X6.94Y-4.166
T3
X6.604Y-4.7516
X6.604Y-4.8016
T2
G00X6.2616Y-4.042
M15
G01X6.2144Y-4.042
M16
G05
G00X6.2616Y-4.872
M15
G01X6.2144Y-4.872
M16
G05
T0
M30
