%TF.GenerationSoftware,KiCad,Pcbnew,7.0.5*%
%TF.CreationDate,2023-06-29T16:53:02-03:00*%
%TF.ProjectId,HallCoinDetector,48616c6c-436f-4696-9e44-65746563746f,rev?*%
%TF.SameCoordinates,Original*%
%TF.FileFunction,Soldermask,Bot*%
%TF.FilePolarity,Negative*%
%FSLAX46Y46*%
G04 Gerber Fmt 4.6, Leading zero omitted, Abs format (unit mm)*
G04 Created by KiCad (PCBNEW 7.0.5) date 2023-06-29 16:53:02*
%MOMM*%
%LPD*%
G01*
G04 APERTURE LIST*
G04 Aperture macros list*
%AMRoundRect*
0 Rectangle with rounded corners*
0 $1 Rounding radius*
0 $2 $3 $4 $5 $6 $7 $8 $9 X,Y pos of 4 corners*
0 Add a 4 corners polygon primitive as box body*
4,1,4,$2,$3,$4,$5,$6,$7,$8,$9,$2,$3,0*
0 Add four circle primitives for the rounded corners*
1,1,$1+$1,$2,$3*
1,1,$1+$1,$4,$5*
1,1,$1+$1,$6,$7*
1,1,$1+$1,$8,$9*
0 Add four rect primitives between the rounded corners*
20,1,$1+$1,$2,$3,$4,$5,0*
20,1,$1+$1,$4,$5,$6,$7,0*
20,1,$1+$1,$6,$7,$8,$9,0*
20,1,$1+$1,$8,$9,$2,$3,0*%
G04 Aperture macros list end*
%ADD10O,1.000000X1.000000*%
%ADD11R,1.000000X1.000000*%
%ADD12RoundRect,0.243750X0.456250X-0.243750X0.456250X0.243750X-0.456250X0.243750X-0.456250X-0.243750X0*%
%ADD13RoundRect,0.243750X0.243750X0.456250X-0.243750X0.456250X-0.243750X-0.456250X0.243750X-0.456250X0*%
%ADD14O,2.400000X1.200000*%
%ADD15R,0.700000X1.500000*%
%ADD16R,1.000000X0.800000*%
%ADD17C,0.900000*%
%ADD18RoundRect,0.250000X0.450000X-0.262500X0.450000X0.262500X-0.450000X0.262500X-0.450000X-0.262500X0*%
%ADD19RoundRect,0.250000X0.262500X0.450000X-0.262500X0.450000X-0.262500X-0.450000X0.262500X-0.450000X0*%
%ADD20RoundRect,0.250000X-0.450000X0.262500X-0.450000X-0.262500X0.450000X-0.262500X0.450000X0.262500X0*%
%ADD21RoundRect,0.250000X-0.262500X-0.450000X0.262500X-0.450000X0.262500X0.450000X-0.262500X0.450000X0*%
%ADD22RoundRect,0.150000X0.825000X0.150000X-0.825000X0.150000X-0.825000X-0.150000X0.825000X-0.150000X0*%
%ADD23RoundRect,0.250000X0.250000X0.475000X-0.250000X0.475000X-0.250000X-0.475000X0.250000X-0.475000X0*%
%ADD24RoundRect,0.150000X0.150000X-0.512500X0.150000X0.512500X-0.150000X0.512500X-0.150000X-0.512500X0*%
%ADD25RoundRect,0.225000X0.225000X0.250000X-0.225000X0.250000X-0.225000X-0.250000X0.225000X-0.250000X0*%
%ADD26RoundRect,0.225000X0.225000X0.375000X-0.225000X0.375000X-0.225000X-0.375000X0.225000X-0.375000X0*%
%ADD27RoundRect,0.150000X-0.825000X-0.150000X0.825000X-0.150000X0.825000X0.150000X-0.825000X0.150000X0*%
G04 APERTURE END LIST*
D10*
%TO.C,M1*%
X167741600Y-120690400D03*
D11*
X167741600Y-121960400D03*
%TD*%
D12*
%TO.C,D2*%
X165608000Y-122247900D03*
X165608000Y-120372900D03*
%TD*%
D13*
%TO.C,D1*%
X161950400Y-121462800D03*
X160075400Y-121462800D03*
%TD*%
D14*
%TO.C,BT1*%
X158445200Y-102666800D03*
X158445200Y-123748800D03*
%TD*%
D15*
%TO.C,SW1*%
X175400400Y-105239600D03*
X173900400Y-105239600D03*
X170900400Y-105239600D03*
D16*
X176800400Y-104589600D03*
X176800400Y-102379600D03*
D17*
X174650400Y-103479600D03*
X171650400Y-103479600D03*
D16*
X169500400Y-104589600D03*
X169500400Y-102379600D03*
%TD*%
D18*
%TO.C,R13*%
X163677600Y-122222900D03*
X163677600Y-120397900D03*
%TD*%
D19*
%TO.C,R8*%
X170738800Y-109220000D03*
X168913800Y-109220000D03*
%TD*%
D20*
%TO.C,R6*%
X159562800Y-106072300D03*
X159562800Y-107897300D03*
%TD*%
D19*
%TO.C,R10*%
X159410400Y-115316000D03*
X157585400Y-115316000D03*
%TD*%
D18*
%TO.C,R5*%
X157530800Y-109675300D03*
X157530800Y-107850300D03*
%TD*%
D21*
%TO.C,r12*%
X166831000Y-113030000D03*
X168656000Y-113030000D03*
%TD*%
D22*
%TO.C,U1*%
X166878000Y-114909600D03*
X166878000Y-116179600D03*
X166878000Y-117449600D03*
X166878000Y-118719600D03*
X161928000Y-118719600D03*
X161928000Y-117449600D03*
X161928000Y-116179600D03*
X161928000Y-114909600D03*
%TD*%
D19*
%TO.C,R9*%
X159359600Y-113385600D03*
X157534600Y-113385600D03*
%TD*%
D23*
%TO.C,C5*%
X159461200Y-117551200D03*
X157561200Y-117551200D03*
%TD*%
D24*
%TO.C,U3*%
X173228000Y-109911300D03*
X172278000Y-112186300D03*
X174178000Y-112186300D03*
%TD*%
D25*
%TO.C,C4*%
X159105600Y-119380000D03*
X157555600Y-119380000D03*
%TD*%
D21*
%TO.C,R7*%
X168911900Y-107289600D03*
X170736900Y-107289600D03*
%TD*%
D26*
%TO.C,D3*%
X174676800Y-114401600D03*
X177976800Y-114401600D03*
%TD*%
D18*
%TO.C,R4*%
X166827200Y-105460800D03*
X166827200Y-103635800D03*
%TD*%
D21*
%TO.C,R11*%
X159359600Y-111455200D03*
X157534600Y-111455200D03*
%TD*%
%TO.C,R3*%
X163171500Y-105511600D03*
X164996500Y-105511600D03*
%TD*%
D27*
%TO.C,U4*%
X166827200Y-111099600D03*
X166827200Y-109829600D03*
X166827200Y-108559600D03*
X166827200Y-107289600D03*
X161877200Y-107289600D03*
X161877200Y-108559600D03*
X161877200Y-109829600D03*
X161877200Y-111099600D03*
%TD*%
M02*
